%
M48
M72
T01C0.0079
T02C0.0118
T03C0.0240
T04C0.0276
%
T01
X4390Y4156
X4852Y3722
X5019Y4393
X5453Y4393
X5256Y5337
X5019Y5337
X4783Y5377
X4508Y5377
X4271Y5377
X4035Y5337
X3799Y5377
X3799Y5652
X4035Y5652
X4271Y5652
X4508Y5652
X4783Y5849
X5019Y5771
X5295Y5731
X5531Y5692
X5768Y5652
X6004Y5652
X6004Y5377
X5768Y5337
X5531Y5377
X6279Y5377
X6279Y5652
X6516Y5652
X6791Y5652
X6791Y5337
X6516Y5141
X7242Y5059
X7242Y6082
X6516Y6400
X5453Y6873
X4892Y6742
X4832Y7336
X4193Y7070
X4271Y6519
X3523Y5652
X3287Y5613
X3012Y5613
X3012Y5377
X3248Y5298
X3523Y5337
X3760Y4393
X2560Y4947
X2560Y5871
X6358Y3605
T02
X3203Y3351
X2953Y3491
X3203Y3685
X3426Y3908
X3887Y3580
X3729Y3308
X3538Y3054
X3816Y2985
X4216Y2785
X4503Y2789
X4335Y3079
X4417Y3383
X4980Y3330
X4980Y3015
X5216Y2778
X4941Y2700
X5663Y2805
X5909Y2953
X5619Y3120
X5538Y3424
X6052Y3659
X6210Y3386
X6333Y3094
X6532Y3300
X6906Y3546
X7045Y3797
X6711Y3797
X6488Y4020
X6737Y6646
X7010Y6803
X7302Y6927
X7096Y7126
X6850Y7499
X6600Y7639
X6600Y7304
X6377Y7082
X5916Y7410
X6073Y7682
X6265Y7935
X5987Y8005
X5587Y8205
X5300Y8200
X5467Y7911
X5386Y7607
X4823Y7660
X4823Y7975
X4586Y8211
X4862Y8290
X4140Y8185
X3894Y8037
X4183Y7870
X4265Y7566
X3750Y7331
X3593Y7604
X3470Y7896
X3270Y7690
X2897Y7444
X2758Y7193
X3092Y7193
X3315Y6970
X3065Y4344
X2793Y4187
X2500Y4063
X2706Y3864
T03
X2201Y5495
X2501Y6595
X7301Y4395
X7601Y5495
T04
X4941Y4020
M30
