G75*
G70*
%OFA0B0*%
%FSLAX24Y24*%
%IPPOS*%
%LPD*%
%AMOC8*
5,1,8,0,0,1.08239X$1,22.5*
%
%ADD10C,0.0218*%
%ADD11C,0.0135*%
%ADD12C,0.0179*%
%ADD13C,0.0160*%
%ADD14C,0.0050*%
%ADD15C,0.0360*%
D10*
X003203Y003351D03*
X002953Y003491D03*
X003203Y003685D03*
X003426Y003908D03*
X003887Y003580D03*
X003729Y003308D03*
X003538Y003054D03*
X003816Y002985D03*
X004216Y002785D03*
X004503Y002789D03*
X004335Y003079D03*
X004417Y003383D03*
X004980Y003330D03*
X004980Y003015D03*
X005216Y002778D03*
X004941Y002700D03*
X005663Y002805D03*
X005909Y002953D03*
X005619Y003120D03*
X005538Y003424D03*
X006052Y003659D03*
X006210Y003386D03*
X006333Y003094D03*
X006532Y003300D03*
X006906Y003546D03*
X007045Y003797D03*
X006711Y003797D03*
X006488Y004020D03*
X006737Y006646D03*
X007010Y006803D03*
X007302Y006927D03*
X007096Y007126D03*
X006850Y007499D03*
X006600Y007639D03*
X006600Y007304D03*
X006377Y007082D03*
X005916Y007410D03*
X006073Y007682D03*
X006265Y007935D03*
X005987Y008005D03*
X005587Y008205D03*
X005300Y008200D03*
X005467Y007911D03*
X005386Y007607D03*
X004823Y007660D03*
X004823Y007975D03*
X004586Y008211D03*
X004862Y008290D03*
X004140Y008185D03*
X003894Y008037D03*
X004183Y007870D03*
X004265Y007566D03*
X003750Y007331D03*
X003593Y007604D03*
X003470Y007896D03*
X003270Y007690D03*
X002897Y007444D03*
X002758Y007193D03*
X003092Y007193D03*
X003315Y006970D03*
X003065Y004344D03*
X002793Y004187D03*
X002500Y004063D03*
X002706Y003864D03*
D11*
X002767Y004614D02*
X002783Y004614D01*
X002767Y004614D02*
X002767Y004880D01*
X002783Y004880D01*
X002783Y004614D01*
X002783Y004748D02*
X002767Y004748D01*
X003017Y004614D02*
X003033Y004614D01*
X003017Y004614D02*
X003017Y004880D01*
X003033Y004880D01*
X003033Y004614D01*
X003033Y004748D02*
X003017Y004748D01*
X003267Y004614D02*
X003283Y004614D01*
X003267Y004614D02*
X003267Y004880D01*
X003283Y004880D01*
X003283Y004614D01*
X003283Y004748D02*
X003267Y004748D01*
X003517Y004614D02*
X003533Y004614D01*
X003517Y004614D02*
X003517Y004880D01*
X003533Y004880D01*
X003533Y004614D01*
X003533Y004748D02*
X003517Y004748D01*
X003767Y004614D02*
X003783Y004614D01*
X003767Y004614D02*
X003767Y004880D01*
X003783Y004880D01*
X003783Y004614D01*
X003783Y004748D02*
X003767Y004748D01*
X004017Y004614D02*
X004033Y004614D01*
X004017Y004614D02*
X004017Y004880D01*
X004033Y004880D01*
X004033Y004614D01*
X004033Y004748D02*
X004017Y004748D01*
X004267Y004614D02*
X004283Y004614D01*
X004267Y004614D02*
X004267Y004880D01*
X004283Y004880D01*
X004283Y004614D01*
X004283Y004748D02*
X004267Y004748D01*
X004517Y004614D02*
X004533Y004614D01*
X004517Y004614D02*
X004517Y004880D01*
X004533Y004880D01*
X004533Y004614D01*
X004533Y004748D02*
X004517Y004748D01*
X004767Y004614D02*
X004783Y004614D01*
X004767Y004614D02*
X004767Y004880D01*
X004783Y004880D01*
X004783Y004614D01*
X004783Y004748D02*
X004767Y004748D01*
X005017Y004614D02*
X005033Y004614D01*
X005017Y004614D02*
X005017Y004880D01*
X005033Y004880D01*
X005033Y004614D01*
X005033Y004748D02*
X005017Y004748D01*
X005267Y004614D02*
X005283Y004614D01*
X005267Y004614D02*
X005267Y004880D01*
X005283Y004880D01*
X005283Y004614D01*
X005283Y004748D02*
X005267Y004748D01*
X005517Y004614D02*
X005533Y004614D01*
X005517Y004614D02*
X005517Y004880D01*
X005533Y004880D01*
X005533Y004614D01*
X005533Y004748D02*
X005517Y004748D01*
X005767Y004614D02*
X005783Y004614D01*
X005767Y004614D02*
X005767Y004880D01*
X005783Y004880D01*
X005783Y004614D01*
X005783Y004748D02*
X005767Y004748D01*
X006017Y004614D02*
X006033Y004614D01*
X006017Y004614D02*
X006017Y004880D01*
X006033Y004880D01*
X006033Y004614D01*
X006033Y004748D02*
X006017Y004748D01*
X006267Y004614D02*
X006283Y004614D01*
X006267Y004614D02*
X006267Y004880D01*
X006283Y004880D01*
X006283Y004614D01*
X006283Y004748D02*
X006267Y004748D01*
X006517Y004614D02*
X006533Y004614D01*
X006517Y004614D02*
X006517Y004880D01*
X006533Y004880D01*
X006533Y004614D01*
X006533Y004748D02*
X006517Y004748D01*
X006767Y004614D02*
X006783Y004614D01*
X006767Y004614D02*
X006767Y004880D01*
X006783Y004880D01*
X006783Y004614D01*
X006783Y004748D02*
X006767Y004748D01*
X007017Y004614D02*
X007033Y004614D01*
X007017Y004614D02*
X007017Y004880D01*
X007033Y004880D01*
X007033Y004614D01*
X007033Y004748D02*
X007017Y004748D01*
X007033Y005114D02*
X007017Y005114D01*
X007017Y005380D01*
X007033Y005380D01*
X007033Y005114D01*
X007033Y005248D02*
X007017Y005248D01*
X006783Y005114D02*
X006767Y005114D01*
X006767Y005380D01*
X006783Y005380D01*
X006783Y005114D01*
X006783Y005248D02*
X006767Y005248D01*
X006533Y005114D02*
X006517Y005114D01*
X006517Y005380D01*
X006533Y005380D01*
X006533Y005114D01*
X006533Y005248D02*
X006517Y005248D01*
X006283Y005114D02*
X006267Y005114D01*
X006267Y005380D01*
X006283Y005380D01*
X006283Y005114D01*
X006283Y005248D02*
X006267Y005248D01*
X006033Y005114D02*
X006017Y005114D01*
X006017Y005380D01*
X006033Y005380D01*
X006033Y005114D01*
X006033Y005248D02*
X006017Y005248D01*
X005783Y005114D02*
X005767Y005114D01*
X005767Y005380D01*
X005783Y005380D01*
X005783Y005114D01*
X005783Y005248D02*
X005767Y005248D01*
X005533Y005114D02*
X005517Y005114D01*
X005517Y005380D01*
X005533Y005380D01*
X005533Y005114D01*
X005533Y005248D02*
X005517Y005248D01*
X005283Y005114D02*
X005267Y005114D01*
X005267Y005380D01*
X005283Y005380D01*
X005283Y005114D01*
X005283Y005248D02*
X005267Y005248D01*
X005033Y005114D02*
X005017Y005114D01*
X005017Y005380D01*
X005033Y005380D01*
X005033Y005114D01*
X005033Y005248D02*
X005017Y005248D01*
X004783Y005114D02*
X004767Y005114D01*
X004767Y005380D01*
X004783Y005380D01*
X004783Y005114D01*
X004783Y005248D02*
X004767Y005248D01*
X004533Y005114D02*
X004517Y005114D01*
X004517Y005380D01*
X004533Y005380D01*
X004533Y005114D01*
X004533Y005248D02*
X004517Y005248D01*
X004283Y005114D02*
X004267Y005114D01*
X004267Y005380D01*
X004283Y005380D01*
X004283Y005114D01*
X004283Y005248D02*
X004267Y005248D01*
X004033Y005114D02*
X004017Y005114D01*
X004017Y005380D01*
X004033Y005380D01*
X004033Y005114D01*
X004033Y005248D02*
X004017Y005248D01*
X003783Y005114D02*
X003767Y005114D01*
X003767Y005380D01*
X003783Y005380D01*
X003783Y005114D01*
X003783Y005248D02*
X003767Y005248D01*
X003533Y005114D02*
X003517Y005114D01*
X003517Y005380D01*
X003533Y005380D01*
X003533Y005114D01*
X003533Y005248D02*
X003517Y005248D01*
X003283Y005114D02*
X003267Y005114D01*
X003267Y005380D01*
X003283Y005380D01*
X003283Y005114D01*
X003283Y005248D02*
X003267Y005248D01*
X003033Y005114D02*
X003017Y005114D01*
X003017Y005380D01*
X003033Y005380D01*
X003033Y005114D01*
X003033Y005248D02*
X003017Y005248D01*
X002783Y005114D02*
X002767Y005114D01*
X002767Y005380D01*
X002783Y005380D01*
X002783Y005114D01*
X002783Y005248D02*
X002767Y005248D01*
X002783Y005638D02*
X002767Y005638D01*
X002767Y005904D01*
X002783Y005904D01*
X002783Y005638D01*
X002783Y005772D02*
X002767Y005772D01*
X003017Y005638D02*
X003033Y005638D01*
X003017Y005638D02*
X003017Y005904D01*
X003033Y005904D01*
X003033Y005638D01*
X003033Y005772D02*
X003017Y005772D01*
X003267Y005638D02*
X003283Y005638D01*
X003267Y005638D02*
X003267Y005904D01*
X003283Y005904D01*
X003283Y005638D01*
X003283Y005772D02*
X003267Y005772D01*
X003517Y005638D02*
X003533Y005638D01*
X003517Y005638D02*
X003517Y005904D01*
X003533Y005904D01*
X003533Y005638D01*
X003533Y005772D02*
X003517Y005772D01*
X003767Y005638D02*
X003783Y005638D01*
X003767Y005638D02*
X003767Y005904D01*
X003783Y005904D01*
X003783Y005638D01*
X003783Y005772D02*
X003767Y005772D01*
X004017Y005638D02*
X004033Y005638D01*
X004017Y005638D02*
X004017Y005904D01*
X004033Y005904D01*
X004033Y005638D01*
X004033Y005772D02*
X004017Y005772D01*
X004267Y005638D02*
X004283Y005638D01*
X004267Y005638D02*
X004267Y005904D01*
X004283Y005904D01*
X004283Y005638D01*
X004283Y005772D02*
X004267Y005772D01*
X004517Y005638D02*
X004533Y005638D01*
X004517Y005638D02*
X004517Y005904D01*
X004533Y005904D01*
X004533Y005638D01*
X004533Y005772D02*
X004517Y005772D01*
X004767Y005638D02*
X004783Y005638D01*
X004767Y005638D02*
X004767Y005904D01*
X004783Y005904D01*
X004783Y005638D01*
X004783Y005772D02*
X004767Y005772D01*
X005017Y005638D02*
X005033Y005638D01*
X005017Y005638D02*
X005017Y005904D01*
X005033Y005904D01*
X005033Y005638D01*
X005033Y005772D02*
X005017Y005772D01*
X005267Y005638D02*
X005283Y005638D01*
X005267Y005638D02*
X005267Y005904D01*
X005283Y005904D01*
X005283Y005638D01*
X005283Y005772D02*
X005267Y005772D01*
X005517Y005638D02*
X005533Y005638D01*
X005517Y005638D02*
X005517Y005904D01*
X005533Y005904D01*
X005533Y005638D01*
X005533Y005772D02*
X005517Y005772D01*
X005767Y005638D02*
X005783Y005638D01*
X005767Y005638D02*
X005767Y005904D01*
X005783Y005904D01*
X005783Y005638D01*
X005783Y005772D02*
X005767Y005772D01*
X006017Y005638D02*
X006033Y005638D01*
X006017Y005638D02*
X006017Y005904D01*
X006033Y005904D01*
X006033Y005638D01*
X006033Y005772D02*
X006017Y005772D01*
X006267Y005638D02*
X006283Y005638D01*
X006267Y005638D02*
X006267Y005904D01*
X006283Y005904D01*
X006283Y005638D01*
X006283Y005772D02*
X006267Y005772D01*
X006517Y005638D02*
X006533Y005638D01*
X006517Y005638D02*
X006517Y005904D01*
X006533Y005904D01*
X006533Y005638D01*
X006533Y005772D02*
X006517Y005772D01*
X006767Y005638D02*
X006783Y005638D01*
X006767Y005638D02*
X006767Y005904D01*
X006783Y005904D01*
X006783Y005638D01*
X006783Y005772D02*
X006767Y005772D01*
X007017Y005638D02*
X007033Y005638D01*
X007017Y005638D02*
X007017Y005904D01*
X007033Y005904D01*
X007033Y005638D01*
X007033Y005772D02*
X007017Y005772D01*
X007033Y006138D02*
X007017Y006138D01*
X007017Y006404D01*
X007033Y006404D01*
X007033Y006138D01*
X007033Y006272D02*
X007017Y006272D01*
X006783Y006138D02*
X006767Y006138D01*
X006767Y006404D01*
X006783Y006404D01*
X006783Y006138D01*
X006783Y006272D02*
X006767Y006272D01*
X006533Y006138D02*
X006517Y006138D01*
X006517Y006404D01*
X006533Y006404D01*
X006533Y006138D01*
X006533Y006272D02*
X006517Y006272D01*
X006283Y006138D02*
X006267Y006138D01*
X006267Y006404D01*
X006283Y006404D01*
X006283Y006138D01*
X006283Y006272D02*
X006267Y006272D01*
X006033Y006138D02*
X006017Y006138D01*
X006017Y006404D01*
X006033Y006404D01*
X006033Y006138D01*
X006033Y006272D02*
X006017Y006272D01*
X005783Y006138D02*
X005767Y006138D01*
X005767Y006404D01*
X005783Y006404D01*
X005783Y006138D01*
X005783Y006272D02*
X005767Y006272D01*
X005533Y006138D02*
X005517Y006138D01*
X005517Y006404D01*
X005533Y006404D01*
X005533Y006138D01*
X005533Y006272D02*
X005517Y006272D01*
X005283Y006138D02*
X005267Y006138D01*
X005267Y006404D01*
X005283Y006404D01*
X005283Y006138D01*
X005283Y006272D02*
X005267Y006272D01*
X005033Y006138D02*
X005017Y006138D01*
X005017Y006404D01*
X005033Y006404D01*
X005033Y006138D01*
X005033Y006272D02*
X005017Y006272D01*
X004783Y006138D02*
X004767Y006138D01*
X004767Y006404D01*
X004783Y006404D01*
X004783Y006138D01*
X004783Y006272D02*
X004767Y006272D01*
X004533Y006138D02*
X004517Y006138D01*
X004517Y006404D01*
X004533Y006404D01*
X004533Y006138D01*
X004533Y006272D02*
X004517Y006272D01*
X004283Y006138D02*
X004267Y006138D01*
X004267Y006404D01*
X004283Y006404D01*
X004283Y006138D01*
X004283Y006272D02*
X004267Y006272D01*
X004033Y006138D02*
X004017Y006138D01*
X004017Y006404D01*
X004033Y006404D01*
X004033Y006138D01*
X004033Y006272D02*
X004017Y006272D01*
X003783Y006138D02*
X003767Y006138D01*
X003767Y006404D01*
X003783Y006404D01*
X003783Y006138D01*
X003783Y006272D02*
X003767Y006272D01*
X003533Y006138D02*
X003517Y006138D01*
X003517Y006404D01*
X003533Y006404D01*
X003533Y006138D01*
X003533Y006272D02*
X003517Y006272D01*
X003283Y006138D02*
X003267Y006138D01*
X003267Y006404D01*
X003283Y006404D01*
X003283Y006138D01*
X003283Y006272D02*
X003267Y006272D01*
X003033Y006138D02*
X003017Y006138D01*
X003017Y006404D01*
X003033Y006404D01*
X003033Y006138D01*
X003033Y006272D02*
X003017Y006272D01*
X002783Y006138D02*
X002767Y006138D01*
X002767Y006404D01*
X002783Y006404D01*
X002783Y006138D01*
X002783Y006272D02*
X002767Y006272D01*
D12*
X002560Y005871D03*
X003012Y005613D03*
X003012Y005377D03*
X003248Y005298D03*
X003523Y005337D03*
X003523Y005652D03*
X003287Y005613D03*
X003799Y005652D03*
X004035Y005652D03*
X004271Y005652D03*
X004508Y005652D03*
X004508Y005377D03*
X004271Y005377D03*
X004035Y005337D03*
X003799Y005377D03*
X004783Y005377D03*
X005019Y005337D03*
X005256Y005337D03*
X005531Y005377D03*
X005768Y005337D03*
X006004Y005377D03*
X006004Y005652D03*
X005768Y005652D03*
X005531Y005692D03*
X005295Y005731D03*
X005019Y005771D03*
X004783Y005849D03*
X004271Y006519D03*
X004892Y006742D03*
X005453Y006873D03*
X004832Y007336D03*
X004193Y007070D03*
X006279Y005652D03*
X006516Y005652D03*
X006791Y005652D03*
X006791Y005337D03*
X006516Y005141D03*
X006279Y005377D03*
X007242Y005059D03*
X007242Y006082D03*
X006516Y006400D03*
X005453Y004393D03*
X005019Y004393D03*
X004390Y004156D03*
X004852Y003722D03*
X003760Y004393D03*
X002560Y004947D03*
X006358Y003605D03*
D13*
X003308Y002959D02*
X003030Y002959D01*
X003128Y002877D02*
X002646Y003279D01*
X002377Y003612D01*
X002413Y003576D01*
X002510Y003479D01*
X002704Y003479D01*
X002704Y003441D01*
X002742Y003349D01*
X002812Y003279D01*
X002903Y003242D01*
X002979Y003242D01*
X002992Y003210D01*
X003062Y003140D01*
X003154Y003102D01*
X003253Y003102D01*
X003295Y003120D01*
X003289Y003104D01*
X003289Y003005D01*
X003327Y002913D01*
X003397Y002843D01*
X003488Y002805D01*
X003587Y002805D01*
X003627Y002822D01*
X003675Y002774D01*
X003766Y002736D01*
X003865Y002736D01*
X003957Y002774D01*
X003967Y002784D01*
X003967Y002735D01*
X004005Y002644D01*
X004075Y002574D01*
X004166Y002536D01*
X004265Y002536D01*
X004357Y002574D01*
X004362Y002578D01*
X004453Y002540D01*
X004552Y002540D01*
X004644Y002578D01*
X004699Y002633D01*
X004730Y002559D01*
X004800Y002489D01*
X004891Y002451D01*
X004990Y002451D01*
X005082Y002489D01*
X005136Y002542D01*
X005167Y002529D01*
X005266Y002529D01*
X005357Y002567D01*
X005427Y002637D01*
X005445Y002680D01*
X005452Y002664D01*
X005522Y002594D01*
X005613Y002556D01*
X005712Y002556D01*
X005804Y002594D01*
X005874Y002664D01*
X005890Y002703D01*
X005958Y002703D01*
X006050Y002741D01*
X006120Y002811D01*
X006158Y002903D01*
X006158Y002917D01*
X006192Y002883D01*
X006284Y002845D01*
X006383Y002845D01*
X006474Y002883D01*
X006544Y002953D01*
X006582Y003044D01*
X006582Y003051D01*
X006673Y003089D01*
X006744Y003159D01*
X006781Y003250D01*
X006781Y003328D01*
X006856Y003297D01*
X006955Y003297D01*
X007047Y003335D01*
X007117Y003405D01*
X007155Y003497D01*
X007155Y003573D01*
X007186Y003586D01*
X007256Y003656D01*
X007294Y003747D01*
X007294Y003846D01*
X007256Y003938D01*
X007210Y003984D01*
X007210Y004086D01*
X007238Y004075D01*
X007365Y004075D01*
X007483Y004124D01*
X007573Y004214D01*
X007621Y004331D01*
X007621Y004459D01*
X007573Y004576D01*
X007483Y004666D01*
X007401Y004700D01*
X007427Y004727D01*
X007627Y004927D01*
X007627Y005224D01*
X007530Y005321D01*
X007467Y005385D01*
X007467Y005763D01*
X007370Y005860D01*
X007294Y005936D01*
X007240Y005936D01*
X007240Y005989D01*
X007235Y005995D01*
X007252Y006021D01*
X007271Y006066D01*
X007280Y006114D01*
X007280Y006271D01*
X007280Y006427D01*
X007271Y006475D01*
X007252Y006520D01*
X007225Y006561D01*
X007191Y006595D01*
X007169Y006610D01*
X007221Y006662D01*
X007231Y006687D01*
X007253Y006678D01*
X007352Y006678D01*
X007444Y006716D01*
X007514Y006786D01*
X007552Y006877D01*
X007552Y006976D01*
X007514Y007068D01*
X007444Y007138D01*
X007352Y007176D01*
X007345Y007176D01*
X007308Y007267D01*
X007238Y007337D01*
X007146Y007375D01*
X007068Y007375D01*
X007099Y007450D01*
X007099Y007549D01*
X007061Y007640D01*
X006991Y007710D01*
X006900Y007748D01*
X006824Y007748D01*
X006811Y007780D01*
X006741Y007850D01*
X006649Y007888D01*
X006550Y007888D01*
X006507Y007870D01*
X006514Y007886D01*
X006514Y007985D01*
X006476Y008077D01*
X006406Y008147D01*
X006314Y008184D01*
X006215Y008184D01*
X006176Y008168D01*
X006128Y008216D01*
X006036Y008254D01*
X005937Y008254D01*
X005846Y008216D01*
X005836Y008206D01*
X005836Y008255D01*
X005798Y008346D01*
X005728Y008416D01*
X005636Y008454D01*
X005537Y008454D01*
X005446Y008416D01*
X005441Y008412D01*
X005350Y008450D01*
X005251Y008450D01*
X005159Y008412D01*
X005104Y008357D01*
X005073Y008431D01*
X005003Y008501D01*
X004912Y008539D01*
X004812Y008539D01*
X004721Y008501D01*
X004667Y008448D01*
X004636Y008461D01*
X004537Y008461D01*
X004445Y008423D01*
X004375Y008353D01*
X004358Y008310D01*
X004351Y008326D01*
X004281Y008396D01*
X004189Y008434D01*
X004090Y008434D01*
X003999Y008396D01*
X003929Y008326D01*
X003912Y008286D01*
X003845Y008286D01*
X003753Y008249D01*
X003683Y008178D01*
X003645Y008087D01*
X003645Y008073D01*
X003611Y008107D01*
X003519Y008145D01*
X003420Y008145D01*
X003329Y008107D01*
X003258Y008037D01*
X003221Y007946D01*
X003221Y007939D01*
X003129Y007901D01*
X003059Y007831D01*
X003021Y007740D01*
X003021Y007662D01*
X002947Y007693D01*
X002847Y007693D01*
X002756Y007655D01*
X002686Y007585D01*
X002648Y007493D01*
X002648Y007417D01*
X002617Y007404D01*
X002547Y007334D01*
X002509Y007243D01*
X002509Y007144D01*
X002547Y007052D01*
X002593Y007006D01*
X002593Y006904D01*
X002565Y006915D01*
X002438Y006915D01*
X002320Y006866D01*
X002230Y006776D01*
X002181Y006659D01*
X002181Y006531D01*
X002230Y006414D01*
X002320Y006324D01*
X002402Y006290D01*
X002272Y006160D01*
X002176Y006063D01*
X002176Y005687D01*
X002336Y005527D01*
X002336Y005227D01*
X002433Y005130D01*
X002560Y005130D01*
X002560Y005028D01*
X002566Y005023D01*
X002549Y004997D01*
X002530Y004952D01*
X002520Y004904D01*
X002520Y004747D01*
X002775Y004747D01*
X002775Y004747D01*
X002520Y004747D01*
X002520Y004590D01*
X002530Y004542D01*
X002549Y004497D01*
X002576Y004457D01*
X002610Y004422D01*
X002650Y004396D01*
X002582Y004328D01*
X002571Y004303D01*
X002550Y004312D01*
X002451Y004312D01*
X002359Y004274D01*
X002289Y004204D01*
X002251Y004113D01*
X002251Y004014D01*
X002289Y003922D01*
X002295Y003916D01*
X002295Y003714D01*
X002252Y003768D01*
X002116Y004000D01*
X002116Y006990D01*
X002252Y007222D01*
X002646Y007711D01*
X003128Y008113D01*
X003681Y008412D01*
X004282Y008595D01*
X004907Y008656D01*
X005531Y008593D01*
X006131Y008407D01*
X006683Y008107D01*
X007164Y007704D01*
X007556Y007213D01*
X007686Y006989D01*
X007686Y004001D01*
X007556Y003777D01*
X007164Y003286D01*
X006683Y002883D01*
X006131Y002582D01*
X005531Y002397D01*
X004907Y002334D01*
X004282Y002395D01*
X003681Y002578D01*
X003128Y002877D01*
X003270Y002800D02*
X003648Y002800D01*
X003563Y002642D02*
X004006Y002642D01*
X003991Y002483D02*
X004812Y002483D01*
X005070Y002483D02*
X005811Y002483D01*
X005852Y002642D02*
X006241Y002642D01*
X006109Y002800D02*
X006532Y002800D01*
X006547Y002959D02*
X006774Y002959D01*
X006702Y003117D02*
X006963Y003117D01*
X006781Y003276D02*
X007152Y003276D01*
X007129Y003434D02*
X007283Y003434D01*
X007193Y003593D02*
X007409Y003593D01*
X007294Y003751D02*
X007536Y003751D01*
X007634Y003910D02*
X007268Y003910D01*
X007210Y004068D02*
X007686Y004068D01*
X007686Y004227D02*
X007578Y004227D01*
X007621Y004385D02*
X007686Y004385D01*
X007686Y004544D02*
X007586Y004544D01*
X007686Y004702D02*
X007403Y004702D01*
X007562Y004861D02*
X007686Y004861D01*
X007686Y005019D02*
X007627Y005019D01*
X007627Y005178D02*
X007686Y005178D01*
X007686Y005336D02*
X007515Y005336D01*
X007467Y005495D02*
X007686Y005495D01*
X007686Y005653D02*
X007467Y005653D01*
X007418Y005812D02*
X007686Y005812D01*
X007686Y005970D02*
X007240Y005970D01*
X007280Y006129D02*
X007686Y006129D01*
X007686Y006287D02*
X007280Y006287D01*
X007280Y006271D02*
X007025Y006271D01*
X007025Y006271D01*
X007280Y006271D01*
X007277Y006446D02*
X007686Y006446D01*
X007686Y006604D02*
X007177Y006604D01*
X007491Y006763D02*
X007686Y006763D01*
X007686Y006921D02*
X007552Y006921D01*
X007501Y007080D02*
X007634Y007080D01*
X007536Y007238D02*
X007319Y007238D01*
X007409Y007397D02*
X007077Y007397D01*
X007096Y007555D02*
X007283Y007555D01*
X007152Y007714D02*
X006983Y007714D01*
X006963Y007872D02*
X006686Y007872D01*
X006513Y007872D02*
X006508Y007872D01*
X006495Y008031D02*
X006774Y008031D01*
X006532Y008189D02*
X006155Y008189D01*
X006241Y008348D02*
X005796Y008348D01*
X005811Y008506D02*
X004991Y008506D01*
X004733Y008506D02*
X003991Y008506D01*
X003951Y008348D02*
X003563Y008348D01*
X003694Y008189D02*
X003270Y008189D01*
X003256Y008031D02*
X003030Y008031D01*
X003101Y007872D02*
X002839Y007872D01*
X003021Y007714D02*
X002649Y007714D01*
X002674Y007555D02*
X002520Y007555D01*
X002609Y007397D02*
X002393Y007397D01*
X002509Y007238D02*
X002265Y007238D01*
X002169Y007080D02*
X002535Y007080D01*
X002593Y006921D02*
X002116Y006921D01*
X002116Y006763D02*
X002225Y006763D01*
X002181Y006604D02*
X002116Y006604D01*
X002116Y006446D02*
X002217Y006446D01*
X002116Y006287D02*
X002400Y006287D01*
X002241Y006129D02*
X002116Y006129D01*
X002116Y005970D02*
X002176Y005970D01*
X002176Y005812D02*
X002116Y005812D01*
X002116Y005653D02*
X002209Y005653D01*
X002116Y005495D02*
X002336Y005495D01*
X002336Y005336D02*
X002116Y005336D01*
X002116Y005178D02*
X002385Y005178D01*
X002564Y005019D02*
X002116Y005019D01*
X002116Y004861D02*
X002520Y004861D01*
X002520Y004702D02*
X002116Y004702D01*
X002116Y004544D02*
X002530Y004544D01*
X002639Y004385D02*
X002116Y004385D01*
X002116Y004227D02*
X002312Y004227D01*
X002251Y004068D02*
X002116Y004068D01*
X002169Y003910D02*
X002295Y003910D01*
X002295Y003751D02*
X002265Y003751D01*
X002393Y003593D02*
X002397Y003593D01*
X002520Y003434D02*
X002706Y003434D01*
X002649Y003276D02*
X002820Y003276D01*
X002839Y003117D02*
X003117Y003117D01*
X003289Y003117D02*
X003294Y003117D01*
X003953Y003198D02*
X003978Y003258D01*
X003978Y003349D01*
X004028Y003369D01*
X004098Y003439D01*
X004136Y003531D01*
X004136Y003630D01*
X004098Y003721D01*
X004028Y003791D01*
X003996Y003805D01*
X004206Y004015D01*
X004295Y003927D01*
X004485Y003927D01*
X004603Y004045D01*
X004603Y003952D01*
X004654Y003828D01*
X004749Y003733D01*
X004874Y003682D01*
X005008Y003682D01*
X005132Y003733D01*
X005227Y003828D01*
X005279Y003952D01*
X005279Y004018D01*
X005642Y003655D01*
X005642Y003650D01*
X005587Y003673D01*
X005488Y003673D01*
X005397Y003635D01*
X005327Y003565D01*
X005289Y003473D01*
X005289Y003374D01*
X005327Y003283D01*
X005391Y003219D01*
X005370Y003169D01*
X005370Y003070D01*
X005408Y002978D01*
X005448Y002938D01*
X005434Y002904D01*
X005427Y002920D01*
X005357Y002990D01*
X005266Y003027D01*
X005229Y003027D01*
X005229Y003064D01*
X005191Y003156D01*
X005175Y003172D01*
X005191Y003189D01*
X005229Y003280D01*
X005229Y003379D01*
X005191Y003471D01*
X005121Y003541D01*
X005030Y003579D01*
X004931Y003579D01*
X004839Y003541D01*
X004769Y003471D01*
X004731Y003379D01*
X004731Y003280D01*
X004769Y003189D01*
X004785Y003172D01*
X004769Y003156D01*
X004731Y003064D01*
X004731Y002965D01*
X004767Y002878D01*
X004745Y002856D01*
X004714Y002931D01*
X004644Y003001D01*
X004583Y003026D01*
X004585Y003029D01*
X004585Y003128D01*
X004564Y003178D01*
X004628Y003242D01*
X004666Y003333D01*
X004666Y003433D01*
X004628Y003524D01*
X004558Y003594D01*
X004467Y003632D01*
X004367Y003632D01*
X004276Y003594D01*
X004206Y003524D01*
X004168Y003433D01*
X004168Y003333D01*
X004188Y003284D01*
X004124Y003220D01*
X004086Y003128D01*
X004086Y003029D01*
X004097Y003005D01*
X004075Y002996D01*
X004065Y002986D01*
X004065Y003034D01*
X004027Y003126D01*
X003957Y003196D01*
X003953Y003198D01*
X003978Y003276D02*
X004180Y003276D01*
X004169Y003434D02*
X004093Y003434D01*
X004136Y003593D02*
X004275Y003593D01*
X004068Y003751D02*
X004731Y003751D01*
X004620Y003910D02*
X004101Y003910D01*
X004559Y003593D02*
X005355Y003593D01*
X005545Y003751D02*
X005150Y003751D01*
X005261Y003910D02*
X005387Y003910D01*
X005289Y003434D02*
X005206Y003434D01*
X005227Y003276D02*
X005333Y003276D01*
X005370Y003117D02*
X005207Y003117D01*
X005388Y002959D02*
X005428Y002959D01*
X005429Y002642D02*
X005474Y002642D01*
X004734Y002959D02*
X004685Y002959D01*
X004753Y003117D02*
X004585Y003117D01*
X004642Y003276D02*
X004733Y003276D01*
X004754Y003434D02*
X004665Y003434D01*
X004086Y003117D02*
X004031Y003117D01*
X004948Y006611D02*
X004948Y006666D01*
X004852Y006763D01*
X004615Y006999D01*
X004422Y006999D01*
X004422Y007066D01*
X004603Y007246D01*
X004603Y007241D01*
X004737Y007107D01*
X004927Y007107D01*
X005061Y007241D01*
X005061Y007431D01*
X005003Y007489D01*
X005034Y007519D01*
X005072Y007611D01*
X005072Y007710D01*
X005034Y007801D01*
X005017Y007818D01*
X005034Y007834D01*
X005072Y007926D01*
X005072Y008025D01*
X005036Y008112D01*
X005058Y008134D01*
X005089Y008059D01*
X005159Y007989D01*
X005220Y007964D01*
X005218Y007961D01*
X005218Y007862D01*
X005239Y007812D01*
X005175Y007748D01*
X005137Y007656D01*
X005137Y007557D01*
X005175Y007466D01*
X005245Y007396D01*
X005336Y007358D01*
X005435Y007358D01*
X005527Y007396D01*
X005597Y007466D01*
X005635Y007557D01*
X005635Y007656D01*
X005614Y007706D01*
X005678Y007770D01*
X005716Y007862D01*
X005716Y007961D01*
X005706Y007985D01*
X005728Y007994D01*
X005738Y008004D01*
X005738Y007955D01*
X005776Y007864D01*
X005846Y007794D01*
X005849Y007792D01*
X005824Y007732D01*
X005824Y007641D01*
X005775Y007621D01*
X005705Y007551D01*
X005667Y007459D01*
X005667Y007360D01*
X005705Y007269D01*
X005775Y007198D01*
X005807Y007185D01*
X005636Y007014D01*
X005548Y007102D01*
X005358Y007102D01*
X005223Y006968D01*
X005223Y006877D01*
X004957Y006611D01*
X004948Y006611D01*
X004851Y006763D02*
X005109Y006763D01*
X005223Y006921D02*
X004693Y006921D01*
X004437Y007080D02*
X005335Y007080D01*
X005570Y007080D02*
X005702Y007080D01*
X005735Y007238D02*
X005059Y007238D01*
X005061Y007397D02*
X005243Y007397D01*
X005137Y007555D02*
X005049Y007555D01*
X005070Y007714D02*
X005161Y007714D01*
X005218Y007872D02*
X005050Y007872D01*
X005069Y008031D02*
X005117Y008031D01*
X005622Y007714D02*
X005824Y007714D01*
X005710Y007555D02*
X005634Y007555D01*
X005667Y007397D02*
X005528Y007397D01*
X005716Y007872D02*
X005772Y007872D01*
X004605Y007238D02*
X004595Y007238D01*
X004373Y008348D02*
X004329Y008348D01*
D14*
X004586Y008211D02*
X004586Y007582D01*
X004832Y007336D01*
X004468Y007345D02*
X004468Y007700D01*
X004298Y007870D01*
X004183Y007870D01*
X004468Y007345D02*
X004193Y007070D01*
X004193Y006834D02*
X004547Y006834D01*
X004783Y006597D01*
X004783Y006278D01*
X004775Y006271D01*
X004547Y006292D02*
X004525Y006271D01*
X004547Y006292D02*
X004547Y006597D01*
X004429Y006715D01*
X004075Y006715D01*
X003523Y007267D01*
X003523Y007463D01*
X003593Y007533D01*
X003593Y007604D01*
X003750Y007331D02*
X003750Y007276D01*
X004193Y006834D01*
X004035Y006558D02*
X004035Y006280D01*
X004025Y006271D01*
X004271Y006274D02*
X004271Y006519D01*
X004035Y006558D02*
X003270Y007323D01*
X003270Y007690D01*
X002897Y007342D02*
X002933Y007306D01*
X002933Y006912D01*
X003287Y006558D01*
X003287Y006282D01*
X003275Y006271D01*
X003484Y006312D02*
X003484Y006519D01*
X003092Y006911D01*
X003092Y007193D01*
X002897Y007342D02*
X002897Y007444D01*
X002758Y007193D02*
X002758Y006851D01*
X003012Y006597D01*
X003012Y006284D01*
X003025Y006271D01*
X002801Y006395D02*
X002701Y006395D01*
X002501Y006595D01*
X002775Y006369D02*
X002801Y006395D01*
X002775Y006369D02*
X002775Y006271D01*
X002616Y006271D01*
X002341Y005995D01*
X002341Y005756D01*
X002501Y005595D01*
X002501Y005295D01*
X002727Y005295D01*
X002775Y005247D01*
X003014Y005298D02*
X003025Y005247D01*
X003014Y005298D02*
X003012Y005377D01*
X003012Y005613D02*
X003051Y005652D01*
X003051Y005849D01*
X003025Y005824D01*
X003025Y005771D01*
X003275Y005771D02*
X003287Y005759D01*
X003287Y005613D01*
X003523Y005652D02*
X003563Y005733D01*
X003525Y005771D01*
X003775Y005771D02*
X003775Y005629D01*
X003760Y005613D01*
X003799Y005652D02*
X003799Y005747D01*
X003775Y005771D01*
X004025Y005771D02*
X004035Y005761D01*
X004035Y005652D01*
X004271Y005652D02*
X004275Y005692D01*
X004275Y005771D01*
X004508Y005753D02*
X004508Y005652D01*
X004508Y005753D02*
X004525Y005771D01*
X004775Y005771D02*
X004783Y005778D01*
X004783Y005849D01*
X005019Y005776D02*
X005025Y005771D01*
X005019Y005771D02*
X005019Y005776D01*
X005275Y005771D02*
X005295Y005790D01*
X005295Y005731D01*
X005525Y005771D02*
X005531Y005765D01*
X005531Y005692D01*
X005768Y005652D02*
X005768Y005763D01*
X005775Y005771D01*
X006004Y005652D02*
X006025Y005670D01*
X006025Y005771D01*
X006275Y005771D02*
X006275Y005656D01*
X006279Y005652D01*
X006516Y005652D02*
X006565Y005662D01*
X006525Y005771D01*
X006775Y005771D02*
X006791Y005755D01*
X006791Y005652D01*
X006791Y005337D02*
X006752Y005271D01*
X006775Y005247D01*
X006525Y005247D02*
X006525Y005367D01*
X006516Y005141D01*
X006275Y005247D02*
X006279Y005322D01*
X006279Y005377D01*
X006025Y005247D02*
X006004Y005269D01*
X006004Y005377D01*
X005768Y005337D02*
X005768Y005255D01*
X005775Y005247D01*
X005525Y005247D02*
X005531Y005320D01*
X005531Y005377D01*
X005256Y005337D02*
X005256Y005267D01*
X005275Y005247D01*
X005025Y005247D02*
X005019Y005253D01*
X005019Y005337D01*
X004783Y005377D02*
X004744Y005318D01*
X004775Y005247D01*
X004525Y005247D02*
X004508Y005265D01*
X004508Y005377D01*
X004271Y005377D02*
X004232Y005290D01*
X004275Y005247D01*
X004035Y005257D02*
X004025Y005247D01*
X004035Y005257D02*
X004035Y005337D01*
X003799Y005349D02*
X003775Y005247D01*
X003799Y005349D02*
X003799Y005377D01*
X003523Y005337D02*
X003484Y005288D01*
X003525Y005247D01*
X003275Y005247D02*
X003248Y005274D01*
X003248Y005298D01*
X003275Y004747D02*
X003287Y004735D01*
X003287Y004274D01*
X003169Y004156D01*
X002972Y004156D01*
X002942Y004187D01*
X002793Y004187D01*
X003065Y004344D02*
X003065Y004707D01*
X003025Y004747D01*
X002775Y004747D02*
X002560Y004947D01*
X002500Y004063D02*
X002500Y003960D01*
X002460Y003920D01*
X002460Y003763D01*
X002579Y003645D01*
X002775Y003645D01*
X003130Y003999D01*
X003208Y003999D01*
X003523Y004314D01*
X003523Y004745D01*
X003525Y004747D01*
X003760Y004731D02*
X003775Y004747D01*
X003760Y004731D02*
X003760Y004393D01*
X003996Y004353D02*
X003996Y004717D01*
X004025Y004747D01*
X004275Y004747D02*
X004275Y004475D01*
X003484Y003684D01*
X003205Y003684D01*
X003203Y003685D01*
X003327Y003526D02*
X003484Y003526D01*
X004468Y004511D01*
X004468Y004690D01*
X004525Y004747D01*
X004744Y004715D02*
X004783Y004550D01*
X004390Y004156D01*
X003996Y004353D02*
X003551Y003908D01*
X003426Y003908D01*
X003327Y003526D02*
X002953Y003491D01*
X004744Y004715D02*
X004775Y004747D01*
X005025Y004747D02*
X005025Y004399D01*
X005019Y004393D01*
X005275Y004255D02*
X005807Y003723D01*
X005807Y003605D01*
X005964Y003448D01*
X006148Y003448D01*
X006210Y003386D01*
X006358Y003605D02*
X006358Y003645D01*
X006122Y003881D01*
X006122Y003960D01*
X005525Y004556D01*
X005525Y004747D01*
X005768Y004739D02*
X005768Y004589D01*
X005964Y004432D01*
X006279Y004117D01*
X006279Y003920D01*
X006532Y003667D01*
X006532Y003300D01*
X006906Y003546D02*
X006906Y003648D01*
X006870Y003684D01*
X006870Y004196D01*
X006516Y004550D01*
X006516Y004737D01*
X006525Y004747D01*
X006752Y004723D02*
X006752Y004550D01*
X007045Y004257D01*
X007045Y003797D01*
X006711Y003797D02*
X006711Y003840D01*
X006712Y003841D01*
X006712Y004117D01*
X006279Y004550D01*
X006279Y004743D01*
X006275Y004747D01*
X006043Y004729D02*
X006043Y004589D01*
X006488Y004144D01*
X006488Y004020D01*
X006052Y003659D02*
X005453Y004259D01*
X005453Y004393D01*
X005275Y004255D02*
X005275Y004747D01*
X005768Y004739D02*
X005775Y004747D01*
X006025Y004747D02*
X006043Y004729D01*
X006752Y004723D02*
X006775Y004747D01*
X007025Y004747D02*
X007301Y004471D01*
X007301Y004395D01*
X007025Y004747D02*
X007073Y004795D01*
X007262Y004795D01*
X007462Y004995D01*
X007462Y005156D01*
X007301Y005316D01*
X007301Y005695D01*
X007226Y005771D01*
X007025Y005771D01*
X007230Y006071D02*
X007242Y006082D01*
X006775Y006271D02*
X006737Y006309D01*
X006737Y006646D01*
X006516Y006400D02*
X006516Y006241D01*
X006525Y006271D01*
X006279Y006274D02*
X006279Y006519D01*
X006752Y006991D01*
X006909Y006991D01*
X007145Y006952D01*
X007277Y006952D01*
X007302Y006927D01*
X007096Y007126D02*
X007080Y007109D01*
X006673Y007109D01*
X006025Y006461D01*
X006025Y006271D01*
X006275Y006271D02*
X006279Y006274D01*
X005775Y006271D02*
X005775Y006480D01*
X006377Y007082D01*
X006319Y007306D02*
X006598Y007306D01*
X006600Y007304D01*
X006712Y007463D02*
X006319Y007463D01*
X005334Y006479D01*
X005334Y006330D01*
X005275Y006271D01*
X005025Y006271D02*
X005019Y006276D01*
X005019Y006440D01*
X005453Y006873D01*
X005525Y006513D02*
X006319Y007306D01*
X006712Y007463D02*
X006748Y007499D01*
X006850Y007499D01*
X005525Y006513D02*
X005525Y006271D01*
X004275Y006271D02*
X004271Y006274D01*
X003775Y006271D02*
X003760Y006286D01*
X003760Y006597D01*
X003387Y006970D01*
X003315Y006970D01*
X003484Y006312D02*
X003525Y006271D01*
X007025Y005247D02*
X007037Y005259D01*
X007242Y005059D01*
D15*
X007601Y005495D03*
X007301Y004395D03*
X002501Y006595D03*
X002201Y005495D03*
M02*
