G75*
G70*
%OFA0B0*%
%FSLAX24Y24*%
%IPPOS*%
%LPD*%
%AMOC8*
5,1,8,0,0,1.08239X$1,22.5*
%
%ADD10C,0.0218*%
%ADD11C,0.0179*%
%ADD12C,0.0160*%
%ADD13C,0.0050*%
%ADD14C,0.0360*%
D10*
X003203Y003351D03*
X002953Y003491D03*
X003203Y003685D03*
X003426Y003908D03*
X003887Y003580D03*
X003729Y003308D03*
X003538Y003054D03*
X003816Y002985D03*
X004216Y002785D03*
X004503Y002789D03*
X004335Y003079D03*
X004417Y003383D03*
X004980Y003330D03*
X004980Y003015D03*
X005216Y002778D03*
X004941Y002700D03*
X005663Y002805D03*
X005909Y002953D03*
X005619Y003120D03*
X005538Y003424D03*
X006052Y003659D03*
X006210Y003386D03*
X006333Y003094D03*
X006532Y003300D03*
X006906Y003546D03*
X007045Y003797D03*
X006711Y003797D03*
X006488Y004020D03*
X006737Y006646D03*
X007010Y006803D03*
X007302Y006927D03*
X007096Y007126D03*
X006850Y007499D03*
X006600Y007639D03*
X006600Y007304D03*
X006377Y007082D03*
X005916Y007410D03*
X006073Y007682D03*
X006265Y007935D03*
X005987Y008005D03*
X005587Y008205D03*
X005300Y008200D03*
X005467Y007911D03*
X005386Y007607D03*
X004823Y007660D03*
X004823Y007975D03*
X004586Y008211D03*
X004862Y008290D03*
X004140Y008185D03*
X003894Y008037D03*
X004183Y007870D03*
X004265Y007566D03*
X003750Y007331D03*
X003593Y007604D03*
X003470Y007896D03*
X003270Y007690D03*
X002897Y007444D03*
X002758Y007193D03*
X003092Y007193D03*
X003315Y006970D03*
X003065Y004344D03*
X002793Y004187D03*
X002500Y004063D03*
X002706Y003864D03*
D11*
X003760Y004393D03*
X004390Y004156D03*
X004852Y003722D03*
X005019Y004393D03*
X005453Y004393D03*
X005256Y005337D03*
X005019Y005337D03*
X004783Y005377D03*
X004508Y005377D03*
X004271Y005377D03*
X004035Y005337D03*
X003799Y005377D03*
X003799Y005652D03*
X004035Y005652D03*
X004271Y005652D03*
X004508Y005652D03*
X004783Y005849D03*
X005019Y005771D03*
X005295Y005731D03*
X005531Y005692D03*
X005768Y005652D03*
X006004Y005652D03*
X006004Y005377D03*
X005768Y005337D03*
X005531Y005377D03*
X006279Y005377D03*
X006279Y005652D03*
X006516Y005652D03*
X006791Y005652D03*
X006791Y005337D03*
X006516Y005141D03*
X007242Y005059D03*
X007242Y006082D03*
X006516Y006400D03*
X005453Y006873D03*
X004892Y006742D03*
X004832Y007336D03*
X004193Y007070D03*
X004271Y006519D03*
X003523Y005652D03*
X003287Y005613D03*
X003012Y005613D03*
X003012Y005377D03*
X003248Y005298D03*
X003523Y005337D03*
X002560Y004947D03*
X002560Y005871D03*
X006358Y003605D03*
D12*
X003286Y002959D02*
X003030Y002959D01*
X003128Y002877D02*
X002646Y003279D01*
X002252Y003768D01*
X002116Y004000D01*
X002116Y006990D01*
X002252Y007222D01*
X002646Y007711D01*
X003128Y008113D01*
X003681Y008412D01*
X004282Y008595D01*
X004907Y008656D01*
X005531Y008593D01*
X006131Y008407D01*
X006683Y008107D01*
X007164Y007704D01*
X007556Y007213D01*
X007686Y006989D01*
X007686Y004001D01*
X007556Y003777D01*
X007164Y003286D01*
X006683Y002883D01*
X006131Y002582D01*
X005531Y002397D01*
X004907Y002334D01*
X004282Y002395D01*
X003681Y002578D01*
X003128Y002877D01*
X003270Y002800D02*
X003448Y002800D01*
X003484Y002785D02*
X003385Y002826D01*
X003310Y002902D01*
X003269Y003001D01*
X003269Y003087D01*
X003257Y003082D01*
X003150Y003082D01*
X003051Y003123D01*
X002975Y003199D01*
X002966Y003222D01*
X002899Y003222D01*
X002800Y003262D01*
X002725Y003338D01*
X002684Y003437D01*
X002684Y003544D01*
X002705Y003595D01*
X002653Y003595D01*
X002554Y003636D01*
X002478Y003712D01*
X002443Y003796D01*
X002348Y003835D01*
X002272Y003911D01*
X002231Y004010D01*
X002231Y004117D01*
X002272Y004216D01*
X002348Y004291D01*
X002447Y004332D01*
X002554Y004332D01*
X002561Y004329D01*
X002565Y004339D01*
X002640Y004415D01*
X002739Y004456D01*
X002820Y004456D01*
X002837Y004496D01*
X002913Y004572D01*
X003012Y004613D01*
X003119Y004613D01*
X003218Y004572D01*
X003294Y004496D01*
X003335Y004398D01*
X003335Y004291D01*
X003294Y004192D01*
X003218Y004116D01*
X003119Y004075D01*
X003038Y004075D01*
X003021Y004034D01*
X002954Y003968D01*
X002975Y003917D01*
X002975Y003838D01*
X003051Y003914D01*
X003150Y003954D01*
X003157Y003954D01*
X003157Y003962D01*
X003198Y004061D01*
X003273Y004136D01*
X003372Y004177D01*
X003479Y004177D01*
X003578Y004136D01*
X003654Y004061D01*
X003695Y003962D01*
X003695Y003855D01*
X003654Y003756D01*
X003578Y003680D01*
X003479Y003639D01*
X003472Y003639D01*
X003472Y003632D01*
X003431Y003533D01*
X003417Y003518D01*
X003431Y003504D01*
X003472Y003405D01*
X003472Y003390D01*
X003501Y003460D01*
X003577Y003536D01*
X003618Y003553D01*
X003618Y003634D01*
X003659Y003733D01*
X003734Y003808D01*
X003833Y003849D01*
X003940Y003849D01*
X004039Y003808D01*
X004115Y003733D01*
X004156Y003634D01*
X004156Y003527D01*
X004115Y003428D01*
X004039Y003352D01*
X003998Y003335D01*
X003998Y003254D01*
X003978Y003204D01*
X004044Y003137D01*
X004066Y003083D01*
X004066Y003132D01*
X004107Y003231D01*
X004165Y003289D01*
X004148Y003329D01*
X004148Y003437D01*
X004189Y003535D01*
X004265Y003611D01*
X004363Y003652D01*
X004471Y003652D01*
X004569Y003611D01*
X004645Y003535D01*
X004686Y003437D01*
X004686Y003329D01*
X004645Y003231D01*
X004588Y003173D01*
X004605Y003132D01*
X004605Y003038D01*
X004655Y003018D01*
X004711Y002961D01*
X004711Y003068D01*
X004752Y003167D01*
X004757Y003172D01*
X004752Y003177D01*
X004711Y003276D01*
X004711Y003383D01*
X004752Y003482D01*
X004828Y003558D01*
X004927Y003599D01*
X005034Y003599D01*
X005133Y003558D01*
X005208Y003482D01*
X005249Y003383D01*
X005249Y003276D01*
X005308Y003276D01*
X005310Y003271D02*
X005367Y003214D01*
X005350Y003173D01*
X005350Y003066D01*
X005379Y002996D01*
X005369Y003007D01*
X005270Y003047D01*
X005249Y003047D01*
X005249Y003068D01*
X005208Y003167D01*
X005203Y003172D01*
X005208Y003177D01*
X005249Y003276D01*
X005310Y003271D02*
X005269Y003370D01*
X005269Y003477D01*
X005310Y003576D01*
X005385Y003652D01*
X005484Y003693D01*
X005591Y003693D01*
X005690Y003652D01*
X005766Y003576D01*
X005807Y003477D01*
X005807Y003370D01*
X005790Y003329D01*
X005847Y003272D01*
X005868Y003222D01*
X005962Y003222D01*
X006016Y003199D01*
X005982Y003234D01*
X005941Y003333D01*
X005941Y003414D01*
X005900Y003431D01*
X005824Y003507D01*
X005783Y003606D01*
X005783Y003713D01*
X005824Y003811D01*
X005900Y003887D01*
X005999Y003928D01*
X006106Y003928D01*
X006205Y003887D01*
X006258Y003834D01*
X006283Y003844D01*
X006260Y003867D01*
X006219Y003966D01*
X006219Y004073D01*
X006260Y004172D01*
X006336Y004248D01*
X006435Y004289D01*
X006542Y004289D01*
X006641Y004248D01*
X006716Y004172D01*
X006757Y004073D01*
X006757Y004066D01*
X006764Y004066D01*
X006863Y004025D01*
X006878Y004010D01*
X006893Y004025D01*
X006991Y004066D01*
X007098Y004066D01*
X007197Y004025D01*
X007273Y003949D01*
X007314Y003850D01*
X007314Y003743D01*
X007273Y003644D01*
X007197Y003569D01*
X007175Y003559D01*
X007175Y003493D01*
X007134Y003394D01*
X007058Y003318D01*
X006959Y003277D01*
X006852Y003277D01*
X006801Y003298D01*
X006801Y003246D01*
X006760Y003147D01*
X006685Y003072D01*
X006601Y003037D01*
X006561Y002941D01*
X006486Y002866D01*
X006387Y002825D01*
X006280Y002825D01*
X006181Y002866D01*
X006169Y002878D01*
X006137Y002800D01*
X006061Y002724D01*
X005962Y002683D01*
X005904Y002683D01*
X005891Y002653D01*
X005815Y002577D01*
X005716Y002536D01*
X005609Y002536D01*
X005510Y002577D01*
X005449Y002638D01*
X005444Y002626D01*
X005369Y002550D01*
X005270Y002509D01*
X005163Y002509D01*
X005140Y002519D01*
X005093Y002472D01*
X004994Y002431D01*
X004887Y002431D01*
X004788Y002472D01*
X004713Y002547D01*
X004692Y002598D01*
X004655Y002561D01*
X004556Y002520D01*
X004449Y002520D01*
X004365Y002555D01*
X004269Y002516D01*
X004162Y002516D01*
X004064Y002557D01*
X003988Y002632D01*
X003947Y002731D01*
X003947Y002748D01*
X003869Y002716D01*
X003762Y002716D01*
X003663Y002757D01*
X003622Y002798D01*
X003591Y002785D01*
X003484Y002785D01*
X003563Y002642D02*
X003984Y002642D01*
X003991Y002483D02*
X004776Y002483D01*
X005105Y002483D02*
X005811Y002483D01*
X005880Y002642D02*
X006241Y002642D01*
X006137Y002800D02*
X006532Y002800D01*
X006568Y002959D02*
X006774Y002959D01*
X006731Y003117D02*
X006963Y003117D01*
X006801Y003276D02*
X007152Y003276D01*
X007151Y003434D02*
X007283Y003434D01*
X007222Y003593D02*
X007409Y003593D01*
X007314Y003751D02*
X007536Y003751D01*
X007634Y003910D02*
X007289Y003910D01*
X007234Y004055D02*
X007109Y004107D01*
X007013Y004202D01*
X006961Y004327D01*
X006961Y004463D01*
X006964Y004470D01*
X006816Y004618D01*
X006816Y005088D01*
X006764Y005088D01*
X006727Y004999D01*
X006657Y004929D01*
X006565Y004891D01*
X006466Y004891D01*
X006374Y004929D01*
X006304Y004999D01*
X006266Y005091D01*
X006266Y005127D01*
X006230Y005127D01*
X006142Y005164D01*
X006053Y005127D01*
X005954Y005127D01*
X005923Y005140D01*
X005909Y005126D01*
X005817Y005088D01*
X005718Y005088D01*
X005626Y005126D01*
X005612Y005140D01*
X005581Y005127D01*
X005482Y005127D01*
X005423Y005152D01*
X005397Y005126D01*
X005305Y005088D01*
X005206Y005088D01*
X005138Y005116D01*
X005069Y005088D01*
X004970Y005088D01*
X004878Y005126D01*
X004864Y005140D01*
X004833Y005127D01*
X004734Y005127D01*
X004645Y005164D01*
X004557Y005127D01*
X004458Y005127D01*
X004390Y005156D01*
X004321Y005127D01*
X004222Y005127D01*
X004191Y005140D01*
X004176Y005126D01*
X004085Y005088D01*
X003986Y005088D01*
X003894Y005126D01*
X003880Y005140D01*
X003849Y005127D01*
X003749Y005127D01*
X003690Y005152D01*
X003665Y005126D01*
X003573Y005088D01*
X003474Y005088D01*
X003415Y005113D01*
X003389Y005087D01*
X003297Y005049D01*
X003198Y005049D01*
X003107Y005087D01*
X003064Y005129D01*
X003061Y005127D01*
X002962Y005127D01*
X002870Y005165D01*
X002800Y005236D01*
X002762Y005327D01*
X002762Y005426D01*
X002791Y005495D01*
X002116Y005495D01*
X002116Y005336D02*
X002762Y005336D01*
X002791Y005495D02*
X002762Y005563D01*
X002762Y005663D01*
X002800Y005754D01*
X002870Y005824D01*
X002962Y005862D01*
X003061Y005862D01*
X003149Y005826D01*
X003238Y005862D01*
X003337Y005862D01*
X003368Y005850D01*
X003382Y005864D01*
X003474Y005902D01*
X003573Y005902D01*
X003661Y005865D01*
X003749Y005902D01*
X003849Y005902D01*
X003917Y005873D01*
X003986Y005902D01*
X004085Y005902D01*
X004153Y005873D01*
X004222Y005902D01*
X004321Y005902D01*
X004390Y005873D01*
X004458Y005902D01*
X004535Y005902D01*
X004572Y005991D01*
X004591Y006010D01*
X002925Y006010D01*
X002816Y006118D01*
X002647Y006287D01*
X002569Y006255D01*
X002434Y006255D01*
X002309Y006307D01*
X002213Y006402D01*
X002161Y006527D01*
X002161Y006663D01*
X002213Y006788D01*
X002309Y006883D01*
X002434Y006935D01*
X002569Y006935D01*
X002694Y006883D01*
X002790Y006788D01*
X002841Y006663D01*
X002841Y006617D01*
X003078Y006380D01*
X004059Y006380D01*
X004022Y006469D01*
X004022Y006568D01*
X004060Y006660D01*
X004130Y006730D01*
X004222Y006768D01*
X004321Y006768D01*
X004413Y006730D01*
X004483Y006660D01*
X004521Y006568D01*
X004521Y006469D01*
X004484Y006380D01*
X005230Y006380D01*
X005530Y006080D01*
X006878Y006080D01*
X007187Y005772D01*
X007187Y004772D01*
X007226Y004732D01*
X007234Y004735D01*
X007369Y004735D01*
X007494Y004683D01*
X007590Y004588D01*
X007641Y004463D01*
X007641Y004327D01*
X007590Y004202D01*
X007494Y004107D01*
X007369Y004055D01*
X007234Y004055D01*
X007201Y004068D02*
X006757Y004068D01*
X006661Y004227D02*
X007003Y004227D01*
X006961Y004385D02*
X005702Y004385D01*
X005702Y004343D02*
X005702Y004442D01*
X005664Y004534D01*
X005594Y004604D01*
X005502Y004642D01*
X005403Y004642D01*
X005311Y004604D01*
X005241Y004534D01*
X005236Y004521D01*
X005231Y004534D01*
X005161Y004604D01*
X005069Y004642D01*
X004970Y004642D01*
X004878Y004604D01*
X004808Y004534D01*
X004770Y004442D01*
X004770Y004343D01*
X004780Y004319D01*
X004749Y004306D01*
X004654Y004211D01*
X004639Y004174D01*
X004639Y004206D01*
X004601Y004298D01*
X004531Y004368D01*
X004439Y004406D01*
X004340Y004406D01*
X004248Y004368D01*
X004178Y004298D01*
X004140Y004206D01*
X004140Y004107D01*
X004178Y004015D01*
X004248Y003945D01*
X004340Y003907D01*
X004439Y003907D01*
X004531Y003945D01*
X004601Y004015D01*
X004603Y004020D01*
X004603Y003952D01*
X004654Y003828D01*
X004749Y003733D01*
X004874Y003682D01*
X005008Y003682D01*
X005132Y003733D01*
X005227Y003828D01*
X005279Y003952D01*
X005279Y004087D01*
X005227Y004211D01*
X005209Y004229D01*
X005231Y004251D01*
X005236Y004264D01*
X005241Y004251D01*
X005311Y004181D01*
X005403Y004143D01*
X005502Y004143D01*
X005594Y004181D01*
X005664Y004251D01*
X005702Y004343D01*
X005640Y004227D02*
X006315Y004227D01*
X006219Y004068D02*
X005279Y004068D01*
X005266Y004227D02*
X005211Y004227D01*
X005221Y004544D02*
X005251Y004544D01*
X005654Y004544D02*
X006890Y004544D01*
X006816Y004702D02*
X002116Y004702D01*
X002116Y004861D02*
X006816Y004861D01*
X006816Y005019D02*
X006735Y005019D01*
X006296Y005019D02*
X002116Y005019D01*
X002116Y005178D02*
X002858Y005178D01*
X002762Y005653D02*
X002116Y005653D01*
X002116Y005812D02*
X002858Y005812D01*
X002805Y006129D02*
X002116Y006129D01*
X002116Y006287D02*
X002355Y006287D01*
X002195Y006446D02*
X002116Y006446D01*
X002116Y006604D02*
X002161Y006604D01*
X002203Y006763D02*
X002116Y006763D01*
X002116Y006921D02*
X002401Y006921D01*
X002530Y007041D02*
X002605Y006965D01*
X002704Y006924D01*
X002811Y006924D01*
X002910Y006965D01*
X002925Y006980D01*
X002939Y006965D01*
X003038Y006924D01*
X003045Y006924D01*
X003045Y006917D01*
X003086Y006818D01*
X003162Y006742D01*
X003261Y006701D01*
X003368Y006701D01*
X003467Y006742D01*
X003543Y006818D01*
X003584Y006917D01*
X003584Y007024D01*
X003543Y007123D01*
X003467Y007199D01*
X003368Y007239D01*
X003361Y007239D01*
X003361Y007247D01*
X003320Y007346D01*
X003244Y007421D01*
X003324Y007421D01*
X003374Y007442D01*
X003441Y007376D01*
X003481Y007359D01*
X003481Y007277D01*
X003522Y007178D01*
X003598Y007103D01*
X003697Y007062D01*
X003804Y007062D01*
X003903Y007103D01*
X003960Y007160D01*
X003943Y007119D01*
X003943Y007020D01*
X003981Y006929D01*
X004051Y006858D01*
X004143Y006820D01*
X004242Y006820D01*
X004334Y006858D01*
X004404Y006929D01*
X004442Y007020D01*
X004442Y007119D01*
X004404Y007211D01*
X004334Y007281D01*
X004296Y007297D01*
X004318Y007297D01*
X004417Y007338D01*
X004493Y007414D01*
X004534Y007513D01*
X004534Y007620D01*
X004493Y007719D01*
X004435Y007776D01*
X004452Y007817D01*
X004452Y007924D01*
X004423Y007994D01*
X004434Y007983D01*
X004533Y007942D01*
X004554Y007942D01*
X004554Y007922D01*
X004595Y007823D01*
X004600Y007818D01*
X004595Y007813D01*
X004554Y007714D01*
X004495Y007714D01*
X004554Y007714D02*
X004554Y007607D01*
X004595Y007508D01*
X004623Y007480D01*
X004621Y007477D01*
X004583Y007386D01*
X004583Y007286D01*
X004621Y007195D01*
X004691Y007125D01*
X004782Y007087D01*
X004882Y007087D01*
X004973Y007125D01*
X005043Y007195D01*
X005081Y007286D01*
X005081Y007386D01*
X005043Y007477D01*
X005032Y007489D01*
X005051Y007508D01*
X005092Y007607D01*
X005092Y007714D01*
X005051Y007813D01*
X005046Y007818D01*
X005051Y007823D01*
X005092Y007922D01*
X005092Y008028D01*
X005148Y007972D01*
X005198Y007951D01*
X005198Y007858D01*
X005215Y007817D01*
X005158Y007759D01*
X005117Y007660D01*
X005117Y007553D01*
X005158Y007455D01*
X005233Y007379D01*
X005332Y007338D01*
X005439Y007338D01*
X005538Y007379D01*
X005614Y007455D01*
X005655Y007553D01*
X005655Y007660D01*
X005638Y007701D01*
X005695Y007759D01*
X005736Y007858D01*
X005736Y007907D01*
X005759Y007853D01*
X005825Y007786D01*
X005804Y007736D01*
X005804Y007655D01*
X005763Y007638D01*
X005688Y007562D01*
X005647Y007463D01*
X005647Y007356D01*
X005688Y007257D01*
X005763Y007181D01*
X005862Y007141D01*
X005969Y007141D01*
X006068Y007181D01*
X006144Y007257D01*
X006185Y007356D01*
X006185Y007437D01*
X006226Y007454D01*
X006301Y007530D01*
X006330Y007600D01*
X006330Y007585D01*
X006371Y007486D01*
X006386Y007472D01*
X006371Y007457D01*
X006330Y007358D01*
X006330Y007351D01*
X006323Y007351D01*
X006224Y007310D01*
X006149Y007234D01*
X006108Y007135D01*
X006108Y007028D01*
X006149Y006929D01*
X006224Y006854D01*
X006323Y006813D01*
X006430Y006813D01*
X006529Y006854D01*
X006605Y006929D01*
X006646Y007028D01*
X006646Y007035D01*
X006653Y007035D01*
X006752Y007076D01*
X006827Y007152D01*
X006827Y007072D01*
X006848Y007022D01*
X006782Y006956D01*
X006765Y006915D01*
X006684Y006915D01*
X006585Y006874D01*
X006509Y006798D01*
X006468Y006699D01*
X006468Y006650D01*
X006466Y006650D01*
X006374Y006612D01*
X006304Y006542D01*
X006266Y006450D01*
X006266Y006351D01*
X006304Y006259D01*
X006374Y006189D01*
X006466Y006151D01*
X006565Y006151D01*
X006657Y006189D01*
X006727Y006259D01*
X006765Y006351D01*
X006765Y006377D01*
X006791Y006377D01*
X006890Y006418D01*
X006965Y006493D01*
X006982Y006534D01*
X007064Y006534D01*
X007162Y006575D01*
X007238Y006651D01*
X007242Y006660D01*
X007249Y006658D01*
X007356Y006658D01*
X007455Y006699D01*
X007531Y006774D01*
X007572Y006873D01*
X007572Y006980D01*
X007531Y007079D01*
X007455Y007155D01*
X007359Y007194D01*
X007325Y007278D01*
X007249Y007354D01*
X007150Y007395D01*
X007098Y007395D01*
X007119Y007446D01*
X007119Y007553D01*
X007078Y007652D01*
X007002Y007727D01*
X006904Y007768D01*
X006837Y007768D01*
X006828Y007791D01*
X006752Y007867D01*
X006653Y007908D01*
X006546Y007908D01*
X006534Y007903D01*
X006534Y007989D01*
X006493Y008088D01*
X006417Y008164D01*
X006318Y008204D01*
X006211Y008204D01*
X006181Y008192D01*
X006139Y008233D01*
X006040Y008274D01*
X005933Y008274D01*
X005856Y008242D01*
X005856Y008259D01*
X005815Y008358D01*
X005739Y008433D01*
X005640Y008474D01*
X005533Y008474D01*
X005438Y008435D01*
X005354Y008470D01*
X005247Y008470D01*
X005148Y008429D01*
X005111Y008392D01*
X005090Y008443D01*
X005014Y008518D01*
X004916Y008559D01*
X004808Y008559D01*
X004710Y008518D01*
X004662Y008471D01*
X004640Y008481D01*
X004533Y008481D01*
X004434Y008440D01*
X004358Y008364D01*
X004353Y008352D01*
X004292Y008413D01*
X004193Y008454D01*
X004086Y008454D01*
X003987Y008413D01*
X003912Y008337D01*
X003899Y008306D01*
X003841Y008306D01*
X003742Y008266D01*
X003666Y008190D01*
X003634Y008112D01*
X003622Y008124D01*
X003523Y008165D01*
X003416Y008165D01*
X003317Y008124D01*
X003242Y008048D01*
X003202Y007953D01*
X003118Y007918D01*
X003042Y007842D01*
X003001Y007744D01*
X003001Y007692D01*
X002950Y007713D01*
X002843Y007713D01*
X002745Y007672D01*
X002669Y007596D01*
X002628Y007497D01*
X002628Y007431D01*
X002605Y007421D01*
X002530Y007346D01*
X002489Y007247D01*
X002489Y007140D01*
X002530Y007041D01*
X002513Y007080D02*
X002169Y007080D01*
X002265Y007238D02*
X002489Y007238D01*
X002581Y007397D02*
X002393Y007397D01*
X002520Y007555D02*
X002652Y007555D01*
X002649Y007714D02*
X003001Y007714D01*
X003072Y007872D02*
X002839Y007872D01*
X003030Y008031D02*
X003234Y008031D01*
X003270Y008189D02*
X003666Y008189D01*
X003563Y008348D02*
X003923Y008348D01*
X003991Y008506D02*
X004698Y008506D01*
X005026Y008506D02*
X005811Y008506D01*
X005819Y008348D02*
X006241Y008348D01*
X006355Y008189D02*
X006532Y008189D01*
X006517Y008031D02*
X006774Y008031D01*
X006738Y007872D02*
X006963Y007872D01*
X007016Y007714D02*
X007152Y007714D01*
X007118Y007555D02*
X007283Y007555D01*
X007409Y007397D02*
X007099Y007397D01*
X007341Y007238D02*
X007536Y007238D01*
X007530Y007080D02*
X007634Y007080D01*
X007686Y006921D02*
X007572Y006921D01*
X007519Y006763D02*
X007686Y006763D01*
X007686Y006604D02*
X007192Y006604D01*
X006918Y006446D02*
X007686Y006446D01*
X007686Y006287D02*
X006739Y006287D01*
X006988Y005970D02*
X007686Y005970D01*
X007686Y005812D02*
X007146Y005812D01*
X007187Y005653D02*
X007686Y005653D01*
X007686Y005495D02*
X007187Y005495D01*
X007187Y005336D02*
X007686Y005336D01*
X007686Y005178D02*
X007187Y005178D01*
X007187Y005019D02*
X007686Y005019D01*
X007686Y004861D02*
X007187Y004861D01*
X007447Y004702D02*
X007686Y004702D01*
X007686Y004544D02*
X007608Y004544D01*
X007641Y004385D02*
X007686Y004385D01*
X007686Y004227D02*
X007600Y004227D01*
X007686Y004068D02*
X007402Y004068D01*
X006242Y003910D02*
X006150Y003910D01*
X005955Y003910D02*
X005261Y003910D01*
X005150Y003751D02*
X005799Y003751D01*
X005788Y003593D02*
X005749Y003593D01*
X005807Y003434D02*
X005896Y003434D01*
X005843Y003276D02*
X005964Y003276D01*
X005350Y003117D02*
X005229Y003117D01*
X005228Y003434D02*
X005269Y003434D01*
X005327Y003593D02*
X005047Y003593D01*
X004913Y003593D02*
X004588Y003593D01*
X004731Y003751D02*
X004096Y003751D01*
X004156Y003593D02*
X004246Y003593D01*
X004148Y003434D02*
X004118Y003434D01*
X004152Y003276D02*
X003998Y003276D01*
X004052Y003117D02*
X004066Y003117D01*
X004605Y003117D02*
X004731Y003117D01*
X004711Y003276D02*
X004664Y003276D01*
X004686Y003434D02*
X004732Y003434D01*
X004620Y003910D02*
X004446Y003910D01*
X004333Y003910D02*
X003695Y003910D01*
X003677Y003751D02*
X003650Y003751D01*
X003618Y003593D02*
X003456Y003593D01*
X003460Y003434D02*
X003491Y003434D01*
X003065Y003117D02*
X002839Y003117D01*
X002787Y003276D02*
X002649Y003276D01*
X002685Y003434D02*
X002520Y003434D01*
X002393Y003593D02*
X002704Y003593D01*
X002462Y003751D02*
X002265Y003751D01*
X002273Y003910D02*
X002169Y003910D01*
X002116Y004068D02*
X002231Y004068D01*
X002284Y004227D02*
X002116Y004227D01*
X002116Y004385D02*
X002611Y004385D01*
X002885Y004544D02*
X002116Y004544D01*
X002975Y003910D02*
X003047Y003910D01*
X003035Y004068D02*
X003206Y004068D01*
X003308Y004227D02*
X003573Y004227D01*
X003548Y004251D02*
X003618Y004181D01*
X003710Y004143D01*
X003809Y004143D01*
X003901Y004181D01*
X003971Y004251D01*
X004009Y004343D01*
X004009Y004442D01*
X003971Y004534D01*
X003901Y004604D01*
X003809Y004642D01*
X003710Y004642D01*
X003618Y004604D01*
X003548Y004534D01*
X003510Y004442D01*
X003510Y004343D01*
X003548Y004251D01*
X003510Y004385D02*
X003335Y004385D01*
X003246Y004544D02*
X003558Y004544D01*
X003961Y004544D02*
X004818Y004544D01*
X004770Y004385D02*
X004488Y004385D01*
X004291Y004385D02*
X004009Y004385D01*
X003947Y004227D02*
X004149Y004227D01*
X004156Y004068D02*
X003646Y004068D01*
X004630Y004227D02*
X004670Y004227D01*
X004564Y005970D02*
X002116Y005970D01*
X002854Y006604D02*
X004037Y006604D01*
X004032Y006446D02*
X003012Y006446D01*
X003142Y006763D02*
X002800Y006763D01*
X002602Y006921D02*
X003045Y006921D01*
X003371Y007238D02*
X003498Y007238D01*
X003560Y007080D02*
X003653Y007080D01*
X003584Y006921D02*
X003988Y006921D01*
X003943Y007080D02*
X003848Y007080D01*
X003488Y006763D02*
X004210Y006763D01*
X004333Y006763D02*
X005228Y006763D01*
X005241Y006732D02*
X005203Y006823D01*
X005203Y006923D01*
X005241Y007014D01*
X005311Y007084D01*
X005403Y007122D01*
X005502Y007122D01*
X005594Y007084D01*
X005664Y007014D01*
X005702Y006923D01*
X005702Y006823D01*
X005664Y006732D01*
X005594Y006662D01*
X005502Y006624D01*
X005403Y006624D01*
X005311Y006662D01*
X005241Y006732D01*
X005203Y006921D02*
X004397Y006921D01*
X004442Y007080D02*
X005307Y007080D01*
X005062Y007238D02*
X005706Y007238D01*
X005598Y007080D02*
X006108Y007080D01*
X006125Y007238D02*
X006153Y007238D01*
X006185Y007397D02*
X006347Y007397D01*
X006343Y007555D02*
X006312Y007555D01*
X005804Y007714D02*
X005651Y007714D01*
X005655Y007555D02*
X005685Y007555D01*
X005647Y007397D02*
X005556Y007397D01*
X005215Y007397D02*
X005077Y007397D01*
X005070Y007555D02*
X005117Y007555D01*
X005092Y007714D02*
X005139Y007714D01*
X005198Y007872D02*
X005071Y007872D01*
X004574Y007872D02*
X004452Y007872D01*
X004534Y007555D02*
X004575Y007555D01*
X004587Y007397D02*
X004476Y007397D01*
X004377Y007238D02*
X004602Y007238D01*
X004506Y006604D02*
X006367Y006604D01*
X006266Y006446D02*
X004511Y006446D01*
X005323Y006287D02*
X006292Y006287D01*
X006495Y006763D02*
X005677Y006763D01*
X005702Y006921D02*
X006157Y006921D01*
X006597Y006921D02*
X006768Y006921D01*
X006756Y007080D02*
X006827Y007080D01*
X007686Y006129D02*
X005481Y006129D01*
X005736Y007872D02*
X005751Y007872D01*
X003419Y007397D02*
X003269Y007397D01*
D13*
X002601Y006595D02*
X002501Y006595D01*
X002601Y006595D02*
X003001Y006195D01*
X005153Y006195D01*
X005453Y005895D01*
X006801Y005895D01*
X007001Y005695D01*
X007001Y004695D01*
X007301Y004395D01*
X007242Y005059D02*
X007265Y005159D01*
X007601Y005495D01*
X002560Y005871D02*
X002560Y004947D01*
X002201Y005495D02*
X002285Y005595D01*
X002560Y005871D01*
D14*
X002201Y005495D03*
X002501Y006595D03*
X007301Y004395D03*
X007601Y005495D03*
M02*
