G75*
G70*
%OFA0B0*%
%FSLAX24Y24*%
%IPPOS*%
%LPD*%
%AMOC8*
5,1,8,0,0,1.08239X$1,22.5*
%
%ADD10C,0.0316*%
%ADD11C,0.0258*%
%ADD12C,0.0219*%
%ADD13C,0.0400*%
D10*
X004941Y004020D03*
D11*
X003203Y003351D03*
X002953Y003491D03*
X003203Y003685D03*
X003426Y003908D03*
X003887Y003580D03*
X003729Y003308D03*
X003538Y003054D03*
X003816Y002985D03*
X004216Y002785D03*
X004503Y002789D03*
X004335Y003079D03*
X004417Y003383D03*
X004980Y003330D03*
X004980Y003015D03*
X005216Y002778D03*
X004941Y002700D03*
X005663Y002805D03*
X005909Y002953D03*
X005619Y003120D03*
X005538Y003424D03*
X006052Y003659D03*
X006210Y003386D03*
X006333Y003094D03*
X006532Y003300D03*
X006906Y003546D03*
X007045Y003797D03*
X006711Y003797D03*
X006488Y004020D03*
X006737Y006646D03*
X007010Y006803D03*
X007302Y006927D03*
X007096Y007126D03*
X006850Y007499D03*
X006600Y007639D03*
X006600Y007304D03*
X006377Y007082D03*
X005916Y007410D03*
X006073Y007682D03*
X006265Y007935D03*
X005987Y008005D03*
X005587Y008205D03*
X005300Y008200D03*
X005467Y007911D03*
X005386Y007607D03*
X004823Y007660D03*
X004823Y007975D03*
X004586Y008211D03*
X004862Y008290D03*
X004140Y008185D03*
X003894Y008037D03*
X004183Y007870D03*
X004265Y007566D03*
X003750Y007331D03*
X003593Y007604D03*
X003470Y007896D03*
X003270Y007690D03*
X002897Y007444D03*
X002758Y007193D03*
X003092Y007193D03*
X003315Y006970D03*
X003065Y004344D03*
X002793Y004187D03*
X002500Y004063D03*
X002706Y003864D03*
D12*
X003760Y004393D03*
X004390Y004156D03*
X004852Y003722D03*
X005019Y004393D03*
X005453Y004393D03*
X005256Y005337D03*
X005019Y005337D03*
X004783Y005377D03*
X004508Y005377D03*
X004271Y005377D03*
X004035Y005337D03*
X003799Y005377D03*
X003799Y005652D03*
X004035Y005652D03*
X004271Y005652D03*
X004508Y005652D03*
X004783Y005849D03*
X005019Y005771D03*
X005295Y005731D03*
X005531Y005692D03*
X005768Y005652D03*
X006004Y005652D03*
X006004Y005377D03*
X005768Y005337D03*
X005531Y005377D03*
X006279Y005377D03*
X006279Y005652D03*
X006516Y005652D03*
X006791Y005652D03*
X006791Y005337D03*
X006516Y005141D03*
X007242Y005059D03*
X007242Y006082D03*
X006516Y006400D03*
X005453Y006873D03*
X004892Y006742D03*
X004832Y007336D03*
X004193Y007070D03*
X004271Y006519D03*
X003523Y005652D03*
X003287Y005613D03*
X003012Y005613D03*
X003012Y005377D03*
X003248Y005298D03*
X003523Y005337D03*
X002560Y004947D03*
X002560Y005871D03*
X006358Y003605D03*
D13*
X007301Y004395D03*
X007601Y005495D03*
X002501Y006595D03*
X002201Y005495D03*
M02*
