G75*
%MOIN*%
%OFA0B0*%
%FSLAX25Y25*%
%IPPOS*%
%LPD*%
%AMOC8*
5,1,8,0,0,1.08239X$1,22.5*
%
%ADD10C,0.00000*%
%ADD11C,0.00600*%
D10*
X0042929Y0047260D02*
X0064976Y0047260D01*
X0064976Y0307102D01*
X0064976Y0314976D01*
X0064976Y0307102D02*
X0042929Y0307102D01*
X0042929Y0047260D01*
X0093126Y0083687D02*
X0093128Y0083761D01*
X0093134Y0083835D01*
X0093144Y0083908D01*
X0093158Y0083981D01*
X0093175Y0084053D01*
X0093197Y0084123D01*
X0093222Y0084193D01*
X0093251Y0084261D01*
X0093284Y0084327D01*
X0093320Y0084392D01*
X0093360Y0084454D01*
X0093402Y0084515D01*
X0093448Y0084573D01*
X0093497Y0084628D01*
X0093549Y0084681D01*
X0093604Y0084731D01*
X0093661Y0084777D01*
X0093721Y0084821D01*
X0093783Y0084861D01*
X0093847Y0084898D01*
X0093913Y0084932D01*
X0093981Y0084962D01*
X0094050Y0084988D01*
X0094121Y0085011D01*
X0094192Y0085029D01*
X0094265Y0085044D01*
X0094338Y0085055D01*
X0094412Y0085062D01*
X0094486Y0085065D01*
X0094559Y0085064D01*
X0094633Y0085059D01*
X0094707Y0085050D01*
X0094780Y0085037D01*
X0094852Y0085020D01*
X0094923Y0085000D01*
X0094993Y0084975D01*
X0095061Y0084947D01*
X0095128Y0084916D01*
X0095193Y0084880D01*
X0095256Y0084842D01*
X0095317Y0084800D01*
X0095376Y0084754D01*
X0095432Y0084706D01*
X0095485Y0084655D01*
X0095535Y0084601D01*
X0095583Y0084544D01*
X0095627Y0084485D01*
X0095669Y0084423D01*
X0095707Y0084360D01*
X0095741Y0084294D01*
X0095772Y0084227D01*
X0095799Y0084158D01*
X0095822Y0084088D01*
X0095842Y0084017D01*
X0095858Y0083944D01*
X0095870Y0083871D01*
X0095878Y0083798D01*
X0095882Y0083724D01*
X0095882Y0083650D01*
X0095878Y0083576D01*
X0095870Y0083503D01*
X0095858Y0083430D01*
X0095842Y0083357D01*
X0095822Y0083286D01*
X0095799Y0083216D01*
X0095772Y0083147D01*
X0095741Y0083080D01*
X0095707Y0083014D01*
X0095669Y0082951D01*
X0095627Y0082889D01*
X0095583Y0082830D01*
X0095535Y0082773D01*
X0095485Y0082719D01*
X0095432Y0082668D01*
X0095376Y0082620D01*
X0095317Y0082574D01*
X0095256Y0082532D01*
X0095193Y0082494D01*
X0095128Y0082458D01*
X0095061Y0082427D01*
X0094993Y0082399D01*
X0094923Y0082374D01*
X0094852Y0082354D01*
X0094780Y0082337D01*
X0094707Y0082324D01*
X0094633Y0082315D01*
X0094559Y0082310D01*
X0094486Y0082309D01*
X0094412Y0082312D01*
X0094338Y0082319D01*
X0094265Y0082330D01*
X0094192Y0082345D01*
X0094121Y0082363D01*
X0094050Y0082386D01*
X0093981Y0082412D01*
X0093913Y0082442D01*
X0093847Y0082476D01*
X0093783Y0082513D01*
X0093721Y0082553D01*
X0093661Y0082597D01*
X0093604Y0082643D01*
X0093549Y0082693D01*
X0093497Y0082746D01*
X0093448Y0082801D01*
X0093402Y0082859D01*
X0093360Y0082920D01*
X0093320Y0082982D01*
X0093284Y0083047D01*
X0093251Y0083113D01*
X0093222Y0083181D01*
X0093197Y0083251D01*
X0093175Y0083321D01*
X0093158Y0083393D01*
X0093144Y0083466D01*
X0093134Y0083539D01*
X0093128Y0083613D01*
X0093126Y0083687D01*
X0064976Y0114189D02*
X0065369Y0114896D01*
X0065780Y0115594D01*
X0066208Y0116281D01*
X0066652Y0116957D01*
X0067113Y0117623D01*
X0067589Y0118277D01*
X0068082Y0118919D01*
X0068590Y0119549D01*
X0069113Y0120166D01*
X0069652Y0120770D01*
X0070205Y0121361D01*
X0070772Y0121938D01*
X0071353Y0122502D01*
X0071948Y0123051D01*
X0072556Y0123585D01*
X0073176Y0124104D01*
X0073810Y0124608D01*
X0074455Y0125096D01*
X0075112Y0125568D01*
X0075781Y0126024D01*
X0076460Y0126464D01*
X0077150Y0126887D01*
X0077851Y0127293D01*
X0078560Y0127682D01*
X0079280Y0128053D01*
X0080008Y0128406D01*
X0080744Y0128742D01*
X0081488Y0129060D01*
X0082240Y0129359D01*
X0082999Y0129640D01*
X0083765Y0129902D01*
X0084537Y0130145D01*
X0085314Y0130370D01*
X0086097Y0130575D01*
X0086885Y0130761D01*
X0087677Y0130928D01*
X0088472Y0131076D01*
X0089271Y0131204D01*
X0090073Y0131312D01*
X0090878Y0131401D01*
X0091684Y0131470D01*
X0092492Y0131519D01*
X0093301Y0131549D01*
X0094110Y0131559D01*
X0094919Y0131549D01*
X0095728Y0131519D01*
X0096536Y0131470D01*
X0097342Y0131401D01*
X0098147Y0131312D01*
X0098949Y0131204D01*
X0099748Y0131076D01*
X0100543Y0130928D01*
X0101335Y0130761D01*
X0102123Y0130575D01*
X0102906Y0130370D01*
X0103683Y0130145D01*
X0104455Y0129902D01*
X0105221Y0129640D01*
X0105980Y0129359D01*
X0106732Y0129060D01*
X0107476Y0128742D01*
X0108212Y0128406D01*
X0108940Y0128053D01*
X0109660Y0127682D01*
X0110369Y0127293D01*
X0111070Y0126887D01*
X0111760Y0126464D01*
X0112439Y0126024D01*
X0113108Y0125568D01*
X0113765Y0125096D01*
X0114410Y0124608D01*
X0115044Y0124104D01*
X0115664Y0123585D01*
X0116272Y0123051D01*
X0116867Y0122502D01*
X0117448Y0121938D01*
X0118015Y0121361D01*
X0118568Y0120770D01*
X0119107Y0120166D01*
X0119630Y0119549D01*
X0120138Y0118919D01*
X0120631Y0118277D01*
X0121107Y0117623D01*
X0121568Y0116957D01*
X0122012Y0116281D01*
X0122440Y0115594D01*
X0122851Y0114896D01*
X0123244Y0114189D01*
X0123244Y0082693D02*
X0122851Y0081986D01*
X0122440Y0081288D01*
X0122012Y0080601D01*
X0121568Y0079925D01*
X0121107Y0079259D01*
X0120631Y0078605D01*
X0120138Y0077963D01*
X0119630Y0077333D01*
X0119107Y0076716D01*
X0118568Y0076112D01*
X0118015Y0075521D01*
X0117448Y0074944D01*
X0116867Y0074380D01*
X0116272Y0073831D01*
X0115664Y0073297D01*
X0115044Y0072778D01*
X0114410Y0072274D01*
X0113765Y0071786D01*
X0113108Y0071314D01*
X0112439Y0070858D01*
X0111760Y0070418D01*
X0111070Y0069995D01*
X0110369Y0069589D01*
X0109660Y0069200D01*
X0108940Y0068829D01*
X0108212Y0068476D01*
X0107476Y0068140D01*
X0106732Y0067822D01*
X0105980Y0067523D01*
X0105221Y0067242D01*
X0104455Y0066980D01*
X0103683Y0066737D01*
X0102906Y0066512D01*
X0102123Y0066307D01*
X0101335Y0066121D01*
X0100543Y0065954D01*
X0099748Y0065806D01*
X0098949Y0065678D01*
X0098147Y0065570D01*
X0097342Y0065481D01*
X0096536Y0065412D01*
X0095728Y0065363D01*
X0094919Y0065333D01*
X0094110Y0065323D01*
X0093301Y0065333D01*
X0092492Y0065363D01*
X0091684Y0065412D01*
X0090878Y0065481D01*
X0090073Y0065570D01*
X0089271Y0065678D01*
X0088472Y0065806D01*
X0087677Y0065954D01*
X0086885Y0066121D01*
X0086097Y0066307D01*
X0085314Y0066512D01*
X0084537Y0066737D01*
X0083765Y0066980D01*
X0082999Y0067242D01*
X0082240Y0067523D01*
X0081488Y0067822D01*
X0080744Y0068140D01*
X0080008Y0068476D01*
X0079280Y0068829D01*
X0078560Y0069200D01*
X0077851Y0069589D01*
X0077150Y0069995D01*
X0076460Y0070418D01*
X0075781Y0070858D01*
X0075112Y0071314D01*
X0074455Y0071786D01*
X0073810Y0072274D01*
X0073176Y0072778D01*
X0072556Y0073297D01*
X0071948Y0073831D01*
X0071353Y0074380D01*
X0070772Y0074944D01*
X0070205Y0075521D01*
X0069652Y0076112D01*
X0069113Y0076716D01*
X0068590Y0077333D01*
X0068082Y0077963D01*
X0067589Y0078605D01*
X0067113Y0079259D01*
X0066652Y0079925D01*
X0066208Y0080601D01*
X0065780Y0081288D01*
X0065369Y0081986D01*
X0064976Y0082693D01*
X0123244Y0047260D02*
X0123244Y0314976D01*
X0181512Y0314976D02*
X0181512Y0047260D01*
X0151394Y0083687D02*
X0151396Y0083761D01*
X0151402Y0083835D01*
X0151412Y0083908D01*
X0151426Y0083981D01*
X0151443Y0084053D01*
X0151465Y0084123D01*
X0151490Y0084193D01*
X0151519Y0084261D01*
X0151552Y0084327D01*
X0151588Y0084392D01*
X0151628Y0084454D01*
X0151670Y0084515D01*
X0151716Y0084573D01*
X0151765Y0084628D01*
X0151817Y0084681D01*
X0151872Y0084731D01*
X0151929Y0084777D01*
X0151989Y0084821D01*
X0152051Y0084861D01*
X0152115Y0084898D01*
X0152181Y0084932D01*
X0152249Y0084962D01*
X0152318Y0084988D01*
X0152389Y0085011D01*
X0152460Y0085029D01*
X0152533Y0085044D01*
X0152606Y0085055D01*
X0152680Y0085062D01*
X0152754Y0085065D01*
X0152827Y0085064D01*
X0152901Y0085059D01*
X0152975Y0085050D01*
X0153048Y0085037D01*
X0153120Y0085020D01*
X0153191Y0085000D01*
X0153261Y0084975D01*
X0153329Y0084947D01*
X0153396Y0084916D01*
X0153461Y0084880D01*
X0153524Y0084842D01*
X0153585Y0084800D01*
X0153644Y0084754D01*
X0153700Y0084706D01*
X0153753Y0084655D01*
X0153803Y0084601D01*
X0153851Y0084544D01*
X0153895Y0084485D01*
X0153937Y0084423D01*
X0153975Y0084360D01*
X0154009Y0084294D01*
X0154040Y0084227D01*
X0154067Y0084158D01*
X0154090Y0084088D01*
X0154110Y0084017D01*
X0154126Y0083944D01*
X0154138Y0083871D01*
X0154146Y0083798D01*
X0154150Y0083724D01*
X0154150Y0083650D01*
X0154146Y0083576D01*
X0154138Y0083503D01*
X0154126Y0083430D01*
X0154110Y0083357D01*
X0154090Y0083286D01*
X0154067Y0083216D01*
X0154040Y0083147D01*
X0154009Y0083080D01*
X0153975Y0083014D01*
X0153937Y0082951D01*
X0153895Y0082889D01*
X0153851Y0082830D01*
X0153803Y0082773D01*
X0153753Y0082719D01*
X0153700Y0082668D01*
X0153644Y0082620D01*
X0153585Y0082574D01*
X0153524Y0082532D01*
X0153461Y0082494D01*
X0153396Y0082458D01*
X0153329Y0082427D01*
X0153261Y0082399D01*
X0153191Y0082374D01*
X0153120Y0082354D01*
X0153048Y0082337D01*
X0152975Y0082324D01*
X0152901Y0082315D01*
X0152827Y0082310D01*
X0152754Y0082309D01*
X0152680Y0082312D01*
X0152606Y0082319D01*
X0152533Y0082330D01*
X0152460Y0082345D01*
X0152389Y0082363D01*
X0152318Y0082386D01*
X0152249Y0082412D01*
X0152181Y0082442D01*
X0152115Y0082476D01*
X0152051Y0082513D01*
X0151989Y0082553D01*
X0151929Y0082597D01*
X0151872Y0082643D01*
X0151817Y0082693D01*
X0151765Y0082746D01*
X0151716Y0082801D01*
X0151670Y0082859D01*
X0151628Y0082920D01*
X0151588Y0082982D01*
X0151552Y0083047D01*
X0151519Y0083113D01*
X0151490Y0083181D01*
X0151465Y0083251D01*
X0151443Y0083321D01*
X0151426Y0083393D01*
X0151412Y0083466D01*
X0151402Y0083539D01*
X0151396Y0083613D01*
X0151394Y0083687D01*
X0123244Y0114189D02*
X0123637Y0114896D01*
X0124048Y0115594D01*
X0124476Y0116281D01*
X0124920Y0116957D01*
X0125381Y0117623D01*
X0125857Y0118277D01*
X0126350Y0118919D01*
X0126858Y0119549D01*
X0127381Y0120166D01*
X0127920Y0120770D01*
X0128473Y0121361D01*
X0129040Y0121938D01*
X0129621Y0122502D01*
X0130216Y0123051D01*
X0130824Y0123585D01*
X0131444Y0124104D01*
X0132078Y0124608D01*
X0132723Y0125096D01*
X0133380Y0125568D01*
X0134049Y0126024D01*
X0134728Y0126464D01*
X0135418Y0126887D01*
X0136119Y0127293D01*
X0136828Y0127682D01*
X0137548Y0128053D01*
X0138276Y0128406D01*
X0139012Y0128742D01*
X0139756Y0129060D01*
X0140508Y0129359D01*
X0141267Y0129640D01*
X0142033Y0129902D01*
X0142805Y0130145D01*
X0143582Y0130370D01*
X0144365Y0130575D01*
X0145153Y0130761D01*
X0145945Y0130928D01*
X0146740Y0131076D01*
X0147539Y0131204D01*
X0148341Y0131312D01*
X0149146Y0131401D01*
X0149952Y0131470D01*
X0150760Y0131519D01*
X0151569Y0131549D01*
X0152378Y0131559D01*
X0153187Y0131549D01*
X0153996Y0131519D01*
X0154804Y0131470D01*
X0155610Y0131401D01*
X0156415Y0131312D01*
X0157217Y0131204D01*
X0158016Y0131076D01*
X0158811Y0130928D01*
X0159603Y0130761D01*
X0160391Y0130575D01*
X0161174Y0130370D01*
X0161951Y0130145D01*
X0162723Y0129902D01*
X0163489Y0129640D01*
X0164248Y0129359D01*
X0165000Y0129060D01*
X0165744Y0128742D01*
X0166480Y0128406D01*
X0167208Y0128053D01*
X0167928Y0127682D01*
X0168637Y0127293D01*
X0169338Y0126887D01*
X0170028Y0126464D01*
X0170707Y0126024D01*
X0171376Y0125568D01*
X0172033Y0125096D01*
X0172678Y0124608D01*
X0173312Y0124104D01*
X0173932Y0123585D01*
X0174540Y0123051D01*
X0175135Y0122502D01*
X0175716Y0121938D01*
X0176283Y0121361D01*
X0176836Y0120770D01*
X0177375Y0120166D01*
X0177898Y0119549D01*
X0178406Y0118919D01*
X0178899Y0118277D01*
X0179375Y0117623D01*
X0179836Y0116957D01*
X0180280Y0116281D01*
X0180708Y0115594D01*
X0181119Y0114896D01*
X0181512Y0114189D01*
X0181512Y0082693D02*
X0181905Y0081986D01*
X0182316Y0081288D01*
X0182744Y0080601D01*
X0183188Y0079925D01*
X0183649Y0079259D01*
X0184125Y0078605D01*
X0184618Y0077963D01*
X0185126Y0077333D01*
X0185649Y0076716D01*
X0186188Y0076112D01*
X0186741Y0075521D01*
X0187308Y0074944D01*
X0187889Y0074380D01*
X0188484Y0073831D01*
X0189092Y0073297D01*
X0189712Y0072778D01*
X0190346Y0072274D01*
X0190991Y0071786D01*
X0191648Y0071314D01*
X0192317Y0070858D01*
X0192996Y0070418D01*
X0193686Y0069995D01*
X0194387Y0069589D01*
X0195096Y0069200D01*
X0195816Y0068829D01*
X0196544Y0068476D01*
X0197280Y0068140D01*
X0198024Y0067822D01*
X0198776Y0067523D01*
X0199535Y0067242D01*
X0200301Y0066980D01*
X0201073Y0066737D01*
X0201850Y0066512D01*
X0202633Y0066307D01*
X0203421Y0066121D01*
X0204213Y0065954D01*
X0205008Y0065806D01*
X0205807Y0065678D01*
X0206609Y0065570D01*
X0207414Y0065481D01*
X0208220Y0065412D01*
X0209028Y0065363D01*
X0209837Y0065333D01*
X0210646Y0065323D01*
X0211455Y0065333D01*
X0212264Y0065363D01*
X0213072Y0065412D01*
X0213878Y0065481D01*
X0214683Y0065570D01*
X0215485Y0065678D01*
X0216284Y0065806D01*
X0217079Y0065954D01*
X0217871Y0066121D01*
X0218659Y0066307D01*
X0219442Y0066512D01*
X0220219Y0066737D01*
X0220991Y0066980D01*
X0221757Y0067242D01*
X0222516Y0067523D01*
X0223268Y0067822D01*
X0224012Y0068140D01*
X0224748Y0068476D01*
X0225476Y0068829D01*
X0226196Y0069200D01*
X0226905Y0069589D01*
X0227606Y0069995D01*
X0228296Y0070418D01*
X0228975Y0070858D01*
X0229644Y0071314D01*
X0230301Y0071786D01*
X0230946Y0072274D01*
X0231580Y0072778D01*
X0232200Y0073297D01*
X0232808Y0073831D01*
X0233403Y0074380D01*
X0233984Y0074944D01*
X0234551Y0075521D01*
X0235104Y0076112D01*
X0235643Y0076716D01*
X0236166Y0077333D01*
X0236674Y0077963D01*
X0237167Y0078605D01*
X0237643Y0079259D01*
X0238104Y0079925D01*
X0238548Y0080601D01*
X0238976Y0081288D01*
X0239387Y0081986D01*
X0239780Y0082693D01*
X0267929Y0083687D02*
X0267931Y0083761D01*
X0267937Y0083835D01*
X0267947Y0083908D01*
X0267961Y0083981D01*
X0267978Y0084053D01*
X0268000Y0084123D01*
X0268025Y0084193D01*
X0268054Y0084261D01*
X0268087Y0084327D01*
X0268123Y0084392D01*
X0268163Y0084454D01*
X0268205Y0084515D01*
X0268251Y0084573D01*
X0268300Y0084628D01*
X0268352Y0084681D01*
X0268407Y0084731D01*
X0268464Y0084777D01*
X0268524Y0084821D01*
X0268586Y0084861D01*
X0268650Y0084898D01*
X0268716Y0084932D01*
X0268784Y0084962D01*
X0268853Y0084988D01*
X0268924Y0085011D01*
X0268995Y0085029D01*
X0269068Y0085044D01*
X0269141Y0085055D01*
X0269215Y0085062D01*
X0269289Y0085065D01*
X0269362Y0085064D01*
X0269436Y0085059D01*
X0269510Y0085050D01*
X0269583Y0085037D01*
X0269655Y0085020D01*
X0269726Y0085000D01*
X0269796Y0084975D01*
X0269864Y0084947D01*
X0269931Y0084916D01*
X0269996Y0084880D01*
X0270059Y0084842D01*
X0270120Y0084800D01*
X0270179Y0084754D01*
X0270235Y0084706D01*
X0270288Y0084655D01*
X0270338Y0084601D01*
X0270386Y0084544D01*
X0270430Y0084485D01*
X0270472Y0084423D01*
X0270510Y0084360D01*
X0270544Y0084294D01*
X0270575Y0084227D01*
X0270602Y0084158D01*
X0270625Y0084088D01*
X0270645Y0084017D01*
X0270661Y0083944D01*
X0270673Y0083871D01*
X0270681Y0083798D01*
X0270685Y0083724D01*
X0270685Y0083650D01*
X0270681Y0083576D01*
X0270673Y0083503D01*
X0270661Y0083430D01*
X0270645Y0083357D01*
X0270625Y0083286D01*
X0270602Y0083216D01*
X0270575Y0083147D01*
X0270544Y0083080D01*
X0270510Y0083014D01*
X0270472Y0082951D01*
X0270430Y0082889D01*
X0270386Y0082830D01*
X0270338Y0082773D01*
X0270288Y0082719D01*
X0270235Y0082668D01*
X0270179Y0082620D01*
X0270120Y0082574D01*
X0270059Y0082532D01*
X0269996Y0082494D01*
X0269931Y0082458D01*
X0269864Y0082427D01*
X0269796Y0082399D01*
X0269726Y0082374D01*
X0269655Y0082354D01*
X0269583Y0082337D01*
X0269510Y0082324D01*
X0269436Y0082315D01*
X0269362Y0082310D01*
X0269289Y0082309D01*
X0269215Y0082312D01*
X0269141Y0082319D01*
X0269068Y0082330D01*
X0268995Y0082345D01*
X0268924Y0082363D01*
X0268853Y0082386D01*
X0268784Y0082412D01*
X0268716Y0082442D01*
X0268650Y0082476D01*
X0268586Y0082513D01*
X0268524Y0082553D01*
X0268464Y0082597D01*
X0268407Y0082643D01*
X0268352Y0082693D01*
X0268300Y0082746D01*
X0268251Y0082801D01*
X0268205Y0082859D01*
X0268163Y0082920D01*
X0268123Y0082982D01*
X0268087Y0083047D01*
X0268054Y0083113D01*
X0268025Y0083181D01*
X0268000Y0083251D01*
X0267978Y0083321D01*
X0267961Y0083393D01*
X0267947Y0083466D01*
X0267937Y0083539D01*
X0267931Y0083613D01*
X0267929Y0083687D01*
X0239779Y0114189D02*
X0240172Y0114896D01*
X0240583Y0115594D01*
X0241011Y0116281D01*
X0241455Y0116957D01*
X0241916Y0117623D01*
X0242392Y0118277D01*
X0242885Y0118919D01*
X0243393Y0119549D01*
X0243916Y0120166D01*
X0244455Y0120770D01*
X0245008Y0121361D01*
X0245575Y0121938D01*
X0246156Y0122502D01*
X0246751Y0123051D01*
X0247359Y0123585D01*
X0247979Y0124104D01*
X0248613Y0124608D01*
X0249258Y0125096D01*
X0249915Y0125568D01*
X0250584Y0126024D01*
X0251263Y0126464D01*
X0251953Y0126887D01*
X0252654Y0127293D01*
X0253363Y0127682D01*
X0254083Y0128053D01*
X0254811Y0128406D01*
X0255547Y0128742D01*
X0256291Y0129060D01*
X0257043Y0129359D01*
X0257802Y0129640D01*
X0258568Y0129902D01*
X0259340Y0130145D01*
X0260117Y0130370D01*
X0260900Y0130575D01*
X0261688Y0130761D01*
X0262480Y0130928D01*
X0263275Y0131076D01*
X0264074Y0131204D01*
X0264876Y0131312D01*
X0265681Y0131401D01*
X0266487Y0131470D01*
X0267295Y0131519D01*
X0268104Y0131549D01*
X0268913Y0131559D01*
X0269722Y0131549D01*
X0270531Y0131519D01*
X0271339Y0131470D01*
X0272145Y0131401D01*
X0272950Y0131312D01*
X0273752Y0131204D01*
X0274551Y0131076D01*
X0275346Y0130928D01*
X0276138Y0130761D01*
X0276926Y0130575D01*
X0277709Y0130370D01*
X0278486Y0130145D01*
X0279258Y0129902D01*
X0280024Y0129640D01*
X0280783Y0129359D01*
X0281535Y0129060D01*
X0282279Y0128742D01*
X0283015Y0128406D01*
X0283743Y0128053D01*
X0284463Y0127682D01*
X0285172Y0127293D01*
X0285873Y0126887D01*
X0286563Y0126464D01*
X0287242Y0126024D01*
X0287911Y0125568D01*
X0288568Y0125096D01*
X0289213Y0124608D01*
X0289847Y0124104D01*
X0290467Y0123585D01*
X0291075Y0123051D01*
X0291670Y0122502D01*
X0292251Y0121938D01*
X0292818Y0121361D01*
X0293371Y0120770D01*
X0293910Y0120166D01*
X0294433Y0119549D01*
X0294941Y0118919D01*
X0295434Y0118277D01*
X0295910Y0117623D01*
X0296371Y0116957D01*
X0296815Y0116281D01*
X0297243Y0115594D01*
X0297654Y0114896D01*
X0298047Y0114189D01*
X0298047Y0082693D02*
X0297654Y0081986D01*
X0297243Y0081288D01*
X0296815Y0080601D01*
X0296371Y0079925D01*
X0295910Y0079259D01*
X0295434Y0078605D01*
X0294941Y0077963D01*
X0294433Y0077333D01*
X0293910Y0076716D01*
X0293371Y0076112D01*
X0292818Y0075521D01*
X0292251Y0074944D01*
X0291670Y0074380D01*
X0291075Y0073831D01*
X0290467Y0073297D01*
X0289847Y0072778D01*
X0289213Y0072274D01*
X0288568Y0071786D01*
X0287911Y0071314D01*
X0287242Y0070858D01*
X0286563Y0070418D01*
X0285873Y0069995D01*
X0285172Y0069589D01*
X0284463Y0069200D01*
X0283743Y0068829D01*
X0283015Y0068476D01*
X0282279Y0068140D01*
X0281535Y0067822D01*
X0280783Y0067523D01*
X0280024Y0067242D01*
X0279258Y0066980D01*
X0278486Y0066737D01*
X0277709Y0066512D01*
X0276926Y0066307D01*
X0276138Y0066121D01*
X0275346Y0065954D01*
X0274551Y0065806D01*
X0273752Y0065678D01*
X0272950Y0065570D01*
X0272145Y0065481D01*
X0271339Y0065412D01*
X0270531Y0065363D01*
X0269722Y0065333D01*
X0268913Y0065323D01*
X0268104Y0065333D01*
X0267295Y0065363D01*
X0266487Y0065412D01*
X0265681Y0065481D01*
X0264876Y0065570D01*
X0264074Y0065678D01*
X0263275Y0065806D01*
X0262480Y0065954D01*
X0261688Y0066121D01*
X0260900Y0066307D01*
X0260117Y0066512D01*
X0259340Y0066737D01*
X0258568Y0066980D01*
X0257802Y0067242D01*
X0257043Y0067523D01*
X0256291Y0067822D01*
X0255547Y0068140D01*
X0254811Y0068476D01*
X0254083Y0068829D01*
X0253363Y0069200D01*
X0252654Y0069589D01*
X0251953Y0069995D01*
X0251263Y0070418D01*
X0250584Y0070858D01*
X0249915Y0071314D01*
X0249258Y0071786D01*
X0248613Y0072274D01*
X0247979Y0072778D01*
X0247359Y0073297D01*
X0246751Y0073831D01*
X0246156Y0074380D01*
X0245575Y0074944D01*
X0245008Y0075521D01*
X0244455Y0076112D01*
X0243916Y0076716D01*
X0243393Y0077333D01*
X0242885Y0077963D01*
X0242392Y0078605D01*
X0241916Y0079259D01*
X0241455Y0079925D01*
X0241011Y0080601D01*
X0240583Y0081288D01*
X0240172Y0081986D01*
X0239779Y0082693D01*
X0209661Y0083687D02*
X0209663Y0083761D01*
X0209669Y0083835D01*
X0209679Y0083908D01*
X0209693Y0083981D01*
X0209710Y0084053D01*
X0209732Y0084123D01*
X0209757Y0084193D01*
X0209786Y0084261D01*
X0209819Y0084327D01*
X0209855Y0084392D01*
X0209895Y0084454D01*
X0209937Y0084515D01*
X0209983Y0084573D01*
X0210032Y0084628D01*
X0210084Y0084681D01*
X0210139Y0084731D01*
X0210196Y0084777D01*
X0210256Y0084821D01*
X0210318Y0084861D01*
X0210382Y0084898D01*
X0210448Y0084932D01*
X0210516Y0084962D01*
X0210585Y0084988D01*
X0210656Y0085011D01*
X0210727Y0085029D01*
X0210800Y0085044D01*
X0210873Y0085055D01*
X0210947Y0085062D01*
X0211021Y0085065D01*
X0211094Y0085064D01*
X0211168Y0085059D01*
X0211242Y0085050D01*
X0211315Y0085037D01*
X0211387Y0085020D01*
X0211458Y0085000D01*
X0211528Y0084975D01*
X0211596Y0084947D01*
X0211663Y0084916D01*
X0211728Y0084880D01*
X0211791Y0084842D01*
X0211852Y0084800D01*
X0211911Y0084754D01*
X0211967Y0084706D01*
X0212020Y0084655D01*
X0212070Y0084601D01*
X0212118Y0084544D01*
X0212162Y0084485D01*
X0212204Y0084423D01*
X0212242Y0084360D01*
X0212276Y0084294D01*
X0212307Y0084227D01*
X0212334Y0084158D01*
X0212357Y0084088D01*
X0212377Y0084017D01*
X0212393Y0083944D01*
X0212405Y0083871D01*
X0212413Y0083798D01*
X0212417Y0083724D01*
X0212417Y0083650D01*
X0212413Y0083576D01*
X0212405Y0083503D01*
X0212393Y0083430D01*
X0212377Y0083357D01*
X0212357Y0083286D01*
X0212334Y0083216D01*
X0212307Y0083147D01*
X0212276Y0083080D01*
X0212242Y0083014D01*
X0212204Y0082951D01*
X0212162Y0082889D01*
X0212118Y0082830D01*
X0212070Y0082773D01*
X0212020Y0082719D01*
X0211967Y0082668D01*
X0211911Y0082620D01*
X0211852Y0082574D01*
X0211791Y0082532D01*
X0211728Y0082494D01*
X0211663Y0082458D01*
X0211596Y0082427D01*
X0211528Y0082399D01*
X0211458Y0082374D01*
X0211387Y0082354D01*
X0211315Y0082337D01*
X0211242Y0082324D01*
X0211168Y0082315D01*
X0211094Y0082310D01*
X0211021Y0082309D01*
X0210947Y0082312D01*
X0210873Y0082319D01*
X0210800Y0082330D01*
X0210727Y0082345D01*
X0210656Y0082363D01*
X0210585Y0082386D01*
X0210516Y0082412D01*
X0210448Y0082442D01*
X0210382Y0082476D01*
X0210318Y0082513D01*
X0210256Y0082553D01*
X0210196Y0082597D01*
X0210139Y0082643D01*
X0210084Y0082693D01*
X0210032Y0082746D01*
X0209983Y0082801D01*
X0209937Y0082859D01*
X0209895Y0082920D01*
X0209855Y0082982D01*
X0209819Y0083047D01*
X0209786Y0083113D01*
X0209757Y0083181D01*
X0209732Y0083251D01*
X0209710Y0083321D01*
X0209693Y0083393D01*
X0209679Y0083466D01*
X0209669Y0083539D01*
X0209663Y0083613D01*
X0209661Y0083687D01*
X0181512Y0114189D02*
X0181905Y0114896D01*
X0182316Y0115594D01*
X0182744Y0116281D01*
X0183188Y0116957D01*
X0183649Y0117623D01*
X0184125Y0118277D01*
X0184618Y0118919D01*
X0185126Y0119549D01*
X0185649Y0120166D01*
X0186188Y0120770D01*
X0186741Y0121361D01*
X0187308Y0121938D01*
X0187889Y0122502D01*
X0188484Y0123051D01*
X0189092Y0123585D01*
X0189712Y0124104D01*
X0190346Y0124608D01*
X0190991Y0125096D01*
X0191648Y0125568D01*
X0192317Y0126024D01*
X0192996Y0126464D01*
X0193686Y0126887D01*
X0194387Y0127293D01*
X0195096Y0127682D01*
X0195816Y0128053D01*
X0196544Y0128406D01*
X0197280Y0128742D01*
X0198024Y0129060D01*
X0198776Y0129359D01*
X0199535Y0129640D01*
X0200301Y0129902D01*
X0201073Y0130145D01*
X0201850Y0130370D01*
X0202633Y0130575D01*
X0203421Y0130761D01*
X0204213Y0130928D01*
X0205008Y0131076D01*
X0205807Y0131204D01*
X0206609Y0131312D01*
X0207414Y0131401D01*
X0208220Y0131470D01*
X0209028Y0131519D01*
X0209837Y0131549D01*
X0210646Y0131559D01*
X0211455Y0131549D01*
X0212264Y0131519D01*
X0213072Y0131470D01*
X0213878Y0131401D01*
X0214683Y0131312D01*
X0215485Y0131204D01*
X0216284Y0131076D01*
X0217079Y0130928D01*
X0217871Y0130761D01*
X0218659Y0130575D01*
X0219442Y0130370D01*
X0220219Y0130145D01*
X0220991Y0129902D01*
X0221757Y0129640D01*
X0222516Y0129359D01*
X0223268Y0129060D01*
X0224012Y0128742D01*
X0224748Y0128406D01*
X0225476Y0128053D01*
X0226196Y0127682D01*
X0226905Y0127293D01*
X0227606Y0126887D01*
X0228296Y0126464D01*
X0228975Y0126024D01*
X0229644Y0125568D01*
X0230301Y0125096D01*
X0230946Y0124608D01*
X0231580Y0124104D01*
X0232200Y0123585D01*
X0232808Y0123051D01*
X0233403Y0122502D01*
X0233984Y0121938D01*
X0234551Y0121361D01*
X0235104Y0120770D01*
X0235643Y0120166D01*
X0236166Y0119549D01*
X0236674Y0118919D01*
X0237167Y0118277D01*
X0237643Y0117623D01*
X0238104Y0116957D01*
X0238548Y0116281D01*
X0238976Y0115594D01*
X0239387Y0114896D01*
X0239780Y0114189D01*
X0209661Y0162427D02*
X0209663Y0162501D01*
X0209669Y0162575D01*
X0209679Y0162648D01*
X0209693Y0162721D01*
X0209710Y0162793D01*
X0209732Y0162863D01*
X0209757Y0162933D01*
X0209786Y0163001D01*
X0209819Y0163067D01*
X0209855Y0163132D01*
X0209895Y0163194D01*
X0209937Y0163255D01*
X0209983Y0163313D01*
X0210032Y0163368D01*
X0210084Y0163421D01*
X0210139Y0163471D01*
X0210196Y0163517D01*
X0210256Y0163561D01*
X0210318Y0163601D01*
X0210382Y0163638D01*
X0210448Y0163672D01*
X0210516Y0163702D01*
X0210585Y0163728D01*
X0210656Y0163751D01*
X0210727Y0163769D01*
X0210800Y0163784D01*
X0210873Y0163795D01*
X0210947Y0163802D01*
X0211021Y0163805D01*
X0211094Y0163804D01*
X0211168Y0163799D01*
X0211242Y0163790D01*
X0211315Y0163777D01*
X0211387Y0163760D01*
X0211458Y0163740D01*
X0211528Y0163715D01*
X0211596Y0163687D01*
X0211663Y0163656D01*
X0211728Y0163620D01*
X0211791Y0163582D01*
X0211852Y0163540D01*
X0211911Y0163494D01*
X0211967Y0163446D01*
X0212020Y0163395D01*
X0212070Y0163341D01*
X0212118Y0163284D01*
X0212162Y0163225D01*
X0212204Y0163163D01*
X0212242Y0163100D01*
X0212276Y0163034D01*
X0212307Y0162967D01*
X0212334Y0162898D01*
X0212357Y0162828D01*
X0212377Y0162757D01*
X0212393Y0162684D01*
X0212405Y0162611D01*
X0212413Y0162538D01*
X0212417Y0162464D01*
X0212417Y0162390D01*
X0212413Y0162316D01*
X0212405Y0162243D01*
X0212393Y0162170D01*
X0212377Y0162097D01*
X0212357Y0162026D01*
X0212334Y0161956D01*
X0212307Y0161887D01*
X0212276Y0161820D01*
X0212242Y0161754D01*
X0212204Y0161691D01*
X0212162Y0161629D01*
X0212118Y0161570D01*
X0212070Y0161513D01*
X0212020Y0161459D01*
X0211967Y0161408D01*
X0211911Y0161360D01*
X0211852Y0161314D01*
X0211791Y0161272D01*
X0211728Y0161234D01*
X0211663Y0161198D01*
X0211596Y0161167D01*
X0211528Y0161139D01*
X0211458Y0161114D01*
X0211387Y0161094D01*
X0211315Y0161077D01*
X0211242Y0161064D01*
X0211168Y0161055D01*
X0211094Y0161050D01*
X0211021Y0161049D01*
X0210947Y0161052D01*
X0210873Y0161059D01*
X0210800Y0161070D01*
X0210727Y0161085D01*
X0210656Y0161103D01*
X0210585Y0161126D01*
X0210516Y0161152D01*
X0210448Y0161182D01*
X0210382Y0161216D01*
X0210318Y0161253D01*
X0210256Y0161293D01*
X0210196Y0161337D01*
X0210139Y0161383D01*
X0210084Y0161433D01*
X0210032Y0161486D01*
X0209983Y0161541D01*
X0209937Y0161599D01*
X0209895Y0161660D01*
X0209855Y0161722D01*
X0209819Y0161787D01*
X0209786Y0161853D01*
X0209757Y0161921D01*
X0209732Y0161991D01*
X0209710Y0162061D01*
X0209693Y0162133D01*
X0209679Y0162206D01*
X0209669Y0162279D01*
X0209663Y0162353D01*
X0209661Y0162427D01*
X0181512Y0192929D02*
X0181905Y0193636D01*
X0182316Y0194334D01*
X0182744Y0195021D01*
X0183188Y0195697D01*
X0183649Y0196363D01*
X0184125Y0197017D01*
X0184618Y0197659D01*
X0185126Y0198289D01*
X0185649Y0198906D01*
X0186188Y0199510D01*
X0186741Y0200101D01*
X0187308Y0200678D01*
X0187889Y0201242D01*
X0188484Y0201791D01*
X0189092Y0202325D01*
X0189712Y0202844D01*
X0190346Y0203348D01*
X0190991Y0203836D01*
X0191648Y0204308D01*
X0192317Y0204764D01*
X0192996Y0205204D01*
X0193686Y0205627D01*
X0194387Y0206033D01*
X0195096Y0206422D01*
X0195816Y0206793D01*
X0196544Y0207146D01*
X0197280Y0207482D01*
X0198024Y0207800D01*
X0198776Y0208099D01*
X0199535Y0208380D01*
X0200301Y0208642D01*
X0201073Y0208885D01*
X0201850Y0209110D01*
X0202633Y0209315D01*
X0203421Y0209501D01*
X0204213Y0209668D01*
X0205008Y0209816D01*
X0205807Y0209944D01*
X0206609Y0210052D01*
X0207414Y0210141D01*
X0208220Y0210210D01*
X0209028Y0210259D01*
X0209837Y0210289D01*
X0210646Y0210299D01*
X0211455Y0210289D01*
X0212264Y0210259D01*
X0213072Y0210210D01*
X0213878Y0210141D01*
X0214683Y0210052D01*
X0215485Y0209944D01*
X0216284Y0209816D01*
X0217079Y0209668D01*
X0217871Y0209501D01*
X0218659Y0209315D01*
X0219442Y0209110D01*
X0220219Y0208885D01*
X0220991Y0208642D01*
X0221757Y0208380D01*
X0222516Y0208099D01*
X0223268Y0207800D01*
X0224012Y0207482D01*
X0224748Y0207146D01*
X0225476Y0206793D01*
X0226196Y0206422D01*
X0226905Y0206033D01*
X0227606Y0205627D01*
X0228296Y0205204D01*
X0228975Y0204764D01*
X0229644Y0204308D01*
X0230301Y0203836D01*
X0230946Y0203348D01*
X0231580Y0202844D01*
X0232200Y0202325D01*
X0232808Y0201791D01*
X0233403Y0201242D01*
X0233984Y0200678D01*
X0234551Y0200101D01*
X0235104Y0199510D01*
X0235643Y0198906D01*
X0236166Y0198289D01*
X0236674Y0197659D01*
X0237167Y0197017D01*
X0237643Y0196363D01*
X0238104Y0195697D01*
X0238548Y0195021D01*
X0238976Y0194334D01*
X0239387Y0193636D01*
X0239780Y0192929D01*
X0239779Y0161433D02*
X0240172Y0160726D01*
X0240583Y0160028D01*
X0241011Y0159341D01*
X0241455Y0158665D01*
X0241916Y0157999D01*
X0242392Y0157345D01*
X0242885Y0156703D01*
X0243393Y0156073D01*
X0243916Y0155456D01*
X0244455Y0154852D01*
X0245008Y0154261D01*
X0245575Y0153684D01*
X0246156Y0153120D01*
X0246751Y0152571D01*
X0247359Y0152037D01*
X0247979Y0151518D01*
X0248613Y0151014D01*
X0249258Y0150526D01*
X0249915Y0150054D01*
X0250584Y0149598D01*
X0251263Y0149158D01*
X0251953Y0148735D01*
X0252654Y0148329D01*
X0253363Y0147940D01*
X0254083Y0147569D01*
X0254811Y0147216D01*
X0255547Y0146880D01*
X0256291Y0146562D01*
X0257043Y0146263D01*
X0257802Y0145982D01*
X0258568Y0145720D01*
X0259340Y0145477D01*
X0260117Y0145252D01*
X0260900Y0145047D01*
X0261688Y0144861D01*
X0262480Y0144694D01*
X0263275Y0144546D01*
X0264074Y0144418D01*
X0264876Y0144310D01*
X0265681Y0144221D01*
X0266487Y0144152D01*
X0267295Y0144103D01*
X0268104Y0144073D01*
X0268913Y0144063D01*
X0269722Y0144073D01*
X0270531Y0144103D01*
X0271339Y0144152D01*
X0272145Y0144221D01*
X0272950Y0144310D01*
X0273752Y0144418D01*
X0274551Y0144546D01*
X0275346Y0144694D01*
X0276138Y0144861D01*
X0276926Y0145047D01*
X0277709Y0145252D01*
X0278486Y0145477D01*
X0279258Y0145720D01*
X0280024Y0145982D01*
X0280783Y0146263D01*
X0281535Y0146562D01*
X0282279Y0146880D01*
X0283015Y0147216D01*
X0283743Y0147569D01*
X0284463Y0147940D01*
X0285172Y0148329D01*
X0285873Y0148735D01*
X0286563Y0149158D01*
X0287242Y0149598D01*
X0287911Y0150054D01*
X0288568Y0150526D01*
X0289213Y0151014D01*
X0289847Y0151518D01*
X0290467Y0152037D01*
X0291075Y0152571D01*
X0291670Y0153120D01*
X0292251Y0153684D01*
X0292818Y0154261D01*
X0293371Y0154852D01*
X0293910Y0155456D01*
X0294433Y0156073D01*
X0294941Y0156703D01*
X0295434Y0157345D01*
X0295910Y0157999D01*
X0296371Y0158665D01*
X0296815Y0159341D01*
X0297243Y0160028D01*
X0297654Y0160726D01*
X0298047Y0161433D01*
X0267929Y0162427D02*
X0267931Y0162501D01*
X0267937Y0162575D01*
X0267947Y0162648D01*
X0267961Y0162721D01*
X0267978Y0162793D01*
X0268000Y0162863D01*
X0268025Y0162933D01*
X0268054Y0163001D01*
X0268087Y0163067D01*
X0268123Y0163132D01*
X0268163Y0163194D01*
X0268205Y0163255D01*
X0268251Y0163313D01*
X0268300Y0163368D01*
X0268352Y0163421D01*
X0268407Y0163471D01*
X0268464Y0163517D01*
X0268524Y0163561D01*
X0268586Y0163601D01*
X0268650Y0163638D01*
X0268716Y0163672D01*
X0268784Y0163702D01*
X0268853Y0163728D01*
X0268924Y0163751D01*
X0268995Y0163769D01*
X0269068Y0163784D01*
X0269141Y0163795D01*
X0269215Y0163802D01*
X0269289Y0163805D01*
X0269362Y0163804D01*
X0269436Y0163799D01*
X0269510Y0163790D01*
X0269583Y0163777D01*
X0269655Y0163760D01*
X0269726Y0163740D01*
X0269796Y0163715D01*
X0269864Y0163687D01*
X0269931Y0163656D01*
X0269996Y0163620D01*
X0270059Y0163582D01*
X0270120Y0163540D01*
X0270179Y0163494D01*
X0270235Y0163446D01*
X0270288Y0163395D01*
X0270338Y0163341D01*
X0270386Y0163284D01*
X0270430Y0163225D01*
X0270472Y0163163D01*
X0270510Y0163100D01*
X0270544Y0163034D01*
X0270575Y0162967D01*
X0270602Y0162898D01*
X0270625Y0162828D01*
X0270645Y0162757D01*
X0270661Y0162684D01*
X0270673Y0162611D01*
X0270681Y0162538D01*
X0270685Y0162464D01*
X0270685Y0162390D01*
X0270681Y0162316D01*
X0270673Y0162243D01*
X0270661Y0162170D01*
X0270645Y0162097D01*
X0270625Y0162026D01*
X0270602Y0161956D01*
X0270575Y0161887D01*
X0270544Y0161820D01*
X0270510Y0161754D01*
X0270472Y0161691D01*
X0270430Y0161629D01*
X0270386Y0161570D01*
X0270338Y0161513D01*
X0270288Y0161459D01*
X0270235Y0161408D01*
X0270179Y0161360D01*
X0270120Y0161314D01*
X0270059Y0161272D01*
X0269996Y0161234D01*
X0269931Y0161198D01*
X0269864Y0161167D01*
X0269796Y0161139D01*
X0269726Y0161114D01*
X0269655Y0161094D01*
X0269583Y0161077D01*
X0269510Y0161064D01*
X0269436Y0161055D01*
X0269362Y0161050D01*
X0269289Y0161049D01*
X0269215Y0161052D01*
X0269141Y0161059D01*
X0269068Y0161070D01*
X0268995Y0161085D01*
X0268924Y0161103D01*
X0268853Y0161126D01*
X0268784Y0161152D01*
X0268716Y0161182D01*
X0268650Y0161216D01*
X0268586Y0161253D01*
X0268524Y0161293D01*
X0268464Y0161337D01*
X0268407Y0161383D01*
X0268352Y0161433D01*
X0268300Y0161486D01*
X0268251Y0161541D01*
X0268205Y0161599D01*
X0268163Y0161660D01*
X0268123Y0161722D01*
X0268087Y0161787D01*
X0268054Y0161853D01*
X0268025Y0161921D01*
X0268000Y0161991D01*
X0267978Y0162061D01*
X0267961Y0162133D01*
X0267947Y0162206D01*
X0267937Y0162279D01*
X0267931Y0162353D01*
X0267929Y0162427D01*
X0239779Y0192929D02*
X0240172Y0193636D01*
X0240583Y0194334D01*
X0241011Y0195021D01*
X0241455Y0195697D01*
X0241916Y0196363D01*
X0242392Y0197017D01*
X0242885Y0197659D01*
X0243393Y0198289D01*
X0243916Y0198906D01*
X0244455Y0199510D01*
X0245008Y0200101D01*
X0245575Y0200678D01*
X0246156Y0201242D01*
X0246751Y0201791D01*
X0247359Y0202325D01*
X0247979Y0202844D01*
X0248613Y0203348D01*
X0249258Y0203836D01*
X0249915Y0204308D01*
X0250584Y0204764D01*
X0251263Y0205204D01*
X0251953Y0205627D01*
X0252654Y0206033D01*
X0253363Y0206422D01*
X0254083Y0206793D01*
X0254811Y0207146D01*
X0255547Y0207482D01*
X0256291Y0207800D01*
X0257043Y0208099D01*
X0257802Y0208380D01*
X0258568Y0208642D01*
X0259340Y0208885D01*
X0260117Y0209110D01*
X0260900Y0209315D01*
X0261688Y0209501D01*
X0262480Y0209668D01*
X0263275Y0209816D01*
X0264074Y0209944D01*
X0264876Y0210052D01*
X0265681Y0210141D01*
X0266487Y0210210D01*
X0267295Y0210259D01*
X0268104Y0210289D01*
X0268913Y0210299D01*
X0269722Y0210289D01*
X0270531Y0210259D01*
X0271339Y0210210D01*
X0272145Y0210141D01*
X0272950Y0210052D01*
X0273752Y0209944D01*
X0274551Y0209816D01*
X0275346Y0209668D01*
X0276138Y0209501D01*
X0276926Y0209315D01*
X0277709Y0209110D01*
X0278486Y0208885D01*
X0279258Y0208642D01*
X0280024Y0208380D01*
X0280783Y0208099D01*
X0281535Y0207800D01*
X0282279Y0207482D01*
X0283015Y0207146D01*
X0283743Y0206793D01*
X0284463Y0206422D01*
X0285172Y0206033D01*
X0285873Y0205627D01*
X0286563Y0205204D01*
X0287242Y0204764D01*
X0287911Y0204308D01*
X0288568Y0203836D01*
X0289213Y0203348D01*
X0289847Y0202844D01*
X0290467Y0202325D01*
X0291075Y0201791D01*
X0291670Y0201242D01*
X0292251Y0200678D01*
X0292818Y0200101D01*
X0293371Y0199510D01*
X0293910Y0198906D01*
X0294433Y0198289D01*
X0294941Y0197659D01*
X0295434Y0197017D01*
X0295910Y0196363D01*
X0296371Y0195697D01*
X0296815Y0195021D01*
X0297243Y0194334D01*
X0297654Y0193636D01*
X0298047Y0192929D01*
X0267929Y0241167D02*
X0267931Y0241241D01*
X0267937Y0241315D01*
X0267947Y0241388D01*
X0267961Y0241461D01*
X0267978Y0241533D01*
X0268000Y0241603D01*
X0268025Y0241673D01*
X0268054Y0241741D01*
X0268087Y0241807D01*
X0268123Y0241872D01*
X0268163Y0241934D01*
X0268205Y0241995D01*
X0268251Y0242053D01*
X0268300Y0242108D01*
X0268352Y0242161D01*
X0268407Y0242211D01*
X0268464Y0242257D01*
X0268524Y0242301D01*
X0268586Y0242341D01*
X0268650Y0242378D01*
X0268716Y0242412D01*
X0268784Y0242442D01*
X0268853Y0242468D01*
X0268924Y0242491D01*
X0268995Y0242509D01*
X0269068Y0242524D01*
X0269141Y0242535D01*
X0269215Y0242542D01*
X0269289Y0242545D01*
X0269362Y0242544D01*
X0269436Y0242539D01*
X0269510Y0242530D01*
X0269583Y0242517D01*
X0269655Y0242500D01*
X0269726Y0242480D01*
X0269796Y0242455D01*
X0269864Y0242427D01*
X0269931Y0242396D01*
X0269996Y0242360D01*
X0270059Y0242322D01*
X0270120Y0242280D01*
X0270179Y0242234D01*
X0270235Y0242186D01*
X0270288Y0242135D01*
X0270338Y0242081D01*
X0270386Y0242024D01*
X0270430Y0241965D01*
X0270472Y0241903D01*
X0270510Y0241840D01*
X0270544Y0241774D01*
X0270575Y0241707D01*
X0270602Y0241638D01*
X0270625Y0241568D01*
X0270645Y0241497D01*
X0270661Y0241424D01*
X0270673Y0241351D01*
X0270681Y0241278D01*
X0270685Y0241204D01*
X0270685Y0241130D01*
X0270681Y0241056D01*
X0270673Y0240983D01*
X0270661Y0240910D01*
X0270645Y0240837D01*
X0270625Y0240766D01*
X0270602Y0240696D01*
X0270575Y0240627D01*
X0270544Y0240560D01*
X0270510Y0240494D01*
X0270472Y0240431D01*
X0270430Y0240369D01*
X0270386Y0240310D01*
X0270338Y0240253D01*
X0270288Y0240199D01*
X0270235Y0240148D01*
X0270179Y0240100D01*
X0270120Y0240054D01*
X0270059Y0240012D01*
X0269996Y0239974D01*
X0269931Y0239938D01*
X0269864Y0239907D01*
X0269796Y0239879D01*
X0269726Y0239854D01*
X0269655Y0239834D01*
X0269583Y0239817D01*
X0269510Y0239804D01*
X0269436Y0239795D01*
X0269362Y0239790D01*
X0269289Y0239789D01*
X0269215Y0239792D01*
X0269141Y0239799D01*
X0269068Y0239810D01*
X0268995Y0239825D01*
X0268924Y0239843D01*
X0268853Y0239866D01*
X0268784Y0239892D01*
X0268716Y0239922D01*
X0268650Y0239956D01*
X0268586Y0239993D01*
X0268524Y0240033D01*
X0268464Y0240077D01*
X0268407Y0240123D01*
X0268352Y0240173D01*
X0268300Y0240226D01*
X0268251Y0240281D01*
X0268205Y0240339D01*
X0268163Y0240400D01*
X0268123Y0240462D01*
X0268087Y0240527D01*
X0268054Y0240593D01*
X0268025Y0240661D01*
X0268000Y0240731D01*
X0267978Y0240801D01*
X0267961Y0240873D01*
X0267947Y0240946D01*
X0267937Y0241019D01*
X0267931Y0241093D01*
X0267929Y0241167D01*
X0239779Y0271669D02*
X0240172Y0272376D01*
X0240583Y0273074D01*
X0241011Y0273761D01*
X0241455Y0274437D01*
X0241916Y0275103D01*
X0242392Y0275757D01*
X0242885Y0276399D01*
X0243393Y0277029D01*
X0243916Y0277646D01*
X0244455Y0278250D01*
X0245008Y0278841D01*
X0245575Y0279418D01*
X0246156Y0279982D01*
X0246751Y0280531D01*
X0247359Y0281065D01*
X0247979Y0281584D01*
X0248613Y0282088D01*
X0249258Y0282576D01*
X0249915Y0283048D01*
X0250584Y0283504D01*
X0251263Y0283944D01*
X0251953Y0284367D01*
X0252654Y0284773D01*
X0253363Y0285162D01*
X0254083Y0285533D01*
X0254811Y0285886D01*
X0255547Y0286222D01*
X0256291Y0286540D01*
X0257043Y0286839D01*
X0257802Y0287120D01*
X0258568Y0287382D01*
X0259340Y0287625D01*
X0260117Y0287850D01*
X0260900Y0288055D01*
X0261688Y0288241D01*
X0262480Y0288408D01*
X0263275Y0288556D01*
X0264074Y0288684D01*
X0264876Y0288792D01*
X0265681Y0288881D01*
X0266487Y0288950D01*
X0267295Y0288999D01*
X0268104Y0289029D01*
X0268913Y0289039D01*
X0269722Y0289029D01*
X0270531Y0288999D01*
X0271339Y0288950D01*
X0272145Y0288881D01*
X0272950Y0288792D01*
X0273752Y0288684D01*
X0274551Y0288556D01*
X0275346Y0288408D01*
X0276138Y0288241D01*
X0276926Y0288055D01*
X0277709Y0287850D01*
X0278486Y0287625D01*
X0279258Y0287382D01*
X0280024Y0287120D01*
X0280783Y0286839D01*
X0281535Y0286540D01*
X0282279Y0286222D01*
X0283015Y0285886D01*
X0283743Y0285533D01*
X0284463Y0285162D01*
X0285172Y0284773D01*
X0285873Y0284367D01*
X0286563Y0283944D01*
X0287242Y0283504D01*
X0287911Y0283048D01*
X0288568Y0282576D01*
X0289213Y0282088D01*
X0289847Y0281584D01*
X0290467Y0281065D01*
X0291075Y0280531D01*
X0291670Y0279982D01*
X0292251Y0279418D01*
X0292818Y0278841D01*
X0293371Y0278250D01*
X0293910Y0277646D01*
X0294433Y0277029D01*
X0294941Y0276399D01*
X0295434Y0275757D01*
X0295910Y0275103D01*
X0296371Y0274437D01*
X0296815Y0273761D01*
X0297243Y0273074D01*
X0297654Y0272376D01*
X0298047Y0271669D01*
X0298047Y0240173D02*
X0297654Y0239466D01*
X0297243Y0238768D01*
X0296815Y0238081D01*
X0296371Y0237405D01*
X0295910Y0236739D01*
X0295434Y0236085D01*
X0294941Y0235443D01*
X0294433Y0234813D01*
X0293910Y0234196D01*
X0293371Y0233592D01*
X0292818Y0233001D01*
X0292251Y0232424D01*
X0291670Y0231860D01*
X0291075Y0231311D01*
X0290467Y0230777D01*
X0289847Y0230258D01*
X0289213Y0229754D01*
X0288568Y0229266D01*
X0287911Y0228794D01*
X0287242Y0228338D01*
X0286563Y0227898D01*
X0285873Y0227475D01*
X0285172Y0227069D01*
X0284463Y0226680D01*
X0283743Y0226309D01*
X0283015Y0225956D01*
X0282279Y0225620D01*
X0281535Y0225302D01*
X0280783Y0225003D01*
X0280024Y0224722D01*
X0279258Y0224460D01*
X0278486Y0224217D01*
X0277709Y0223992D01*
X0276926Y0223787D01*
X0276138Y0223601D01*
X0275346Y0223434D01*
X0274551Y0223286D01*
X0273752Y0223158D01*
X0272950Y0223050D01*
X0272145Y0222961D01*
X0271339Y0222892D01*
X0270531Y0222843D01*
X0269722Y0222813D01*
X0268913Y0222803D01*
X0268104Y0222813D01*
X0267295Y0222843D01*
X0266487Y0222892D01*
X0265681Y0222961D01*
X0264876Y0223050D01*
X0264074Y0223158D01*
X0263275Y0223286D01*
X0262480Y0223434D01*
X0261688Y0223601D01*
X0260900Y0223787D01*
X0260117Y0223992D01*
X0259340Y0224217D01*
X0258568Y0224460D01*
X0257802Y0224722D01*
X0257043Y0225003D01*
X0256291Y0225302D01*
X0255547Y0225620D01*
X0254811Y0225956D01*
X0254083Y0226309D01*
X0253363Y0226680D01*
X0252654Y0227069D01*
X0251953Y0227475D01*
X0251263Y0227898D01*
X0250584Y0228338D01*
X0249915Y0228794D01*
X0249258Y0229266D01*
X0248613Y0229754D01*
X0247979Y0230258D01*
X0247359Y0230777D01*
X0246751Y0231311D01*
X0246156Y0231860D01*
X0245575Y0232424D01*
X0245008Y0233001D01*
X0244455Y0233592D01*
X0243916Y0234196D01*
X0243393Y0234813D01*
X0242885Y0235443D01*
X0242392Y0236085D01*
X0241916Y0236739D01*
X0241455Y0237405D01*
X0241011Y0238081D01*
X0240583Y0238768D01*
X0240172Y0239466D01*
X0239779Y0240173D01*
X0209661Y0241167D02*
X0209663Y0241241D01*
X0209669Y0241315D01*
X0209679Y0241388D01*
X0209693Y0241461D01*
X0209710Y0241533D01*
X0209732Y0241603D01*
X0209757Y0241673D01*
X0209786Y0241741D01*
X0209819Y0241807D01*
X0209855Y0241872D01*
X0209895Y0241934D01*
X0209937Y0241995D01*
X0209983Y0242053D01*
X0210032Y0242108D01*
X0210084Y0242161D01*
X0210139Y0242211D01*
X0210196Y0242257D01*
X0210256Y0242301D01*
X0210318Y0242341D01*
X0210382Y0242378D01*
X0210448Y0242412D01*
X0210516Y0242442D01*
X0210585Y0242468D01*
X0210656Y0242491D01*
X0210727Y0242509D01*
X0210800Y0242524D01*
X0210873Y0242535D01*
X0210947Y0242542D01*
X0211021Y0242545D01*
X0211094Y0242544D01*
X0211168Y0242539D01*
X0211242Y0242530D01*
X0211315Y0242517D01*
X0211387Y0242500D01*
X0211458Y0242480D01*
X0211528Y0242455D01*
X0211596Y0242427D01*
X0211663Y0242396D01*
X0211728Y0242360D01*
X0211791Y0242322D01*
X0211852Y0242280D01*
X0211911Y0242234D01*
X0211967Y0242186D01*
X0212020Y0242135D01*
X0212070Y0242081D01*
X0212118Y0242024D01*
X0212162Y0241965D01*
X0212204Y0241903D01*
X0212242Y0241840D01*
X0212276Y0241774D01*
X0212307Y0241707D01*
X0212334Y0241638D01*
X0212357Y0241568D01*
X0212377Y0241497D01*
X0212393Y0241424D01*
X0212405Y0241351D01*
X0212413Y0241278D01*
X0212417Y0241204D01*
X0212417Y0241130D01*
X0212413Y0241056D01*
X0212405Y0240983D01*
X0212393Y0240910D01*
X0212377Y0240837D01*
X0212357Y0240766D01*
X0212334Y0240696D01*
X0212307Y0240627D01*
X0212276Y0240560D01*
X0212242Y0240494D01*
X0212204Y0240431D01*
X0212162Y0240369D01*
X0212118Y0240310D01*
X0212070Y0240253D01*
X0212020Y0240199D01*
X0211967Y0240148D01*
X0211911Y0240100D01*
X0211852Y0240054D01*
X0211791Y0240012D01*
X0211728Y0239974D01*
X0211663Y0239938D01*
X0211596Y0239907D01*
X0211528Y0239879D01*
X0211458Y0239854D01*
X0211387Y0239834D01*
X0211315Y0239817D01*
X0211242Y0239804D01*
X0211168Y0239795D01*
X0211094Y0239790D01*
X0211021Y0239789D01*
X0210947Y0239792D01*
X0210873Y0239799D01*
X0210800Y0239810D01*
X0210727Y0239825D01*
X0210656Y0239843D01*
X0210585Y0239866D01*
X0210516Y0239892D01*
X0210448Y0239922D01*
X0210382Y0239956D01*
X0210318Y0239993D01*
X0210256Y0240033D01*
X0210196Y0240077D01*
X0210139Y0240123D01*
X0210084Y0240173D01*
X0210032Y0240226D01*
X0209983Y0240281D01*
X0209937Y0240339D01*
X0209895Y0240400D01*
X0209855Y0240462D01*
X0209819Y0240527D01*
X0209786Y0240593D01*
X0209757Y0240661D01*
X0209732Y0240731D01*
X0209710Y0240801D01*
X0209693Y0240873D01*
X0209679Y0240946D01*
X0209669Y0241019D01*
X0209663Y0241093D01*
X0209661Y0241167D01*
X0181512Y0271669D02*
X0181905Y0272376D01*
X0182316Y0273074D01*
X0182744Y0273761D01*
X0183188Y0274437D01*
X0183649Y0275103D01*
X0184125Y0275757D01*
X0184618Y0276399D01*
X0185126Y0277029D01*
X0185649Y0277646D01*
X0186188Y0278250D01*
X0186741Y0278841D01*
X0187308Y0279418D01*
X0187889Y0279982D01*
X0188484Y0280531D01*
X0189092Y0281065D01*
X0189712Y0281584D01*
X0190346Y0282088D01*
X0190991Y0282576D01*
X0191648Y0283048D01*
X0192317Y0283504D01*
X0192996Y0283944D01*
X0193686Y0284367D01*
X0194387Y0284773D01*
X0195096Y0285162D01*
X0195816Y0285533D01*
X0196544Y0285886D01*
X0197280Y0286222D01*
X0198024Y0286540D01*
X0198776Y0286839D01*
X0199535Y0287120D01*
X0200301Y0287382D01*
X0201073Y0287625D01*
X0201850Y0287850D01*
X0202633Y0288055D01*
X0203421Y0288241D01*
X0204213Y0288408D01*
X0205008Y0288556D01*
X0205807Y0288684D01*
X0206609Y0288792D01*
X0207414Y0288881D01*
X0208220Y0288950D01*
X0209028Y0288999D01*
X0209837Y0289029D01*
X0210646Y0289039D01*
X0211455Y0289029D01*
X0212264Y0288999D01*
X0213072Y0288950D01*
X0213878Y0288881D01*
X0214683Y0288792D01*
X0215485Y0288684D01*
X0216284Y0288556D01*
X0217079Y0288408D01*
X0217871Y0288241D01*
X0218659Y0288055D01*
X0219442Y0287850D01*
X0220219Y0287625D01*
X0220991Y0287382D01*
X0221757Y0287120D01*
X0222516Y0286839D01*
X0223268Y0286540D01*
X0224012Y0286222D01*
X0224748Y0285886D01*
X0225476Y0285533D01*
X0226196Y0285162D01*
X0226905Y0284773D01*
X0227606Y0284367D01*
X0228296Y0283944D01*
X0228975Y0283504D01*
X0229644Y0283048D01*
X0230301Y0282576D01*
X0230946Y0282088D01*
X0231580Y0281584D01*
X0232200Y0281065D01*
X0232808Y0280531D01*
X0233403Y0279982D01*
X0233984Y0279418D01*
X0234551Y0278841D01*
X0235104Y0278250D01*
X0235643Y0277646D01*
X0236166Y0277029D01*
X0236674Y0276399D01*
X0237167Y0275757D01*
X0237643Y0275103D01*
X0238104Y0274437D01*
X0238548Y0273761D01*
X0238976Y0273074D01*
X0239387Y0272376D01*
X0239780Y0271669D01*
X0239780Y0240173D02*
X0239387Y0239466D01*
X0238976Y0238768D01*
X0238548Y0238081D01*
X0238104Y0237405D01*
X0237643Y0236739D01*
X0237167Y0236085D01*
X0236674Y0235443D01*
X0236166Y0234813D01*
X0235643Y0234196D01*
X0235104Y0233592D01*
X0234551Y0233001D01*
X0233984Y0232424D01*
X0233403Y0231860D01*
X0232808Y0231311D01*
X0232200Y0230777D01*
X0231580Y0230258D01*
X0230946Y0229754D01*
X0230301Y0229266D01*
X0229644Y0228794D01*
X0228975Y0228338D01*
X0228296Y0227898D01*
X0227606Y0227475D01*
X0226905Y0227069D01*
X0226196Y0226680D01*
X0225476Y0226309D01*
X0224748Y0225956D01*
X0224012Y0225620D01*
X0223268Y0225302D01*
X0222516Y0225003D01*
X0221757Y0224722D01*
X0220991Y0224460D01*
X0220219Y0224217D01*
X0219442Y0223992D01*
X0218659Y0223787D01*
X0217871Y0223601D01*
X0217079Y0223434D01*
X0216284Y0223286D01*
X0215485Y0223158D01*
X0214683Y0223050D01*
X0213878Y0222961D01*
X0213072Y0222892D01*
X0212264Y0222843D01*
X0211455Y0222813D01*
X0210646Y0222803D01*
X0209837Y0222813D01*
X0209028Y0222843D01*
X0208220Y0222892D01*
X0207414Y0222961D01*
X0206609Y0223050D01*
X0205807Y0223158D01*
X0205008Y0223286D01*
X0204213Y0223434D01*
X0203421Y0223601D01*
X0202633Y0223787D01*
X0201850Y0223992D01*
X0201073Y0224217D01*
X0200301Y0224460D01*
X0199535Y0224722D01*
X0198776Y0225003D01*
X0198024Y0225302D01*
X0197280Y0225620D01*
X0196544Y0225956D01*
X0195816Y0226309D01*
X0195096Y0226680D01*
X0194387Y0227069D01*
X0193686Y0227475D01*
X0192996Y0227898D01*
X0192317Y0228338D01*
X0191648Y0228794D01*
X0190991Y0229266D01*
X0190346Y0229754D01*
X0189712Y0230258D01*
X0189092Y0230777D01*
X0188484Y0231311D01*
X0187889Y0231860D01*
X0187308Y0232424D01*
X0186741Y0233001D01*
X0186188Y0233592D01*
X0185649Y0234196D01*
X0185126Y0234813D01*
X0184618Y0235443D01*
X0184125Y0236085D01*
X0183649Y0236739D01*
X0183188Y0237405D01*
X0182744Y0238081D01*
X0182316Y0238768D01*
X0181905Y0239466D01*
X0181512Y0240173D01*
X0151394Y0241167D02*
X0151396Y0241241D01*
X0151402Y0241315D01*
X0151412Y0241388D01*
X0151426Y0241461D01*
X0151443Y0241533D01*
X0151465Y0241603D01*
X0151490Y0241673D01*
X0151519Y0241741D01*
X0151552Y0241807D01*
X0151588Y0241872D01*
X0151628Y0241934D01*
X0151670Y0241995D01*
X0151716Y0242053D01*
X0151765Y0242108D01*
X0151817Y0242161D01*
X0151872Y0242211D01*
X0151929Y0242257D01*
X0151989Y0242301D01*
X0152051Y0242341D01*
X0152115Y0242378D01*
X0152181Y0242412D01*
X0152249Y0242442D01*
X0152318Y0242468D01*
X0152389Y0242491D01*
X0152460Y0242509D01*
X0152533Y0242524D01*
X0152606Y0242535D01*
X0152680Y0242542D01*
X0152754Y0242545D01*
X0152827Y0242544D01*
X0152901Y0242539D01*
X0152975Y0242530D01*
X0153048Y0242517D01*
X0153120Y0242500D01*
X0153191Y0242480D01*
X0153261Y0242455D01*
X0153329Y0242427D01*
X0153396Y0242396D01*
X0153461Y0242360D01*
X0153524Y0242322D01*
X0153585Y0242280D01*
X0153644Y0242234D01*
X0153700Y0242186D01*
X0153753Y0242135D01*
X0153803Y0242081D01*
X0153851Y0242024D01*
X0153895Y0241965D01*
X0153937Y0241903D01*
X0153975Y0241840D01*
X0154009Y0241774D01*
X0154040Y0241707D01*
X0154067Y0241638D01*
X0154090Y0241568D01*
X0154110Y0241497D01*
X0154126Y0241424D01*
X0154138Y0241351D01*
X0154146Y0241278D01*
X0154150Y0241204D01*
X0154150Y0241130D01*
X0154146Y0241056D01*
X0154138Y0240983D01*
X0154126Y0240910D01*
X0154110Y0240837D01*
X0154090Y0240766D01*
X0154067Y0240696D01*
X0154040Y0240627D01*
X0154009Y0240560D01*
X0153975Y0240494D01*
X0153937Y0240431D01*
X0153895Y0240369D01*
X0153851Y0240310D01*
X0153803Y0240253D01*
X0153753Y0240199D01*
X0153700Y0240148D01*
X0153644Y0240100D01*
X0153585Y0240054D01*
X0153524Y0240012D01*
X0153461Y0239974D01*
X0153396Y0239938D01*
X0153329Y0239907D01*
X0153261Y0239879D01*
X0153191Y0239854D01*
X0153120Y0239834D01*
X0153048Y0239817D01*
X0152975Y0239804D01*
X0152901Y0239795D01*
X0152827Y0239790D01*
X0152754Y0239789D01*
X0152680Y0239792D01*
X0152606Y0239799D01*
X0152533Y0239810D01*
X0152460Y0239825D01*
X0152389Y0239843D01*
X0152318Y0239866D01*
X0152249Y0239892D01*
X0152181Y0239922D01*
X0152115Y0239956D01*
X0152051Y0239993D01*
X0151989Y0240033D01*
X0151929Y0240077D01*
X0151872Y0240123D01*
X0151817Y0240173D01*
X0151765Y0240226D01*
X0151716Y0240281D01*
X0151670Y0240339D01*
X0151628Y0240400D01*
X0151588Y0240462D01*
X0151552Y0240527D01*
X0151519Y0240593D01*
X0151490Y0240661D01*
X0151465Y0240731D01*
X0151443Y0240801D01*
X0151426Y0240873D01*
X0151412Y0240946D01*
X0151402Y0241019D01*
X0151396Y0241093D01*
X0151394Y0241167D01*
X0123244Y0271669D02*
X0123637Y0272376D01*
X0124048Y0273074D01*
X0124476Y0273761D01*
X0124920Y0274437D01*
X0125381Y0275103D01*
X0125857Y0275757D01*
X0126350Y0276399D01*
X0126858Y0277029D01*
X0127381Y0277646D01*
X0127920Y0278250D01*
X0128473Y0278841D01*
X0129040Y0279418D01*
X0129621Y0279982D01*
X0130216Y0280531D01*
X0130824Y0281065D01*
X0131444Y0281584D01*
X0132078Y0282088D01*
X0132723Y0282576D01*
X0133380Y0283048D01*
X0134049Y0283504D01*
X0134728Y0283944D01*
X0135418Y0284367D01*
X0136119Y0284773D01*
X0136828Y0285162D01*
X0137548Y0285533D01*
X0138276Y0285886D01*
X0139012Y0286222D01*
X0139756Y0286540D01*
X0140508Y0286839D01*
X0141267Y0287120D01*
X0142033Y0287382D01*
X0142805Y0287625D01*
X0143582Y0287850D01*
X0144365Y0288055D01*
X0145153Y0288241D01*
X0145945Y0288408D01*
X0146740Y0288556D01*
X0147539Y0288684D01*
X0148341Y0288792D01*
X0149146Y0288881D01*
X0149952Y0288950D01*
X0150760Y0288999D01*
X0151569Y0289029D01*
X0152378Y0289039D01*
X0153187Y0289029D01*
X0153996Y0288999D01*
X0154804Y0288950D01*
X0155610Y0288881D01*
X0156415Y0288792D01*
X0157217Y0288684D01*
X0158016Y0288556D01*
X0158811Y0288408D01*
X0159603Y0288241D01*
X0160391Y0288055D01*
X0161174Y0287850D01*
X0161951Y0287625D01*
X0162723Y0287382D01*
X0163489Y0287120D01*
X0164248Y0286839D01*
X0165000Y0286540D01*
X0165744Y0286222D01*
X0166480Y0285886D01*
X0167208Y0285533D01*
X0167928Y0285162D01*
X0168637Y0284773D01*
X0169338Y0284367D01*
X0170028Y0283944D01*
X0170707Y0283504D01*
X0171376Y0283048D01*
X0172033Y0282576D01*
X0172678Y0282088D01*
X0173312Y0281584D01*
X0173932Y0281065D01*
X0174540Y0280531D01*
X0175135Y0279982D01*
X0175716Y0279418D01*
X0176283Y0278841D01*
X0176836Y0278250D01*
X0177375Y0277646D01*
X0177898Y0277029D01*
X0178406Y0276399D01*
X0178899Y0275757D01*
X0179375Y0275103D01*
X0179836Y0274437D01*
X0180280Y0273761D01*
X0180708Y0273074D01*
X0181119Y0272376D01*
X0181512Y0271669D01*
X0181512Y0240173D02*
X0181119Y0239466D01*
X0180708Y0238768D01*
X0180280Y0238081D01*
X0179836Y0237405D01*
X0179375Y0236739D01*
X0178899Y0236085D01*
X0178406Y0235443D01*
X0177898Y0234813D01*
X0177375Y0234196D01*
X0176836Y0233592D01*
X0176283Y0233001D01*
X0175716Y0232424D01*
X0175135Y0231860D01*
X0174540Y0231311D01*
X0173932Y0230777D01*
X0173312Y0230258D01*
X0172678Y0229754D01*
X0172033Y0229266D01*
X0171376Y0228794D01*
X0170707Y0228338D01*
X0170028Y0227898D01*
X0169338Y0227475D01*
X0168637Y0227069D01*
X0167928Y0226680D01*
X0167208Y0226309D01*
X0166480Y0225956D01*
X0165744Y0225620D01*
X0165000Y0225302D01*
X0164248Y0225003D01*
X0163489Y0224722D01*
X0162723Y0224460D01*
X0161951Y0224217D01*
X0161174Y0223992D01*
X0160391Y0223787D01*
X0159603Y0223601D01*
X0158811Y0223434D01*
X0158016Y0223286D01*
X0157217Y0223158D01*
X0156415Y0223050D01*
X0155610Y0222961D01*
X0154804Y0222892D01*
X0153996Y0222843D01*
X0153187Y0222813D01*
X0152378Y0222803D01*
X0151569Y0222813D01*
X0150760Y0222843D01*
X0149952Y0222892D01*
X0149146Y0222961D01*
X0148341Y0223050D01*
X0147539Y0223158D01*
X0146740Y0223286D01*
X0145945Y0223434D01*
X0145153Y0223601D01*
X0144365Y0223787D01*
X0143582Y0223992D01*
X0142805Y0224217D01*
X0142033Y0224460D01*
X0141267Y0224722D01*
X0140508Y0225003D01*
X0139756Y0225302D01*
X0139012Y0225620D01*
X0138276Y0225956D01*
X0137548Y0226309D01*
X0136828Y0226680D01*
X0136119Y0227069D01*
X0135418Y0227475D01*
X0134728Y0227898D01*
X0134049Y0228338D01*
X0133380Y0228794D01*
X0132723Y0229266D01*
X0132078Y0229754D01*
X0131444Y0230258D01*
X0130824Y0230777D01*
X0130216Y0231311D01*
X0129621Y0231860D01*
X0129040Y0232424D01*
X0128473Y0233001D01*
X0127920Y0233592D01*
X0127381Y0234196D01*
X0126858Y0234813D01*
X0126350Y0235443D01*
X0125857Y0236085D01*
X0125381Y0236739D01*
X0124920Y0237405D01*
X0124476Y0238081D01*
X0124048Y0238768D01*
X0123637Y0239466D01*
X0123244Y0240173D01*
X0093126Y0241167D02*
X0093128Y0241241D01*
X0093134Y0241315D01*
X0093144Y0241388D01*
X0093158Y0241461D01*
X0093175Y0241533D01*
X0093197Y0241603D01*
X0093222Y0241673D01*
X0093251Y0241741D01*
X0093284Y0241807D01*
X0093320Y0241872D01*
X0093360Y0241934D01*
X0093402Y0241995D01*
X0093448Y0242053D01*
X0093497Y0242108D01*
X0093549Y0242161D01*
X0093604Y0242211D01*
X0093661Y0242257D01*
X0093721Y0242301D01*
X0093783Y0242341D01*
X0093847Y0242378D01*
X0093913Y0242412D01*
X0093981Y0242442D01*
X0094050Y0242468D01*
X0094121Y0242491D01*
X0094192Y0242509D01*
X0094265Y0242524D01*
X0094338Y0242535D01*
X0094412Y0242542D01*
X0094486Y0242545D01*
X0094559Y0242544D01*
X0094633Y0242539D01*
X0094707Y0242530D01*
X0094780Y0242517D01*
X0094852Y0242500D01*
X0094923Y0242480D01*
X0094993Y0242455D01*
X0095061Y0242427D01*
X0095128Y0242396D01*
X0095193Y0242360D01*
X0095256Y0242322D01*
X0095317Y0242280D01*
X0095376Y0242234D01*
X0095432Y0242186D01*
X0095485Y0242135D01*
X0095535Y0242081D01*
X0095583Y0242024D01*
X0095627Y0241965D01*
X0095669Y0241903D01*
X0095707Y0241840D01*
X0095741Y0241774D01*
X0095772Y0241707D01*
X0095799Y0241638D01*
X0095822Y0241568D01*
X0095842Y0241497D01*
X0095858Y0241424D01*
X0095870Y0241351D01*
X0095878Y0241278D01*
X0095882Y0241204D01*
X0095882Y0241130D01*
X0095878Y0241056D01*
X0095870Y0240983D01*
X0095858Y0240910D01*
X0095842Y0240837D01*
X0095822Y0240766D01*
X0095799Y0240696D01*
X0095772Y0240627D01*
X0095741Y0240560D01*
X0095707Y0240494D01*
X0095669Y0240431D01*
X0095627Y0240369D01*
X0095583Y0240310D01*
X0095535Y0240253D01*
X0095485Y0240199D01*
X0095432Y0240148D01*
X0095376Y0240100D01*
X0095317Y0240054D01*
X0095256Y0240012D01*
X0095193Y0239974D01*
X0095128Y0239938D01*
X0095061Y0239907D01*
X0094993Y0239879D01*
X0094923Y0239854D01*
X0094852Y0239834D01*
X0094780Y0239817D01*
X0094707Y0239804D01*
X0094633Y0239795D01*
X0094559Y0239790D01*
X0094486Y0239789D01*
X0094412Y0239792D01*
X0094338Y0239799D01*
X0094265Y0239810D01*
X0094192Y0239825D01*
X0094121Y0239843D01*
X0094050Y0239866D01*
X0093981Y0239892D01*
X0093913Y0239922D01*
X0093847Y0239956D01*
X0093783Y0239993D01*
X0093721Y0240033D01*
X0093661Y0240077D01*
X0093604Y0240123D01*
X0093549Y0240173D01*
X0093497Y0240226D01*
X0093448Y0240281D01*
X0093402Y0240339D01*
X0093360Y0240400D01*
X0093320Y0240462D01*
X0093284Y0240527D01*
X0093251Y0240593D01*
X0093222Y0240661D01*
X0093197Y0240731D01*
X0093175Y0240801D01*
X0093158Y0240873D01*
X0093144Y0240946D01*
X0093134Y0241019D01*
X0093128Y0241093D01*
X0093126Y0241167D01*
X0064976Y0271669D02*
X0065369Y0272376D01*
X0065780Y0273074D01*
X0066208Y0273761D01*
X0066652Y0274437D01*
X0067113Y0275103D01*
X0067589Y0275757D01*
X0068082Y0276399D01*
X0068590Y0277029D01*
X0069113Y0277646D01*
X0069652Y0278250D01*
X0070205Y0278841D01*
X0070772Y0279418D01*
X0071353Y0279982D01*
X0071948Y0280531D01*
X0072556Y0281065D01*
X0073176Y0281584D01*
X0073810Y0282088D01*
X0074455Y0282576D01*
X0075112Y0283048D01*
X0075781Y0283504D01*
X0076460Y0283944D01*
X0077150Y0284367D01*
X0077851Y0284773D01*
X0078560Y0285162D01*
X0079280Y0285533D01*
X0080008Y0285886D01*
X0080744Y0286222D01*
X0081488Y0286540D01*
X0082240Y0286839D01*
X0082999Y0287120D01*
X0083765Y0287382D01*
X0084537Y0287625D01*
X0085314Y0287850D01*
X0086097Y0288055D01*
X0086885Y0288241D01*
X0087677Y0288408D01*
X0088472Y0288556D01*
X0089271Y0288684D01*
X0090073Y0288792D01*
X0090878Y0288881D01*
X0091684Y0288950D01*
X0092492Y0288999D01*
X0093301Y0289029D01*
X0094110Y0289039D01*
X0094919Y0289029D01*
X0095728Y0288999D01*
X0096536Y0288950D01*
X0097342Y0288881D01*
X0098147Y0288792D01*
X0098949Y0288684D01*
X0099748Y0288556D01*
X0100543Y0288408D01*
X0101335Y0288241D01*
X0102123Y0288055D01*
X0102906Y0287850D01*
X0103683Y0287625D01*
X0104455Y0287382D01*
X0105221Y0287120D01*
X0105980Y0286839D01*
X0106732Y0286540D01*
X0107476Y0286222D01*
X0108212Y0285886D01*
X0108940Y0285533D01*
X0109660Y0285162D01*
X0110369Y0284773D01*
X0111070Y0284367D01*
X0111760Y0283944D01*
X0112439Y0283504D01*
X0113108Y0283048D01*
X0113765Y0282576D01*
X0114410Y0282088D01*
X0115044Y0281584D01*
X0115664Y0281065D01*
X0116272Y0280531D01*
X0116867Y0279982D01*
X0117448Y0279418D01*
X0118015Y0278841D01*
X0118568Y0278250D01*
X0119107Y0277646D01*
X0119630Y0277029D01*
X0120138Y0276399D01*
X0120631Y0275757D01*
X0121107Y0275103D01*
X0121568Y0274437D01*
X0122012Y0273761D01*
X0122440Y0273074D01*
X0122851Y0272376D01*
X0123244Y0271669D01*
X0123244Y0240173D02*
X0122851Y0239466D01*
X0122440Y0238768D01*
X0122012Y0238081D01*
X0121568Y0237405D01*
X0121107Y0236739D01*
X0120631Y0236085D01*
X0120138Y0235443D01*
X0119630Y0234813D01*
X0119107Y0234196D01*
X0118568Y0233592D01*
X0118015Y0233001D01*
X0117448Y0232424D01*
X0116867Y0231860D01*
X0116272Y0231311D01*
X0115664Y0230777D01*
X0115044Y0230258D01*
X0114410Y0229754D01*
X0113765Y0229266D01*
X0113108Y0228794D01*
X0112439Y0228338D01*
X0111760Y0227898D01*
X0111070Y0227475D01*
X0110369Y0227069D01*
X0109660Y0226680D01*
X0108940Y0226309D01*
X0108212Y0225956D01*
X0107476Y0225620D01*
X0106732Y0225302D01*
X0105980Y0225003D01*
X0105221Y0224722D01*
X0104455Y0224460D01*
X0103683Y0224217D01*
X0102906Y0223992D01*
X0102123Y0223787D01*
X0101335Y0223601D01*
X0100543Y0223434D01*
X0099748Y0223286D01*
X0098949Y0223158D01*
X0098147Y0223050D01*
X0097342Y0222961D01*
X0096536Y0222892D01*
X0095728Y0222843D01*
X0094919Y0222813D01*
X0094110Y0222803D01*
X0093301Y0222813D01*
X0092492Y0222843D01*
X0091684Y0222892D01*
X0090878Y0222961D01*
X0090073Y0223050D01*
X0089271Y0223158D01*
X0088472Y0223286D01*
X0087677Y0223434D01*
X0086885Y0223601D01*
X0086097Y0223787D01*
X0085314Y0223992D01*
X0084537Y0224217D01*
X0083765Y0224460D01*
X0082999Y0224722D01*
X0082240Y0225003D01*
X0081488Y0225302D01*
X0080744Y0225620D01*
X0080008Y0225956D01*
X0079280Y0226309D01*
X0078560Y0226680D01*
X0077851Y0227069D01*
X0077150Y0227475D01*
X0076460Y0227898D01*
X0075781Y0228338D01*
X0075112Y0228794D01*
X0074455Y0229266D01*
X0073810Y0229754D01*
X0073176Y0230258D01*
X0072556Y0230777D01*
X0071948Y0231311D01*
X0071353Y0231860D01*
X0070772Y0232424D01*
X0070205Y0233001D01*
X0069652Y0233592D01*
X0069113Y0234196D01*
X0068590Y0234813D01*
X0068082Y0235443D01*
X0067589Y0236085D01*
X0067113Y0236739D01*
X0066652Y0237405D01*
X0066208Y0238081D01*
X0065780Y0238768D01*
X0065369Y0239466D01*
X0064976Y0240173D01*
X0064976Y0161433D02*
X0065369Y0160726D01*
X0065780Y0160028D01*
X0066208Y0159341D01*
X0066652Y0158665D01*
X0067113Y0157999D01*
X0067589Y0157345D01*
X0068082Y0156703D01*
X0068590Y0156073D01*
X0069113Y0155456D01*
X0069652Y0154852D01*
X0070205Y0154261D01*
X0070772Y0153684D01*
X0071353Y0153120D01*
X0071948Y0152571D01*
X0072556Y0152037D01*
X0073176Y0151518D01*
X0073810Y0151014D01*
X0074455Y0150526D01*
X0075112Y0150054D01*
X0075781Y0149598D01*
X0076460Y0149158D01*
X0077150Y0148735D01*
X0077851Y0148329D01*
X0078560Y0147940D01*
X0079280Y0147569D01*
X0080008Y0147216D01*
X0080744Y0146880D01*
X0081488Y0146562D01*
X0082240Y0146263D01*
X0082999Y0145982D01*
X0083765Y0145720D01*
X0084537Y0145477D01*
X0085314Y0145252D01*
X0086097Y0145047D01*
X0086885Y0144861D01*
X0087677Y0144694D01*
X0088472Y0144546D01*
X0089271Y0144418D01*
X0090073Y0144310D01*
X0090878Y0144221D01*
X0091684Y0144152D01*
X0092492Y0144103D01*
X0093301Y0144073D01*
X0094110Y0144063D01*
X0094919Y0144073D01*
X0095728Y0144103D01*
X0096536Y0144152D01*
X0097342Y0144221D01*
X0098147Y0144310D01*
X0098949Y0144418D01*
X0099748Y0144546D01*
X0100543Y0144694D01*
X0101335Y0144861D01*
X0102123Y0145047D01*
X0102906Y0145252D01*
X0103683Y0145477D01*
X0104455Y0145720D01*
X0105221Y0145982D01*
X0105980Y0146263D01*
X0106732Y0146562D01*
X0107476Y0146880D01*
X0108212Y0147216D01*
X0108940Y0147569D01*
X0109660Y0147940D01*
X0110369Y0148329D01*
X0111070Y0148735D01*
X0111760Y0149158D01*
X0112439Y0149598D01*
X0113108Y0150054D01*
X0113765Y0150526D01*
X0114410Y0151014D01*
X0115044Y0151518D01*
X0115664Y0152037D01*
X0116272Y0152571D01*
X0116867Y0153120D01*
X0117448Y0153684D01*
X0118015Y0154261D01*
X0118568Y0154852D01*
X0119107Y0155456D01*
X0119630Y0156073D01*
X0120138Y0156703D01*
X0120631Y0157345D01*
X0121107Y0157999D01*
X0121568Y0158665D01*
X0122012Y0159341D01*
X0122440Y0160028D01*
X0122851Y0160726D01*
X0123244Y0161433D01*
X0093126Y0162427D02*
X0093128Y0162501D01*
X0093134Y0162575D01*
X0093144Y0162648D01*
X0093158Y0162721D01*
X0093175Y0162793D01*
X0093197Y0162863D01*
X0093222Y0162933D01*
X0093251Y0163001D01*
X0093284Y0163067D01*
X0093320Y0163132D01*
X0093360Y0163194D01*
X0093402Y0163255D01*
X0093448Y0163313D01*
X0093497Y0163368D01*
X0093549Y0163421D01*
X0093604Y0163471D01*
X0093661Y0163517D01*
X0093721Y0163561D01*
X0093783Y0163601D01*
X0093847Y0163638D01*
X0093913Y0163672D01*
X0093981Y0163702D01*
X0094050Y0163728D01*
X0094121Y0163751D01*
X0094192Y0163769D01*
X0094265Y0163784D01*
X0094338Y0163795D01*
X0094412Y0163802D01*
X0094486Y0163805D01*
X0094559Y0163804D01*
X0094633Y0163799D01*
X0094707Y0163790D01*
X0094780Y0163777D01*
X0094852Y0163760D01*
X0094923Y0163740D01*
X0094993Y0163715D01*
X0095061Y0163687D01*
X0095128Y0163656D01*
X0095193Y0163620D01*
X0095256Y0163582D01*
X0095317Y0163540D01*
X0095376Y0163494D01*
X0095432Y0163446D01*
X0095485Y0163395D01*
X0095535Y0163341D01*
X0095583Y0163284D01*
X0095627Y0163225D01*
X0095669Y0163163D01*
X0095707Y0163100D01*
X0095741Y0163034D01*
X0095772Y0162967D01*
X0095799Y0162898D01*
X0095822Y0162828D01*
X0095842Y0162757D01*
X0095858Y0162684D01*
X0095870Y0162611D01*
X0095878Y0162538D01*
X0095882Y0162464D01*
X0095882Y0162390D01*
X0095878Y0162316D01*
X0095870Y0162243D01*
X0095858Y0162170D01*
X0095842Y0162097D01*
X0095822Y0162026D01*
X0095799Y0161956D01*
X0095772Y0161887D01*
X0095741Y0161820D01*
X0095707Y0161754D01*
X0095669Y0161691D01*
X0095627Y0161629D01*
X0095583Y0161570D01*
X0095535Y0161513D01*
X0095485Y0161459D01*
X0095432Y0161408D01*
X0095376Y0161360D01*
X0095317Y0161314D01*
X0095256Y0161272D01*
X0095193Y0161234D01*
X0095128Y0161198D01*
X0095061Y0161167D01*
X0094993Y0161139D01*
X0094923Y0161114D01*
X0094852Y0161094D01*
X0094780Y0161077D01*
X0094707Y0161064D01*
X0094633Y0161055D01*
X0094559Y0161050D01*
X0094486Y0161049D01*
X0094412Y0161052D01*
X0094338Y0161059D01*
X0094265Y0161070D01*
X0094192Y0161085D01*
X0094121Y0161103D01*
X0094050Y0161126D01*
X0093981Y0161152D01*
X0093913Y0161182D01*
X0093847Y0161216D01*
X0093783Y0161253D01*
X0093721Y0161293D01*
X0093661Y0161337D01*
X0093604Y0161383D01*
X0093549Y0161433D01*
X0093497Y0161486D01*
X0093448Y0161541D01*
X0093402Y0161599D01*
X0093360Y0161660D01*
X0093320Y0161722D01*
X0093284Y0161787D01*
X0093251Y0161853D01*
X0093222Y0161921D01*
X0093197Y0161991D01*
X0093175Y0162061D01*
X0093158Y0162133D01*
X0093144Y0162206D01*
X0093134Y0162279D01*
X0093128Y0162353D01*
X0093126Y0162427D01*
X0064976Y0192929D02*
X0065369Y0193636D01*
X0065780Y0194334D01*
X0066208Y0195021D01*
X0066652Y0195697D01*
X0067113Y0196363D01*
X0067589Y0197017D01*
X0068082Y0197659D01*
X0068590Y0198289D01*
X0069113Y0198906D01*
X0069652Y0199510D01*
X0070205Y0200101D01*
X0070772Y0200678D01*
X0071353Y0201242D01*
X0071948Y0201791D01*
X0072556Y0202325D01*
X0073176Y0202844D01*
X0073810Y0203348D01*
X0074455Y0203836D01*
X0075112Y0204308D01*
X0075781Y0204764D01*
X0076460Y0205204D01*
X0077150Y0205627D01*
X0077851Y0206033D01*
X0078560Y0206422D01*
X0079280Y0206793D01*
X0080008Y0207146D01*
X0080744Y0207482D01*
X0081488Y0207800D01*
X0082240Y0208099D01*
X0082999Y0208380D01*
X0083765Y0208642D01*
X0084537Y0208885D01*
X0085314Y0209110D01*
X0086097Y0209315D01*
X0086885Y0209501D01*
X0087677Y0209668D01*
X0088472Y0209816D01*
X0089271Y0209944D01*
X0090073Y0210052D01*
X0090878Y0210141D01*
X0091684Y0210210D01*
X0092492Y0210259D01*
X0093301Y0210289D01*
X0094110Y0210299D01*
X0094919Y0210289D01*
X0095728Y0210259D01*
X0096536Y0210210D01*
X0097342Y0210141D01*
X0098147Y0210052D01*
X0098949Y0209944D01*
X0099748Y0209816D01*
X0100543Y0209668D01*
X0101335Y0209501D01*
X0102123Y0209315D01*
X0102906Y0209110D01*
X0103683Y0208885D01*
X0104455Y0208642D01*
X0105221Y0208380D01*
X0105980Y0208099D01*
X0106732Y0207800D01*
X0107476Y0207482D01*
X0108212Y0207146D01*
X0108940Y0206793D01*
X0109660Y0206422D01*
X0110369Y0206033D01*
X0111070Y0205627D01*
X0111760Y0205204D01*
X0112439Y0204764D01*
X0113108Y0204308D01*
X0113765Y0203836D01*
X0114410Y0203348D01*
X0115044Y0202844D01*
X0115664Y0202325D01*
X0116272Y0201791D01*
X0116867Y0201242D01*
X0117448Y0200678D01*
X0118015Y0200101D01*
X0118568Y0199510D01*
X0119107Y0198906D01*
X0119630Y0198289D01*
X0120138Y0197659D01*
X0120631Y0197017D01*
X0121107Y0196363D01*
X0121568Y0195697D01*
X0122012Y0195021D01*
X0122440Y0194334D01*
X0122851Y0193636D01*
X0123244Y0192929D01*
X0123244Y0161433D02*
X0123637Y0160726D01*
X0124048Y0160028D01*
X0124476Y0159341D01*
X0124920Y0158665D01*
X0125381Y0157999D01*
X0125857Y0157345D01*
X0126350Y0156703D01*
X0126858Y0156073D01*
X0127381Y0155456D01*
X0127920Y0154852D01*
X0128473Y0154261D01*
X0129040Y0153684D01*
X0129621Y0153120D01*
X0130216Y0152571D01*
X0130824Y0152037D01*
X0131444Y0151518D01*
X0132078Y0151014D01*
X0132723Y0150526D01*
X0133380Y0150054D01*
X0134049Y0149598D01*
X0134728Y0149158D01*
X0135418Y0148735D01*
X0136119Y0148329D01*
X0136828Y0147940D01*
X0137548Y0147569D01*
X0138276Y0147216D01*
X0139012Y0146880D01*
X0139756Y0146562D01*
X0140508Y0146263D01*
X0141267Y0145982D01*
X0142033Y0145720D01*
X0142805Y0145477D01*
X0143582Y0145252D01*
X0144365Y0145047D01*
X0145153Y0144861D01*
X0145945Y0144694D01*
X0146740Y0144546D01*
X0147539Y0144418D01*
X0148341Y0144310D01*
X0149146Y0144221D01*
X0149952Y0144152D01*
X0150760Y0144103D01*
X0151569Y0144073D01*
X0152378Y0144063D01*
X0153187Y0144073D01*
X0153996Y0144103D01*
X0154804Y0144152D01*
X0155610Y0144221D01*
X0156415Y0144310D01*
X0157217Y0144418D01*
X0158016Y0144546D01*
X0158811Y0144694D01*
X0159603Y0144861D01*
X0160391Y0145047D01*
X0161174Y0145252D01*
X0161951Y0145477D01*
X0162723Y0145720D01*
X0163489Y0145982D01*
X0164248Y0146263D01*
X0165000Y0146562D01*
X0165744Y0146880D01*
X0166480Y0147216D01*
X0167208Y0147569D01*
X0167928Y0147940D01*
X0168637Y0148329D01*
X0169338Y0148735D01*
X0170028Y0149158D01*
X0170707Y0149598D01*
X0171376Y0150054D01*
X0172033Y0150526D01*
X0172678Y0151014D01*
X0173312Y0151518D01*
X0173932Y0152037D01*
X0174540Y0152571D01*
X0175135Y0153120D01*
X0175716Y0153684D01*
X0176283Y0154261D01*
X0176836Y0154852D01*
X0177375Y0155456D01*
X0177898Y0156073D01*
X0178406Y0156703D01*
X0178899Y0157345D01*
X0179375Y0157999D01*
X0179836Y0158665D01*
X0180280Y0159341D01*
X0180708Y0160028D01*
X0181119Y0160726D01*
X0181512Y0161433D01*
X0151394Y0162427D02*
X0151396Y0162501D01*
X0151402Y0162575D01*
X0151412Y0162648D01*
X0151426Y0162721D01*
X0151443Y0162793D01*
X0151465Y0162863D01*
X0151490Y0162933D01*
X0151519Y0163001D01*
X0151552Y0163067D01*
X0151588Y0163132D01*
X0151628Y0163194D01*
X0151670Y0163255D01*
X0151716Y0163313D01*
X0151765Y0163368D01*
X0151817Y0163421D01*
X0151872Y0163471D01*
X0151929Y0163517D01*
X0151989Y0163561D01*
X0152051Y0163601D01*
X0152115Y0163638D01*
X0152181Y0163672D01*
X0152249Y0163702D01*
X0152318Y0163728D01*
X0152389Y0163751D01*
X0152460Y0163769D01*
X0152533Y0163784D01*
X0152606Y0163795D01*
X0152680Y0163802D01*
X0152754Y0163805D01*
X0152827Y0163804D01*
X0152901Y0163799D01*
X0152975Y0163790D01*
X0153048Y0163777D01*
X0153120Y0163760D01*
X0153191Y0163740D01*
X0153261Y0163715D01*
X0153329Y0163687D01*
X0153396Y0163656D01*
X0153461Y0163620D01*
X0153524Y0163582D01*
X0153585Y0163540D01*
X0153644Y0163494D01*
X0153700Y0163446D01*
X0153753Y0163395D01*
X0153803Y0163341D01*
X0153851Y0163284D01*
X0153895Y0163225D01*
X0153937Y0163163D01*
X0153975Y0163100D01*
X0154009Y0163034D01*
X0154040Y0162967D01*
X0154067Y0162898D01*
X0154090Y0162828D01*
X0154110Y0162757D01*
X0154126Y0162684D01*
X0154138Y0162611D01*
X0154146Y0162538D01*
X0154150Y0162464D01*
X0154150Y0162390D01*
X0154146Y0162316D01*
X0154138Y0162243D01*
X0154126Y0162170D01*
X0154110Y0162097D01*
X0154090Y0162026D01*
X0154067Y0161956D01*
X0154040Y0161887D01*
X0154009Y0161820D01*
X0153975Y0161754D01*
X0153937Y0161691D01*
X0153895Y0161629D01*
X0153851Y0161570D01*
X0153803Y0161513D01*
X0153753Y0161459D01*
X0153700Y0161408D01*
X0153644Y0161360D01*
X0153585Y0161314D01*
X0153524Y0161272D01*
X0153461Y0161234D01*
X0153396Y0161198D01*
X0153329Y0161167D01*
X0153261Y0161139D01*
X0153191Y0161114D01*
X0153120Y0161094D01*
X0153048Y0161077D01*
X0152975Y0161064D01*
X0152901Y0161055D01*
X0152827Y0161050D01*
X0152754Y0161049D01*
X0152680Y0161052D01*
X0152606Y0161059D01*
X0152533Y0161070D01*
X0152460Y0161085D01*
X0152389Y0161103D01*
X0152318Y0161126D01*
X0152249Y0161152D01*
X0152181Y0161182D01*
X0152115Y0161216D01*
X0152051Y0161253D01*
X0151989Y0161293D01*
X0151929Y0161337D01*
X0151872Y0161383D01*
X0151817Y0161433D01*
X0151765Y0161486D01*
X0151716Y0161541D01*
X0151670Y0161599D01*
X0151628Y0161660D01*
X0151588Y0161722D01*
X0151552Y0161787D01*
X0151519Y0161853D01*
X0151490Y0161921D01*
X0151465Y0161991D01*
X0151443Y0162061D01*
X0151426Y0162133D01*
X0151412Y0162206D01*
X0151402Y0162279D01*
X0151396Y0162353D01*
X0151394Y0162427D01*
X0123244Y0192929D02*
X0123637Y0193636D01*
X0124048Y0194334D01*
X0124476Y0195021D01*
X0124920Y0195697D01*
X0125381Y0196363D01*
X0125857Y0197017D01*
X0126350Y0197659D01*
X0126858Y0198289D01*
X0127381Y0198906D01*
X0127920Y0199510D01*
X0128473Y0200101D01*
X0129040Y0200678D01*
X0129621Y0201242D01*
X0130216Y0201791D01*
X0130824Y0202325D01*
X0131444Y0202844D01*
X0132078Y0203348D01*
X0132723Y0203836D01*
X0133380Y0204308D01*
X0134049Y0204764D01*
X0134728Y0205204D01*
X0135418Y0205627D01*
X0136119Y0206033D01*
X0136828Y0206422D01*
X0137548Y0206793D01*
X0138276Y0207146D01*
X0139012Y0207482D01*
X0139756Y0207800D01*
X0140508Y0208099D01*
X0141267Y0208380D01*
X0142033Y0208642D01*
X0142805Y0208885D01*
X0143582Y0209110D01*
X0144365Y0209315D01*
X0145153Y0209501D01*
X0145945Y0209668D01*
X0146740Y0209816D01*
X0147539Y0209944D01*
X0148341Y0210052D01*
X0149146Y0210141D01*
X0149952Y0210210D01*
X0150760Y0210259D01*
X0151569Y0210289D01*
X0152378Y0210299D01*
X0153187Y0210289D01*
X0153996Y0210259D01*
X0154804Y0210210D01*
X0155610Y0210141D01*
X0156415Y0210052D01*
X0157217Y0209944D01*
X0158016Y0209816D01*
X0158811Y0209668D01*
X0159603Y0209501D01*
X0160391Y0209315D01*
X0161174Y0209110D01*
X0161951Y0208885D01*
X0162723Y0208642D01*
X0163489Y0208380D01*
X0164248Y0208099D01*
X0165000Y0207800D01*
X0165744Y0207482D01*
X0166480Y0207146D01*
X0167208Y0206793D01*
X0167928Y0206422D01*
X0168637Y0206033D01*
X0169338Y0205627D01*
X0170028Y0205204D01*
X0170707Y0204764D01*
X0171376Y0204308D01*
X0172033Y0203836D01*
X0172678Y0203348D01*
X0173312Y0202844D01*
X0173932Y0202325D01*
X0174540Y0201791D01*
X0175135Y0201242D01*
X0175716Y0200678D01*
X0176283Y0200101D01*
X0176836Y0199510D01*
X0177375Y0198906D01*
X0177898Y0198289D01*
X0178406Y0197659D01*
X0178899Y0197017D01*
X0179375Y0196363D01*
X0179836Y0195697D01*
X0180280Y0195021D01*
X0180708Y0194334D01*
X0181119Y0193636D01*
X0181512Y0192929D01*
X0181512Y0161433D02*
X0181905Y0160726D01*
X0182316Y0160028D01*
X0182744Y0159341D01*
X0183188Y0158665D01*
X0183649Y0157999D01*
X0184125Y0157345D01*
X0184618Y0156703D01*
X0185126Y0156073D01*
X0185649Y0155456D01*
X0186188Y0154852D01*
X0186741Y0154261D01*
X0187308Y0153684D01*
X0187889Y0153120D01*
X0188484Y0152571D01*
X0189092Y0152037D01*
X0189712Y0151518D01*
X0190346Y0151014D01*
X0190991Y0150526D01*
X0191648Y0150054D01*
X0192317Y0149598D01*
X0192996Y0149158D01*
X0193686Y0148735D01*
X0194387Y0148329D01*
X0195096Y0147940D01*
X0195816Y0147569D01*
X0196544Y0147216D01*
X0197280Y0146880D01*
X0198024Y0146562D01*
X0198776Y0146263D01*
X0199535Y0145982D01*
X0200301Y0145720D01*
X0201073Y0145477D01*
X0201850Y0145252D01*
X0202633Y0145047D01*
X0203421Y0144861D01*
X0204213Y0144694D01*
X0205008Y0144546D01*
X0205807Y0144418D01*
X0206609Y0144310D01*
X0207414Y0144221D01*
X0208220Y0144152D01*
X0209028Y0144103D01*
X0209837Y0144073D01*
X0210646Y0144063D01*
X0211455Y0144073D01*
X0212264Y0144103D01*
X0213072Y0144152D01*
X0213878Y0144221D01*
X0214683Y0144310D01*
X0215485Y0144418D01*
X0216284Y0144546D01*
X0217079Y0144694D01*
X0217871Y0144861D01*
X0218659Y0145047D01*
X0219442Y0145252D01*
X0220219Y0145477D01*
X0220991Y0145720D01*
X0221757Y0145982D01*
X0222516Y0146263D01*
X0223268Y0146562D01*
X0224012Y0146880D01*
X0224748Y0147216D01*
X0225476Y0147569D01*
X0226196Y0147940D01*
X0226905Y0148329D01*
X0227606Y0148735D01*
X0228296Y0149158D01*
X0228975Y0149598D01*
X0229644Y0150054D01*
X0230301Y0150526D01*
X0230946Y0151014D01*
X0231580Y0151518D01*
X0232200Y0152037D01*
X0232808Y0152571D01*
X0233403Y0153120D01*
X0233984Y0153684D01*
X0234551Y0154261D01*
X0235104Y0154852D01*
X0235643Y0155456D01*
X0236166Y0156073D01*
X0236674Y0156703D01*
X0237167Y0157345D01*
X0237643Y0157999D01*
X0238104Y0158665D01*
X0238548Y0159341D01*
X0238976Y0160028D01*
X0239387Y0160726D01*
X0239780Y0161433D01*
X0181512Y0082693D02*
X0181119Y0081986D01*
X0180708Y0081288D01*
X0180280Y0080601D01*
X0179836Y0079925D01*
X0179375Y0079259D01*
X0178899Y0078605D01*
X0178406Y0077963D01*
X0177898Y0077333D01*
X0177375Y0076716D01*
X0176836Y0076112D01*
X0176283Y0075521D01*
X0175716Y0074944D01*
X0175135Y0074380D01*
X0174540Y0073831D01*
X0173932Y0073297D01*
X0173312Y0072778D01*
X0172678Y0072274D01*
X0172033Y0071786D01*
X0171376Y0071314D01*
X0170707Y0070858D01*
X0170028Y0070418D01*
X0169338Y0069995D01*
X0168637Y0069589D01*
X0167928Y0069200D01*
X0167208Y0068829D01*
X0166480Y0068476D01*
X0165744Y0068140D01*
X0165000Y0067822D01*
X0164248Y0067523D01*
X0163489Y0067242D01*
X0162723Y0066980D01*
X0161951Y0066737D01*
X0161174Y0066512D01*
X0160391Y0066307D01*
X0159603Y0066121D01*
X0158811Y0065954D01*
X0158016Y0065806D01*
X0157217Y0065678D01*
X0156415Y0065570D01*
X0155610Y0065481D01*
X0154804Y0065412D01*
X0153996Y0065363D01*
X0153187Y0065333D01*
X0152378Y0065323D01*
X0151569Y0065333D01*
X0150760Y0065363D01*
X0149952Y0065412D01*
X0149146Y0065481D01*
X0148341Y0065570D01*
X0147539Y0065678D01*
X0146740Y0065806D01*
X0145945Y0065954D01*
X0145153Y0066121D01*
X0144365Y0066307D01*
X0143582Y0066512D01*
X0142805Y0066737D01*
X0142033Y0066980D01*
X0141267Y0067242D01*
X0140508Y0067523D01*
X0139756Y0067822D01*
X0139012Y0068140D01*
X0138276Y0068476D01*
X0137548Y0068829D01*
X0136828Y0069200D01*
X0136119Y0069589D01*
X0135418Y0069995D01*
X0134728Y0070418D01*
X0134049Y0070858D01*
X0133380Y0071314D01*
X0132723Y0071786D01*
X0132078Y0072274D01*
X0131444Y0072778D01*
X0130824Y0073297D01*
X0130216Y0073831D01*
X0129621Y0074380D01*
X0129040Y0074944D01*
X0128473Y0075521D01*
X0127920Y0076112D01*
X0127381Y0076716D01*
X0126858Y0077333D01*
X0126350Y0077963D01*
X0125857Y0078605D01*
X0125381Y0079259D01*
X0124920Y0079925D01*
X0124476Y0080601D01*
X0124048Y0081288D01*
X0123637Y0081986D01*
X0123244Y0082693D01*
X0239780Y0047260D02*
X0239780Y0314976D01*
X0298047Y0314976D02*
X0298047Y0307102D01*
X0320882Y0307102D01*
X0320882Y0047260D01*
X0298047Y0047260D01*
X0298047Y0307102D01*
D11*
X0294847Y0316064D02*
X0301247Y0318197D01*
X0294847Y0320330D01*
X0298758Y0322628D02*
X0298758Y0326895D01*
X0299825Y0329532D02*
X0296269Y0329532D01*
X0296269Y0329533D02*
X0296195Y0329535D01*
X0296120Y0329541D01*
X0296047Y0329551D01*
X0295973Y0329564D01*
X0295901Y0329581D01*
X0295830Y0329603D01*
X0295759Y0329627D01*
X0295691Y0329656D01*
X0295623Y0329688D01*
X0295558Y0329724D01*
X0295495Y0329762D01*
X0295433Y0329805D01*
X0295374Y0329850D01*
X0295318Y0329898D01*
X0295264Y0329949D01*
X0295212Y0330003D01*
X0295164Y0330060D01*
X0295119Y0330119D01*
X0295076Y0330181D01*
X0295038Y0330244D01*
X0295002Y0330309D01*
X0294970Y0330377D01*
X0294941Y0330445D01*
X0294917Y0330516D01*
X0294895Y0330587D01*
X0294878Y0330659D01*
X0294865Y0330733D01*
X0294855Y0330806D01*
X0294849Y0330881D01*
X0294847Y0330955D01*
X0294847Y0332377D01*
X0294847Y0334881D02*
X0299469Y0334881D01*
X0299552Y0334883D01*
X0299635Y0334889D01*
X0299718Y0334899D01*
X0299801Y0334912D01*
X0299882Y0334930D01*
X0299963Y0334951D01*
X0300042Y0334976D01*
X0300120Y0335005D01*
X0300197Y0335037D01*
X0300272Y0335073D01*
X0300346Y0335112D01*
X0300417Y0335155D01*
X0300487Y0335201D01*
X0300554Y0335251D01*
X0300619Y0335303D01*
X0300681Y0335358D01*
X0300741Y0335417D01*
X0300798Y0335478D01*
X0300852Y0335541D01*
X0300903Y0335607D01*
X0300950Y0335676D01*
X0300995Y0335746D01*
X0301036Y0335819D01*
X0301073Y0335893D01*
X0301108Y0335969D01*
X0301138Y0336047D01*
X0301165Y0336125D01*
X0301188Y0336206D01*
X0301208Y0336287D01*
X0301223Y0336369D01*
X0301235Y0336451D01*
X0301243Y0336534D01*
X0301247Y0336617D01*
X0301247Y0336701D01*
X0301243Y0336784D01*
X0301235Y0336867D01*
X0301223Y0336949D01*
X0301208Y0337031D01*
X0301188Y0337112D01*
X0301165Y0337193D01*
X0301138Y0337271D01*
X0301108Y0337349D01*
X0301073Y0337425D01*
X0301036Y0337499D01*
X0300995Y0337572D01*
X0300950Y0337642D01*
X0300903Y0337711D01*
X0300852Y0337777D01*
X0300798Y0337840D01*
X0300741Y0337901D01*
X0300681Y0337960D01*
X0300619Y0338015D01*
X0300554Y0338067D01*
X0300487Y0338117D01*
X0300417Y0338163D01*
X0300346Y0338206D01*
X0300272Y0338245D01*
X0300197Y0338281D01*
X0300120Y0338313D01*
X0300042Y0338342D01*
X0299963Y0338367D01*
X0299882Y0338388D01*
X0299801Y0338406D01*
X0299718Y0338419D01*
X0299635Y0338429D01*
X0299552Y0338435D01*
X0299469Y0338437D01*
X0294847Y0338437D01*
X0294847Y0340830D02*
X0294847Y0344386D01*
X0294847Y0342608D02*
X0301247Y0342608D01*
X0301247Y0332377D02*
X0301247Y0330955D01*
X0301245Y0330881D01*
X0301239Y0330806D01*
X0301229Y0330733D01*
X0301216Y0330659D01*
X0301199Y0330587D01*
X0301177Y0330516D01*
X0301153Y0330445D01*
X0301124Y0330377D01*
X0301092Y0330309D01*
X0301056Y0330244D01*
X0301018Y0330181D01*
X0300975Y0330119D01*
X0300930Y0330060D01*
X0300882Y0330003D01*
X0300831Y0329949D01*
X0300777Y0329898D01*
X0300720Y0329850D01*
X0300661Y0329805D01*
X0300599Y0329762D01*
X0300536Y0329724D01*
X0300471Y0329688D01*
X0300403Y0329656D01*
X0300335Y0329627D01*
X0300264Y0329603D01*
X0300193Y0329581D01*
X0300121Y0329564D01*
X0300047Y0329551D01*
X0299974Y0329541D01*
X0299899Y0329535D01*
X0299825Y0329533D01*
X0242980Y0330561D02*
X0242980Y0331983D01*
X0242979Y0330561D02*
X0242977Y0330487D01*
X0242971Y0330412D01*
X0242961Y0330339D01*
X0242948Y0330265D01*
X0242931Y0330193D01*
X0242909Y0330122D01*
X0242885Y0330051D01*
X0242856Y0329983D01*
X0242824Y0329915D01*
X0242788Y0329850D01*
X0242750Y0329787D01*
X0242707Y0329725D01*
X0242662Y0329666D01*
X0242614Y0329609D01*
X0242563Y0329555D01*
X0242509Y0329504D01*
X0242452Y0329456D01*
X0242393Y0329411D01*
X0242331Y0329368D01*
X0242268Y0329330D01*
X0242203Y0329294D01*
X0242135Y0329262D01*
X0242067Y0329233D01*
X0241996Y0329209D01*
X0241925Y0329187D01*
X0241853Y0329170D01*
X0241779Y0329157D01*
X0241706Y0329147D01*
X0241631Y0329141D01*
X0241557Y0329139D01*
X0238002Y0329139D01*
X0237928Y0329141D01*
X0237853Y0329147D01*
X0237780Y0329157D01*
X0237706Y0329170D01*
X0237634Y0329187D01*
X0237563Y0329209D01*
X0237492Y0329233D01*
X0237424Y0329262D01*
X0237356Y0329294D01*
X0237291Y0329330D01*
X0237228Y0329368D01*
X0237166Y0329411D01*
X0237107Y0329456D01*
X0237051Y0329504D01*
X0236997Y0329555D01*
X0236945Y0329609D01*
X0236897Y0329666D01*
X0236852Y0329725D01*
X0236809Y0329787D01*
X0236771Y0329850D01*
X0236735Y0329915D01*
X0236703Y0329983D01*
X0236674Y0330051D01*
X0236650Y0330122D01*
X0236628Y0330193D01*
X0236611Y0330265D01*
X0236598Y0330339D01*
X0236588Y0330412D01*
X0236582Y0330487D01*
X0236580Y0330561D01*
X0236580Y0331983D01*
X0236580Y0334488D02*
X0241202Y0334488D01*
X0241202Y0334487D02*
X0241285Y0334489D01*
X0241368Y0334495D01*
X0241451Y0334505D01*
X0241534Y0334518D01*
X0241615Y0334536D01*
X0241696Y0334557D01*
X0241775Y0334582D01*
X0241853Y0334611D01*
X0241930Y0334643D01*
X0242005Y0334679D01*
X0242079Y0334718D01*
X0242150Y0334761D01*
X0242220Y0334807D01*
X0242287Y0334857D01*
X0242352Y0334909D01*
X0242414Y0334964D01*
X0242474Y0335023D01*
X0242531Y0335084D01*
X0242585Y0335147D01*
X0242636Y0335213D01*
X0242683Y0335282D01*
X0242728Y0335352D01*
X0242769Y0335425D01*
X0242806Y0335499D01*
X0242841Y0335575D01*
X0242871Y0335653D01*
X0242898Y0335731D01*
X0242921Y0335812D01*
X0242941Y0335893D01*
X0242956Y0335975D01*
X0242968Y0336057D01*
X0242976Y0336140D01*
X0242980Y0336223D01*
X0242980Y0336307D01*
X0242976Y0336390D01*
X0242968Y0336473D01*
X0242956Y0336555D01*
X0242941Y0336637D01*
X0242921Y0336718D01*
X0242898Y0336799D01*
X0242871Y0336877D01*
X0242841Y0336955D01*
X0242806Y0337031D01*
X0242769Y0337105D01*
X0242728Y0337178D01*
X0242683Y0337248D01*
X0242636Y0337317D01*
X0242585Y0337383D01*
X0242531Y0337446D01*
X0242474Y0337507D01*
X0242414Y0337566D01*
X0242352Y0337621D01*
X0242287Y0337673D01*
X0242220Y0337723D01*
X0242150Y0337769D01*
X0242079Y0337812D01*
X0242005Y0337851D01*
X0241930Y0337887D01*
X0241853Y0337919D01*
X0241775Y0337948D01*
X0241696Y0337973D01*
X0241615Y0337994D01*
X0241534Y0338012D01*
X0241451Y0338025D01*
X0241368Y0338035D01*
X0241285Y0338041D01*
X0241202Y0338043D01*
X0236580Y0338043D01*
X0236580Y0340437D02*
X0236580Y0343992D01*
X0236580Y0342214D02*
X0242980Y0342214D01*
X0240491Y0326501D02*
X0240491Y0322234D01*
X0236580Y0319937D02*
X0242980Y0317803D01*
X0236580Y0315670D01*
X0184712Y0317803D02*
X0178312Y0319937D01*
X0178312Y0315670D02*
X0184712Y0317803D01*
X0182223Y0322234D02*
X0182223Y0326501D01*
X0183290Y0329139D02*
X0179734Y0329139D01*
X0179660Y0329141D01*
X0179585Y0329147D01*
X0179512Y0329157D01*
X0179438Y0329170D01*
X0179366Y0329187D01*
X0179295Y0329209D01*
X0179224Y0329233D01*
X0179156Y0329262D01*
X0179088Y0329294D01*
X0179023Y0329330D01*
X0178960Y0329368D01*
X0178898Y0329411D01*
X0178839Y0329456D01*
X0178783Y0329504D01*
X0178729Y0329555D01*
X0178677Y0329609D01*
X0178629Y0329666D01*
X0178584Y0329725D01*
X0178541Y0329787D01*
X0178503Y0329850D01*
X0178467Y0329915D01*
X0178435Y0329983D01*
X0178406Y0330051D01*
X0178382Y0330122D01*
X0178360Y0330193D01*
X0178343Y0330265D01*
X0178330Y0330339D01*
X0178320Y0330412D01*
X0178314Y0330487D01*
X0178312Y0330561D01*
X0178312Y0331983D01*
X0178312Y0334488D02*
X0182934Y0334488D01*
X0182934Y0334487D02*
X0183017Y0334489D01*
X0183100Y0334495D01*
X0183183Y0334505D01*
X0183266Y0334518D01*
X0183347Y0334536D01*
X0183428Y0334557D01*
X0183507Y0334582D01*
X0183585Y0334611D01*
X0183662Y0334643D01*
X0183737Y0334679D01*
X0183811Y0334718D01*
X0183882Y0334761D01*
X0183952Y0334807D01*
X0184019Y0334857D01*
X0184084Y0334909D01*
X0184146Y0334964D01*
X0184206Y0335023D01*
X0184263Y0335084D01*
X0184317Y0335147D01*
X0184368Y0335213D01*
X0184415Y0335282D01*
X0184460Y0335352D01*
X0184501Y0335425D01*
X0184538Y0335499D01*
X0184573Y0335575D01*
X0184603Y0335653D01*
X0184630Y0335731D01*
X0184653Y0335812D01*
X0184673Y0335893D01*
X0184688Y0335975D01*
X0184700Y0336057D01*
X0184708Y0336140D01*
X0184712Y0336223D01*
X0184712Y0336307D01*
X0184708Y0336390D01*
X0184700Y0336473D01*
X0184688Y0336555D01*
X0184673Y0336637D01*
X0184653Y0336718D01*
X0184630Y0336799D01*
X0184603Y0336877D01*
X0184573Y0336955D01*
X0184538Y0337031D01*
X0184501Y0337105D01*
X0184460Y0337178D01*
X0184415Y0337248D01*
X0184368Y0337317D01*
X0184317Y0337383D01*
X0184263Y0337446D01*
X0184206Y0337507D01*
X0184146Y0337566D01*
X0184084Y0337621D01*
X0184019Y0337673D01*
X0183952Y0337723D01*
X0183882Y0337769D01*
X0183811Y0337812D01*
X0183737Y0337851D01*
X0183662Y0337887D01*
X0183585Y0337919D01*
X0183507Y0337948D01*
X0183428Y0337973D01*
X0183347Y0337994D01*
X0183266Y0338012D01*
X0183183Y0338025D01*
X0183100Y0338035D01*
X0183017Y0338041D01*
X0182934Y0338043D01*
X0178312Y0338043D01*
X0178312Y0340437D02*
X0178312Y0343992D01*
X0178312Y0342214D02*
X0184712Y0342214D01*
X0184712Y0331983D02*
X0184712Y0330561D01*
X0184710Y0330487D01*
X0184704Y0330412D01*
X0184694Y0330339D01*
X0184681Y0330265D01*
X0184664Y0330193D01*
X0184642Y0330122D01*
X0184618Y0330051D01*
X0184589Y0329983D01*
X0184557Y0329915D01*
X0184521Y0329850D01*
X0184483Y0329787D01*
X0184440Y0329725D01*
X0184395Y0329666D01*
X0184347Y0329609D01*
X0184296Y0329555D01*
X0184242Y0329504D01*
X0184185Y0329456D01*
X0184126Y0329411D01*
X0184064Y0329368D01*
X0184001Y0329330D01*
X0183936Y0329294D01*
X0183868Y0329262D01*
X0183800Y0329233D01*
X0183729Y0329209D01*
X0183658Y0329187D01*
X0183586Y0329170D01*
X0183512Y0329157D01*
X0183439Y0329147D01*
X0183364Y0329141D01*
X0183290Y0329139D01*
X0126444Y0330561D02*
X0126444Y0331983D01*
X0126444Y0330561D02*
X0126442Y0330487D01*
X0126436Y0330412D01*
X0126426Y0330339D01*
X0126413Y0330265D01*
X0126396Y0330193D01*
X0126374Y0330122D01*
X0126350Y0330051D01*
X0126321Y0329983D01*
X0126289Y0329915D01*
X0126253Y0329850D01*
X0126215Y0329787D01*
X0126172Y0329725D01*
X0126127Y0329666D01*
X0126079Y0329609D01*
X0126028Y0329555D01*
X0125974Y0329504D01*
X0125917Y0329456D01*
X0125858Y0329411D01*
X0125796Y0329368D01*
X0125733Y0329330D01*
X0125668Y0329294D01*
X0125600Y0329262D01*
X0125532Y0329233D01*
X0125461Y0329209D01*
X0125390Y0329187D01*
X0125318Y0329170D01*
X0125244Y0329157D01*
X0125171Y0329147D01*
X0125096Y0329141D01*
X0125022Y0329139D01*
X0121466Y0329139D01*
X0121392Y0329141D01*
X0121317Y0329147D01*
X0121244Y0329157D01*
X0121170Y0329170D01*
X0121098Y0329187D01*
X0121027Y0329209D01*
X0120956Y0329233D01*
X0120888Y0329262D01*
X0120820Y0329294D01*
X0120755Y0329330D01*
X0120692Y0329368D01*
X0120630Y0329411D01*
X0120571Y0329456D01*
X0120515Y0329504D01*
X0120461Y0329555D01*
X0120409Y0329609D01*
X0120361Y0329666D01*
X0120316Y0329725D01*
X0120273Y0329787D01*
X0120235Y0329850D01*
X0120199Y0329915D01*
X0120167Y0329983D01*
X0120138Y0330051D01*
X0120114Y0330122D01*
X0120092Y0330193D01*
X0120075Y0330265D01*
X0120062Y0330339D01*
X0120052Y0330412D01*
X0120046Y0330487D01*
X0120044Y0330561D01*
X0120044Y0331983D01*
X0120044Y0334488D02*
X0124666Y0334488D01*
X0124666Y0334487D02*
X0124749Y0334489D01*
X0124832Y0334495D01*
X0124915Y0334505D01*
X0124998Y0334518D01*
X0125079Y0334536D01*
X0125160Y0334557D01*
X0125239Y0334582D01*
X0125317Y0334611D01*
X0125394Y0334643D01*
X0125469Y0334679D01*
X0125543Y0334718D01*
X0125614Y0334761D01*
X0125684Y0334807D01*
X0125751Y0334857D01*
X0125816Y0334909D01*
X0125878Y0334964D01*
X0125938Y0335023D01*
X0125995Y0335084D01*
X0126049Y0335147D01*
X0126100Y0335213D01*
X0126147Y0335282D01*
X0126192Y0335352D01*
X0126233Y0335425D01*
X0126270Y0335499D01*
X0126305Y0335575D01*
X0126335Y0335653D01*
X0126362Y0335731D01*
X0126385Y0335812D01*
X0126405Y0335893D01*
X0126420Y0335975D01*
X0126432Y0336057D01*
X0126440Y0336140D01*
X0126444Y0336223D01*
X0126444Y0336307D01*
X0126440Y0336390D01*
X0126432Y0336473D01*
X0126420Y0336555D01*
X0126405Y0336637D01*
X0126385Y0336718D01*
X0126362Y0336799D01*
X0126335Y0336877D01*
X0126305Y0336955D01*
X0126270Y0337031D01*
X0126233Y0337105D01*
X0126192Y0337178D01*
X0126147Y0337248D01*
X0126100Y0337317D01*
X0126049Y0337383D01*
X0125995Y0337446D01*
X0125938Y0337507D01*
X0125878Y0337566D01*
X0125816Y0337621D01*
X0125751Y0337673D01*
X0125684Y0337723D01*
X0125614Y0337769D01*
X0125543Y0337812D01*
X0125469Y0337851D01*
X0125394Y0337887D01*
X0125317Y0337919D01*
X0125239Y0337948D01*
X0125160Y0337973D01*
X0125079Y0337994D01*
X0124998Y0338012D01*
X0124915Y0338025D01*
X0124832Y0338035D01*
X0124749Y0338041D01*
X0124666Y0338043D01*
X0120044Y0338043D01*
X0120044Y0340437D02*
X0120044Y0343992D01*
X0120044Y0342214D02*
X0126444Y0342214D01*
X0123955Y0326501D02*
X0123955Y0322234D01*
X0120044Y0319937D02*
X0126444Y0317803D01*
X0120044Y0315670D01*
X0068176Y0318985D02*
X0061776Y0321118D01*
X0061776Y0316851D02*
X0068176Y0318985D01*
X0065688Y0323415D02*
X0065688Y0327682D01*
X0066754Y0330320D02*
X0063199Y0330320D01*
X0063125Y0330322D01*
X0063050Y0330328D01*
X0062977Y0330338D01*
X0062903Y0330351D01*
X0062831Y0330368D01*
X0062760Y0330390D01*
X0062689Y0330414D01*
X0062621Y0330443D01*
X0062553Y0330475D01*
X0062488Y0330511D01*
X0062425Y0330549D01*
X0062363Y0330592D01*
X0062304Y0330637D01*
X0062248Y0330685D01*
X0062194Y0330736D01*
X0062142Y0330790D01*
X0062094Y0330847D01*
X0062049Y0330906D01*
X0062006Y0330968D01*
X0061968Y0331031D01*
X0061932Y0331096D01*
X0061900Y0331164D01*
X0061871Y0331232D01*
X0061847Y0331303D01*
X0061825Y0331374D01*
X0061808Y0331446D01*
X0061795Y0331520D01*
X0061785Y0331593D01*
X0061779Y0331668D01*
X0061777Y0331742D01*
X0061776Y0331742D02*
X0061776Y0333164D01*
X0061776Y0335669D02*
X0066399Y0335669D01*
X0066482Y0335671D01*
X0066565Y0335677D01*
X0066648Y0335687D01*
X0066731Y0335700D01*
X0066812Y0335718D01*
X0066893Y0335739D01*
X0066972Y0335764D01*
X0067050Y0335793D01*
X0067127Y0335825D01*
X0067202Y0335861D01*
X0067276Y0335900D01*
X0067347Y0335943D01*
X0067417Y0335989D01*
X0067484Y0336039D01*
X0067549Y0336091D01*
X0067611Y0336146D01*
X0067671Y0336205D01*
X0067728Y0336266D01*
X0067782Y0336329D01*
X0067833Y0336395D01*
X0067880Y0336464D01*
X0067925Y0336534D01*
X0067966Y0336607D01*
X0068003Y0336681D01*
X0068038Y0336757D01*
X0068068Y0336835D01*
X0068095Y0336913D01*
X0068118Y0336994D01*
X0068138Y0337075D01*
X0068153Y0337157D01*
X0068165Y0337239D01*
X0068173Y0337322D01*
X0068177Y0337405D01*
X0068177Y0337489D01*
X0068173Y0337572D01*
X0068165Y0337655D01*
X0068153Y0337737D01*
X0068138Y0337819D01*
X0068118Y0337900D01*
X0068095Y0337981D01*
X0068068Y0338059D01*
X0068038Y0338137D01*
X0068003Y0338213D01*
X0067966Y0338287D01*
X0067925Y0338360D01*
X0067880Y0338430D01*
X0067833Y0338499D01*
X0067782Y0338565D01*
X0067728Y0338628D01*
X0067671Y0338689D01*
X0067611Y0338748D01*
X0067549Y0338803D01*
X0067484Y0338855D01*
X0067417Y0338905D01*
X0067347Y0338951D01*
X0067276Y0338994D01*
X0067202Y0339033D01*
X0067127Y0339069D01*
X0067050Y0339101D01*
X0066972Y0339130D01*
X0066893Y0339155D01*
X0066812Y0339176D01*
X0066731Y0339194D01*
X0066648Y0339207D01*
X0066565Y0339217D01*
X0066482Y0339223D01*
X0066399Y0339225D01*
X0066399Y0339224D02*
X0061776Y0339224D01*
X0061776Y0341618D02*
X0061776Y0345173D01*
X0061776Y0343395D02*
X0068176Y0343395D01*
X0068176Y0333164D02*
X0068176Y0331742D01*
X0068174Y0331668D01*
X0068168Y0331593D01*
X0068158Y0331520D01*
X0068145Y0331446D01*
X0068128Y0331374D01*
X0068106Y0331303D01*
X0068082Y0331232D01*
X0068053Y0331164D01*
X0068021Y0331096D01*
X0067985Y0331031D01*
X0067947Y0330968D01*
X0067904Y0330906D01*
X0067859Y0330847D01*
X0067811Y0330790D01*
X0067760Y0330736D01*
X0067706Y0330685D01*
X0067649Y0330637D01*
X0067590Y0330592D01*
X0067528Y0330549D01*
X0067465Y0330511D01*
X0067400Y0330475D01*
X0067332Y0330443D01*
X0067264Y0330414D01*
X0067193Y0330390D01*
X0067122Y0330368D01*
X0067050Y0330351D01*
X0066976Y0330338D01*
X0066903Y0330328D01*
X0066828Y0330322D01*
X0066754Y0330320D01*
M02*
