G75*
%MOIN*%
%OFA0B0*%
%FSLAX25Y25*%
%IPPOS*%
%LPD*%
%AMOC8*
5,1,8,0,0,1.08239X$1,22.5*
%
%ADD10C,0.03156*%
%ADD11C,0.02369*%
%ADD12C,0.04000*%
D10*
X0094504Y0083687D03*
X0152772Y0083687D03*
X0211039Y0083687D03*
X0269307Y0083687D03*
X0269307Y0162427D03*
X0211039Y0162427D03*
X0152772Y0162427D03*
X0094504Y0162427D03*
X0094504Y0241167D03*
X0152772Y0241167D03*
X0211039Y0241167D03*
X0269307Y0241167D03*
D11*
X0074817Y0078371D03*
X0072568Y0080611D03*
X0075292Y0082240D03*
X0077542Y0080000D03*
X0085914Y0075001D03*
X0084369Y0072229D03*
X0087437Y0071414D03*
X0088982Y0074187D03*
X0098732Y0074044D03*
X0101796Y0074872D03*
X0101844Y0071698D03*
X0098780Y0070870D03*
X0111940Y0076899D03*
X0110311Y0079623D03*
X0112551Y0081872D03*
X0114180Y0079148D03*
X0130836Y0080611D03*
X0133560Y0082240D03*
X0135809Y0080000D03*
X0133085Y0078371D03*
X0142637Y0072229D03*
X0144182Y0075001D03*
X0147249Y0074187D03*
X0145704Y0071414D03*
X0157048Y0070870D03*
X0156999Y0074044D03*
X0160064Y0074872D03*
X0160112Y0071698D03*
X0170208Y0076899D03*
X0172447Y0079148D03*
X0170819Y0081872D03*
X0168579Y0079623D03*
X0189103Y0080611D03*
X0191353Y0078371D03*
X0194077Y0080000D03*
X0191828Y0082240D03*
X0202449Y0075001D03*
X0200904Y0072229D03*
X0203972Y0071414D03*
X0205517Y0074187D03*
X0215267Y0074044D03*
X0218331Y0074872D03*
X0218380Y0071698D03*
X0215316Y0070870D03*
X0226847Y0079623D03*
X0229086Y0081872D03*
X0230715Y0079148D03*
X0228476Y0076899D03*
X0247371Y0080611D03*
X0249620Y0078371D03*
X0252345Y0080000D03*
X0250095Y0082240D03*
X0259172Y0072229D03*
X0260717Y0075001D03*
X0263785Y0074187D03*
X0262240Y0071414D03*
X0273583Y0070870D03*
X0273535Y0074044D03*
X0276599Y0074872D03*
X0276648Y0071698D03*
X0286743Y0076899D03*
X0285114Y0079623D03*
X0287354Y0081872D03*
X0288983Y0079148D03*
X0287731Y0114642D03*
X0285482Y0116882D03*
X0288206Y0118510D03*
X0290456Y0116271D03*
X0278655Y0124653D03*
X0277110Y0121880D03*
X0274042Y0122695D03*
X0275587Y0125468D03*
X0264243Y0126012D03*
X0261179Y0125184D03*
X0261228Y0122010D03*
X0264292Y0122838D03*
X0252712Y0117259D03*
X0251083Y0119983D03*
X0248844Y0117734D03*
X0250473Y0115010D03*
X0232188Y0116271D03*
X0229939Y0118510D03*
X0227214Y0116882D03*
X0229464Y0114642D03*
X0218842Y0121880D03*
X0215774Y0122695D03*
X0217319Y0125468D03*
X0220387Y0124653D03*
X0206024Y0122838D03*
X0202960Y0122010D03*
X0202911Y0125184D03*
X0205976Y0126012D03*
X0192816Y0119983D03*
X0194445Y0117259D03*
X0192205Y0115010D03*
X0190576Y0117734D03*
X0173920Y0116271D03*
X0171671Y0118510D03*
X0168947Y0116882D03*
X0171196Y0114642D03*
X0160574Y0121880D03*
X0157507Y0122695D03*
X0159051Y0125468D03*
X0162119Y0124653D03*
X0147708Y0126012D03*
X0147756Y0122838D03*
X0144692Y0122010D03*
X0144644Y0125184D03*
X0136177Y0117259D03*
X0134548Y0119983D03*
X0132308Y0117734D03*
X0133937Y0115010D03*
X0115653Y0116271D03*
X0113403Y0118510D03*
X0110679Y0116882D03*
X0112928Y0114642D03*
X0102307Y0121880D03*
X0103851Y0124653D03*
X0100784Y0125468D03*
X0099239Y0122695D03*
X0089489Y0122838D03*
X0086425Y0122010D03*
X0086376Y0125184D03*
X0089440Y0126012D03*
X0076280Y0119983D03*
X0074041Y0117734D03*
X0075670Y0115010D03*
X0077909Y0117259D03*
X0087437Y0150154D03*
X0088982Y0152927D03*
X0085914Y0153742D03*
X0084369Y0150969D03*
X0077542Y0158740D03*
X0074817Y0157112D03*
X0072568Y0159351D03*
X0075292Y0160980D03*
X0098732Y0152784D03*
X0101796Y0153612D03*
X0101844Y0150438D03*
X0098780Y0149610D03*
X0111940Y0155639D03*
X0110311Y0158363D03*
X0112551Y0160612D03*
X0114180Y0157888D03*
X0130836Y0159351D03*
X0133085Y0157112D03*
X0135809Y0158740D03*
X0133560Y0160980D03*
X0144182Y0153742D03*
X0147249Y0152927D03*
X0145704Y0150154D03*
X0142637Y0150969D03*
X0157048Y0149610D03*
X0160112Y0150438D03*
X0160064Y0153612D03*
X0156999Y0152784D03*
X0168579Y0158363D03*
X0170208Y0155639D03*
X0172447Y0157888D03*
X0170819Y0160612D03*
X0189103Y0159351D03*
X0191353Y0157112D03*
X0194077Y0158740D03*
X0191828Y0160980D03*
X0202449Y0153742D03*
X0200904Y0150969D03*
X0203972Y0150154D03*
X0205517Y0152927D03*
X0215267Y0152784D03*
X0218331Y0153612D03*
X0218380Y0150438D03*
X0215316Y0149610D03*
X0226847Y0158363D03*
X0228476Y0155639D03*
X0230715Y0157888D03*
X0229086Y0160612D03*
X0247371Y0159351D03*
X0249620Y0157112D03*
X0252345Y0158740D03*
X0250095Y0160980D03*
X0260717Y0153742D03*
X0263785Y0152927D03*
X0262240Y0150154D03*
X0259172Y0150969D03*
X0273583Y0149610D03*
X0273535Y0152784D03*
X0276599Y0153612D03*
X0276648Y0150438D03*
X0286743Y0155639D03*
X0285114Y0158363D03*
X0287354Y0160612D03*
X0288983Y0157888D03*
X0287731Y0193382D03*
X0285482Y0195622D03*
X0288206Y0197251D03*
X0290456Y0195011D03*
X0278655Y0203393D03*
X0277110Y0200621D03*
X0274042Y0201435D03*
X0275587Y0204208D03*
X0264243Y0204752D03*
X0261179Y0203924D03*
X0261228Y0200750D03*
X0264292Y0201578D03*
X0252712Y0195999D03*
X0250473Y0193750D03*
X0248844Y0196474D03*
X0251083Y0198723D03*
X0232188Y0195011D03*
X0229464Y0193382D03*
X0227214Y0195622D03*
X0229939Y0197251D03*
X0220387Y0203393D03*
X0218842Y0200621D03*
X0215774Y0201435D03*
X0217319Y0204208D03*
X0206024Y0201578D03*
X0202960Y0200750D03*
X0202911Y0203924D03*
X0205976Y0204752D03*
X0192816Y0198723D03*
X0194445Y0195999D03*
X0192205Y0193750D03*
X0190576Y0196474D03*
X0173920Y0195011D03*
X0171196Y0193382D03*
X0168947Y0195622D03*
X0171671Y0197251D03*
X0162119Y0203393D03*
X0160574Y0200621D03*
X0157507Y0201435D03*
X0159051Y0204208D03*
X0147708Y0204752D03*
X0147756Y0201578D03*
X0144692Y0200750D03*
X0144644Y0203924D03*
X0134548Y0198723D03*
X0136177Y0195999D03*
X0133937Y0193750D03*
X0132308Y0196474D03*
X0115653Y0195011D03*
X0113403Y0197251D03*
X0110679Y0195622D03*
X0112928Y0193382D03*
X0103851Y0203393D03*
X0102307Y0200621D03*
X0099239Y0201435D03*
X0100784Y0204208D03*
X0089440Y0204752D03*
X0086376Y0203924D03*
X0086425Y0200750D03*
X0089489Y0201578D03*
X0077909Y0195999D03*
X0075670Y0193750D03*
X0074041Y0196474D03*
X0076280Y0198723D03*
X0084369Y0229709D03*
X0085914Y0232482D03*
X0088982Y0231667D03*
X0087437Y0228894D03*
X0098780Y0228350D03*
X0098732Y0231524D03*
X0101796Y0232352D03*
X0101844Y0229178D03*
X0111940Y0234379D03*
X0110311Y0237103D03*
X0112551Y0239353D03*
X0114180Y0236628D03*
X0130836Y0238091D03*
X0133085Y0235852D03*
X0135809Y0237481D03*
X0133560Y0239720D03*
X0144182Y0232482D03*
X0147249Y0231667D03*
X0145704Y0228894D03*
X0142637Y0229709D03*
X0157048Y0228350D03*
X0160112Y0229178D03*
X0160064Y0232352D03*
X0156999Y0231524D03*
X0168579Y0237103D03*
X0170208Y0234379D03*
X0172447Y0236628D03*
X0170819Y0239353D03*
X0189103Y0238091D03*
X0191353Y0235852D03*
X0194077Y0237481D03*
X0191828Y0239720D03*
X0202449Y0232482D03*
X0200904Y0229709D03*
X0203972Y0228894D03*
X0205517Y0231667D03*
X0215267Y0231524D03*
X0215316Y0228350D03*
X0218380Y0229178D03*
X0218331Y0232352D03*
X0226847Y0237103D03*
X0228476Y0234379D03*
X0230715Y0236628D03*
X0229086Y0239353D03*
X0247371Y0238091D03*
X0249620Y0235852D03*
X0252345Y0237481D03*
X0250095Y0239720D03*
X0260717Y0232482D03*
X0263785Y0231667D03*
X0262240Y0228894D03*
X0259172Y0229709D03*
X0273583Y0228350D03*
X0273535Y0231524D03*
X0276599Y0232352D03*
X0276648Y0229178D03*
X0286743Y0234379D03*
X0285114Y0237103D03*
X0287354Y0239353D03*
X0288983Y0236628D03*
X0287731Y0272122D03*
X0285482Y0274362D03*
X0288206Y0275991D03*
X0290456Y0273751D03*
X0278655Y0282134D03*
X0275587Y0282948D03*
X0274042Y0280176D03*
X0277110Y0279361D03*
X0264292Y0280319D03*
X0264243Y0283492D03*
X0261179Y0282664D03*
X0261228Y0279490D03*
X0252712Y0274739D03*
X0250473Y0272490D03*
X0248844Y0275214D03*
X0251083Y0277464D03*
X0232188Y0273751D03*
X0229464Y0272122D03*
X0227214Y0274362D03*
X0229939Y0275991D03*
X0220387Y0282134D03*
X0217319Y0282948D03*
X0215774Y0280176D03*
X0218842Y0279361D03*
X0206024Y0280319D03*
X0205976Y0283492D03*
X0202911Y0282664D03*
X0202960Y0279490D03*
X0194445Y0274739D03*
X0192205Y0272490D03*
X0190576Y0275214D03*
X0192816Y0277464D03*
X0173920Y0273751D03*
X0171196Y0272122D03*
X0168947Y0274362D03*
X0171671Y0275991D03*
X0162119Y0282134D03*
X0159051Y0282948D03*
X0157507Y0280176D03*
X0160574Y0279361D03*
X0147756Y0280319D03*
X0147708Y0283492D03*
X0144644Y0282664D03*
X0144692Y0279490D03*
X0136177Y0274739D03*
X0133937Y0272490D03*
X0132308Y0275214D03*
X0134548Y0277464D03*
X0115653Y0273751D03*
X0112928Y0272122D03*
X0110679Y0274362D03*
X0113403Y0275991D03*
X0103851Y0282134D03*
X0100784Y0282948D03*
X0099239Y0280176D03*
X0102307Y0279361D03*
X0089489Y0280319D03*
X0089440Y0283492D03*
X0086376Y0282664D03*
X0086425Y0279490D03*
X0077909Y0274739D03*
X0075670Y0272490D03*
X0074041Y0275214D03*
X0076280Y0277464D03*
X0075292Y0239720D03*
X0072568Y0238091D03*
X0074817Y0235852D03*
X0077542Y0237481D03*
D12*
X0069213Y0247916D03*
X0070110Y0266921D03*
X0118701Y0262583D03*
X0128378Y0266921D03*
X0127481Y0247916D03*
X0118110Y0244921D03*
X0128378Y0188181D03*
X0118701Y0183843D03*
X0127481Y0169176D03*
X0118110Y0166181D03*
X0069213Y0169176D03*
X0070110Y0188181D03*
X0070110Y0109441D03*
X0069213Y0090435D03*
X0118110Y0087441D03*
X0127481Y0090435D03*
X0118701Y0105102D03*
X0128378Y0109441D03*
X0176969Y0105102D03*
X0186646Y0109441D03*
X0185749Y0090435D03*
X0176378Y0087441D03*
X0234646Y0087441D03*
X0244017Y0090435D03*
X0235236Y0105102D03*
X0244913Y0109441D03*
X0293504Y0105102D03*
X0292913Y0087441D03*
X0292913Y0166181D03*
X0293504Y0183843D03*
X0244913Y0188181D03*
X0235236Y0183843D03*
X0244017Y0169176D03*
X0234646Y0166181D03*
X0185749Y0169176D03*
X0176378Y0166181D03*
X0176969Y0183843D03*
X0186646Y0188181D03*
X0176378Y0244921D03*
X0185749Y0247916D03*
X0176969Y0262583D03*
X0186646Y0266921D03*
X0235236Y0262583D03*
X0244913Y0266921D03*
X0244017Y0247916D03*
X0234646Y0244921D03*
X0292913Y0244921D03*
X0293504Y0262583D03*
M02*
