%
M48
M72
T01C0.01181
T02C0.01575
T03C0.02400
T04C0.02756
%
T01
X74817Y78371
X72568Y80611
X75292Y82240
X77542Y80000
X85914Y75001
X84369Y72229
X87437Y71414
X88982Y74187
X98732Y74044
X101796Y74872
X101844Y71698
X98780Y70870
X111940Y76899
X110311Y79623
X112551Y81872
X114180Y79148
X130836Y80611
X133560Y82240
X135809Y80000
X133085Y78371
X142637Y72229
X144182Y75001
X147249Y74187
X145704Y71414
X157048Y70870
X156999Y74044
X160064Y74872
X160112Y71698
X170208Y76899
X172447Y79148
X170819Y81872
X168579Y79623
X189103Y80611
X191353Y78371
X194077Y80000
X191828Y82240
X202449Y75001
X200904Y72229
X203972Y71414
X205517Y74187
X215267Y74044
X218331Y74872
X218380Y71698
X215316Y70870
X226847Y79623
X229086Y81872
X230715Y79148
X228476Y76899
X247371Y80611
X249620Y78371
X252345Y80000
X250095Y82240
X259172Y72229
X260717Y75001
X263785Y74187
X262240Y71414
X273583Y70870
X273535Y74044
X276599Y74872
X276648Y71698
X286743Y76899
X285114Y79623
X287354Y81872
X288983Y79148
X287731Y114642
X285482Y116882
X288206Y118510
X290456Y116271
X278655Y124653
X277110Y121880
X274042Y122695
X275587Y125468
X264243Y126012
X261179Y125184
X261228Y122010
X264292Y122838
X252712Y117259
X251083Y119983
X248844Y117734
X250473Y115010
X232188Y116271
X229939Y118510
X227214Y116882
X229464Y114642
X218842Y121880
X215774Y122695
X217319Y125468
X220387Y124653
X206024Y122838
X202960Y122010
X202911Y125184
X205976Y126012
X192816Y119983
X194445Y117259
X192205Y115010
X190576Y117734
X173920Y116271
X171671Y118510
X168947Y116882
X171196Y114642
X160574Y121880
X157507Y122695
X159051Y125468
X162119Y124653
X147708Y126012
X147756Y122838
X144692Y122010
X144644Y125184
X136177Y117259
X134548Y119983
X132308Y117734
X133937Y115010
X115653Y116271
X113403Y118510
X110679Y116882
X112928Y114642
X102307Y121880
X103851Y124653
X100784Y125468
X99239Y122695
X89489Y122838
X86425Y122010
X86376Y125184
X89440Y126012
X76280Y119983
X74041Y117734
X75670Y115010
X77909Y117259
X87437Y150154
X88982Y152927
X85914Y153742
X84369Y150969
X77542Y158740
X74817Y157112
X72568Y159351
X75292Y160980
X98732Y152784
X101796Y153612
X101844Y150438
X98780Y149610
X111940Y155639
X110311Y158363
X112551Y160612
X114180Y157888
X130836Y159351
X133085Y157112
X135809Y158740
X133560Y160980
X144182Y153742
X147249Y152927
X145704Y150154
X142637Y150969
X157048Y149610
X160112Y150438
X160064Y153612
X156999Y152784
X168579Y158363
X170208Y155639
X172447Y157888
X170819Y160612
X189103Y159351
X191353Y157112
X194077Y158740
X191828Y160980
X202449Y153742
X200904Y150969
X203972Y150154
X205517Y152927
X215267Y152784
X218331Y153612
X218380Y150438
X215316Y149610
X226847Y158363
X228476Y155639
X230715Y157888
X229086Y160612
X247371Y159351
X249620Y157112
X252345Y158740
X250095Y160980
X260717Y153742
X263785Y152927
X262240Y150154
X259172Y150969
X273583Y149610
X273535Y152784
X276599Y153612
X276648Y150438
X286743Y155639
X285114Y158363
X287354Y160612
X288983Y157888
X287731Y193382
X285482Y195622
X288206Y197251
X290456Y195011
X278655Y203393
X277110Y200621
X274042Y201435
X275587Y204208
X264243Y204752
X261179Y203924
X261228Y200750
X264292Y201578
X252712Y195999
X250473Y193750
X248844Y196474
X251083Y198723
X232188Y195011
X229464Y193382
X227214Y195622
X229939Y197251
X220387Y203393
X218842Y200621
X215774Y201435
X217319Y204208
X206024Y201578
X202960Y200750
X202911Y203924
X205976Y204752
X192816Y198723
X194445Y195999
X192205Y193750
X190576Y196474
X173920Y195011
X171196Y193382
X168947Y195622
X171671Y197251
X162119Y203393
X160574Y200621
X157507Y201435
X159051Y204208
X147708Y204752
X147756Y201578
X144692Y200750
X144644Y203924
X134548Y198723
X136177Y195999
X133937Y193750
X132308Y196474
X115653Y195011
X113403Y197251
X110679Y195622
X112928Y193382
X103851Y203393
X102307Y200621
X99239Y201435
X100784Y204208
X89440Y204752
X86376Y203924
X86425Y200750
X89489Y201578
X77909Y195999
X75670Y193750
X74041Y196474
X76280Y198723
X84369Y229709
X85914Y232482
X88982Y231667
X87437Y228894
X98780Y228350
X98732Y231524
X101796Y232352
X101844Y229178
X111940Y234379
X110311Y237103
X112551Y239353
X114180Y236628
X130836Y238091
X133085Y235852
X135809Y237481
X133560Y239720
X144182Y232482
X147249Y231667
X145704Y228894
X142637Y229709
X157048Y228350
X160112Y229178
X160064Y232352
X156999Y231524
X168579Y237103
X170208Y234379
X172447Y236628
X170819Y239353
X189103Y238091
X191353Y235852
X194077Y237481
X191828Y239720
X202449Y232482
X200904Y229709
X203972Y228894
X205517Y231667
X215267Y231524
X215316Y228350
X218380Y229178
X218331Y232352
X226847Y237103
X228476Y234379
X230715Y236628
X229086Y239353
X247371Y238091
X249620Y235852
X252345Y237481
X250095Y239720
X260717Y232482
X263785Y231667
X262240Y228894
X259172Y229709
X273583Y228350
X273535Y231524
X276599Y232352
X276648Y229178
X286743Y234379
X285114Y237103
X287354Y239353
X288983Y236628
X287731Y272122
X285482Y274362
X288206Y275991
X290456Y273751
X278655Y282134
X275587Y282948
X274042Y280176
X277110Y279361
X264292Y280319
X264243Y283492
X261179Y282664
X261228Y279490
X252712Y274739
X250473Y272490
X248844Y275214
X251083Y277464
X232188Y273751
X229464Y272122
X227214Y274362
X229939Y275991
X220387Y282134
X217319Y282948
X215774Y280176
X218842Y279361
X206024Y280319
X205976Y283492
X202911Y282664
X202960Y279490
X194445Y274739
X192205Y272490
X190576Y275214
X192816Y277464
X173920Y273751
X171196Y272122
X168947Y274362
X171671Y275991
X162119Y282134
X159051Y282948
X157507Y280176
X160574Y279361
X147756Y280319
X147708Y283492
X144644Y282664
X144692Y279490
X136177Y274739
X133937Y272490
X132308Y275214
X134548Y277464
X115653Y273751
X112928Y272122
X110679Y274362
X113403Y275991
X103851Y282134
X100784Y282948
X99239Y280176
X102307Y279361
X89489Y280319
X89440Y283492
X86376Y282664
X86425Y279490
X77909Y274739
X75670Y272490
X74041Y275214
X76280Y277464
X75292Y239720
X72568Y238091
X74817Y235852
X77542Y237481
T02
X94404Y235826
X94017Y269569
X152284Y269569
X152672Y235826
X152284Y190829
X152672Y157086
X152284Y112089
X152672Y78346
X210939Y78346
X210552Y112089
X210939Y157086
X210552Y190829
X210939Y235826
X210552Y269569
X268820Y269569
X269207Y235826
X268820Y190829
X269207Y157086
X268820Y112089
X269207Y78346
X94404Y78346
X94017Y112089
X94404Y157086
X94017Y190829
T03
X118701Y183843
X128378Y188181
X127481Y169176
X118110Y166181
X69213Y169176
X70110Y188181
X118110Y244921
X127481Y247916
X118701Y262583
X128378Y266921
X176969Y262583
X186646Y266921
X185749Y247916
X176378Y244921
X186646Y188181
X176969Y183843
X185749Y169176
X176378Y166181
X186646Y109441
X176969Y105102
X185749Y90435
X176378Y87441
X127481Y90435
X118110Y87441
X118701Y105102
X128378Y109441
X70110Y109441
X69213Y90435
X69213Y247916
X70110Y266921
X235236Y262583
X244913Y266921
X244017Y247916
X234646Y244921
X244913Y188181
X235236Y183843
X244017Y169176
X234646Y166181
X244913Y109441
X235236Y105102
X244017Y90435
X234646Y87441
X292913Y87441
X293504Y105102
X292913Y166181
X293504Y183843
X292913Y244921
X293504Y262583
T04
X269307Y241167
X211039Y241167
X152772Y241167
X94504Y241167
X94504Y162427
X152772Y162427
X211039Y162427
X269307Y162427
X269307Y83687
X211039Y83687
X152772Y83687
X94504Y83687
M30
