G75*
%MOIN*%
%OFA0B0*%
%FSLAX25Y25*%
%IPPOS*%
%LPD*%
%AMOC8*
5,1,8,0,0,1.08239X$1,22.5*
%
%ADD10C,0.03156*%
%ADD11C,0.01710*%
%ADD12C,0.02369*%
%ADD13C,0.04000*%
D10*
X0094504Y0083687D03*
X0152772Y0083687D03*
X0211039Y0083687D03*
X0269307Y0083687D03*
X0269307Y0162427D03*
X0211039Y0162427D03*
X0152772Y0162427D03*
X0094504Y0162427D03*
X0094504Y0241167D03*
X0152772Y0241167D03*
X0211039Y0241167D03*
X0269307Y0241167D03*
D11*
X0270059Y0252017D02*
X0270249Y0252017D01*
X0270059Y0252017D02*
X0270059Y0254707D01*
X0270249Y0254707D01*
X0270249Y0252017D01*
X0270249Y0253726D02*
X0270059Y0253726D01*
X0267749Y0252017D02*
X0267559Y0252017D01*
X0267559Y0254707D01*
X0267749Y0254707D01*
X0267749Y0252017D01*
X0267749Y0253726D02*
X0267559Y0253726D01*
X0265249Y0252017D02*
X0265059Y0252017D01*
X0265059Y0254707D01*
X0265249Y0254707D01*
X0265249Y0252017D01*
X0265249Y0253726D02*
X0265059Y0253726D01*
X0262749Y0252017D02*
X0262559Y0252017D01*
X0262559Y0254707D01*
X0262749Y0254707D01*
X0262749Y0252017D01*
X0262749Y0253726D02*
X0262559Y0253726D01*
X0260249Y0252017D02*
X0260059Y0252017D01*
X0260059Y0254707D01*
X0260249Y0254707D01*
X0260249Y0252017D01*
X0260249Y0253726D02*
X0260059Y0253726D01*
X0257749Y0252017D02*
X0257559Y0252017D01*
X0257559Y0254707D01*
X0257749Y0254707D01*
X0257749Y0252017D01*
X0257749Y0253726D02*
X0257559Y0253726D01*
X0255249Y0252017D02*
X0255059Y0252017D01*
X0255059Y0254707D01*
X0255249Y0254707D01*
X0255249Y0252017D01*
X0255249Y0253726D02*
X0255059Y0253726D01*
X0252749Y0252017D02*
X0252559Y0252017D01*
X0252559Y0254707D01*
X0252749Y0254707D01*
X0252749Y0252017D01*
X0252749Y0253726D02*
X0252559Y0253726D01*
X0250249Y0252017D02*
X0250059Y0252017D01*
X0250059Y0254707D01*
X0250249Y0254707D01*
X0250249Y0252017D01*
X0250249Y0253726D02*
X0250059Y0253726D01*
X0247749Y0252017D02*
X0247559Y0252017D01*
X0247559Y0254707D01*
X0247749Y0254707D01*
X0247749Y0252017D01*
X0247749Y0253726D02*
X0247559Y0253726D01*
X0247559Y0257017D02*
X0247749Y0257017D01*
X0247559Y0257017D02*
X0247559Y0259707D01*
X0247749Y0259707D01*
X0247749Y0257017D01*
X0247749Y0258726D02*
X0247559Y0258726D01*
X0250059Y0257017D02*
X0250249Y0257017D01*
X0250059Y0257017D02*
X0250059Y0259707D01*
X0250249Y0259707D01*
X0250249Y0257017D01*
X0250249Y0258726D02*
X0250059Y0258726D01*
X0252559Y0257017D02*
X0252749Y0257017D01*
X0252559Y0257017D02*
X0252559Y0259707D01*
X0252749Y0259707D01*
X0252749Y0257017D01*
X0252749Y0258726D02*
X0252559Y0258726D01*
X0255059Y0257017D02*
X0255249Y0257017D01*
X0255059Y0257017D02*
X0255059Y0259707D01*
X0255249Y0259707D01*
X0255249Y0257017D01*
X0255249Y0258726D02*
X0255059Y0258726D01*
X0257559Y0257017D02*
X0257749Y0257017D01*
X0257559Y0257017D02*
X0257559Y0259707D01*
X0257749Y0259707D01*
X0257749Y0257017D01*
X0257749Y0258726D02*
X0257559Y0258726D01*
X0260059Y0257017D02*
X0260249Y0257017D01*
X0260059Y0257017D02*
X0260059Y0259707D01*
X0260249Y0259707D01*
X0260249Y0257017D01*
X0260249Y0258726D02*
X0260059Y0258726D01*
X0262559Y0257017D02*
X0262749Y0257017D01*
X0262559Y0257017D02*
X0262559Y0259707D01*
X0262749Y0259707D01*
X0262749Y0257017D01*
X0262749Y0258726D02*
X0262559Y0258726D01*
X0265059Y0257017D02*
X0265249Y0257017D01*
X0265059Y0257017D02*
X0265059Y0259707D01*
X0265249Y0259707D01*
X0265249Y0257017D01*
X0265249Y0258726D02*
X0265059Y0258726D01*
X0267559Y0257017D02*
X0267749Y0257017D01*
X0267559Y0257017D02*
X0267559Y0259707D01*
X0267749Y0259707D01*
X0267749Y0257017D01*
X0267749Y0258726D02*
X0267559Y0258726D01*
X0270059Y0257017D02*
X0270249Y0257017D01*
X0270059Y0257017D02*
X0270059Y0259707D01*
X0270249Y0259707D01*
X0270249Y0257017D01*
X0270249Y0258726D02*
X0270059Y0258726D01*
X0272559Y0257017D02*
X0272749Y0257017D01*
X0272559Y0257017D02*
X0272559Y0259707D01*
X0272749Y0259707D01*
X0272749Y0257017D01*
X0272749Y0258726D02*
X0272559Y0258726D01*
X0275059Y0257017D02*
X0275249Y0257017D01*
X0275059Y0257017D02*
X0275059Y0259707D01*
X0275249Y0259707D01*
X0275249Y0257017D01*
X0275249Y0258726D02*
X0275059Y0258726D01*
X0277559Y0257017D02*
X0277749Y0257017D01*
X0277559Y0257017D02*
X0277559Y0259707D01*
X0277749Y0259707D01*
X0277749Y0257017D01*
X0277749Y0258726D02*
X0277559Y0258726D01*
X0280059Y0257017D02*
X0280249Y0257017D01*
X0280059Y0257017D02*
X0280059Y0259707D01*
X0280249Y0259707D01*
X0280249Y0257017D01*
X0280249Y0258726D02*
X0280059Y0258726D01*
X0282559Y0257017D02*
X0282749Y0257017D01*
X0282559Y0257017D02*
X0282559Y0259707D01*
X0282749Y0259707D01*
X0282749Y0257017D01*
X0282749Y0258726D02*
X0282559Y0258726D01*
X0285059Y0257017D02*
X0285249Y0257017D01*
X0285059Y0257017D02*
X0285059Y0259707D01*
X0285249Y0259707D01*
X0285249Y0257017D01*
X0285249Y0258726D02*
X0285059Y0258726D01*
X0287559Y0257017D02*
X0287749Y0257017D01*
X0287559Y0257017D02*
X0287559Y0259707D01*
X0287749Y0259707D01*
X0287749Y0257017D01*
X0287749Y0258726D02*
X0287559Y0258726D01*
X0290059Y0257017D02*
X0290249Y0257017D01*
X0290059Y0257017D02*
X0290059Y0259707D01*
X0290249Y0259707D01*
X0290249Y0257017D01*
X0290249Y0258726D02*
X0290059Y0258726D01*
X0290059Y0252017D02*
X0290249Y0252017D01*
X0290059Y0252017D02*
X0290059Y0254707D01*
X0290249Y0254707D01*
X0290249Y0252017D01*
X0290249Y0253726D02*
X0290059Y0253726D01*
X0287749Y0252017D02*
X0287559Y0252017D01*
X0287559Y0254707D01*
X0287749Y0254707D01*
X0287749Y0252017D01*
X0287749Y0253726D02*
X0287559Y0253726D01*
X0285249Y0252017D02*
X0285059Y0252017D01*
X0285059Y0254707D01*
X0285249Y0254707D01*
X0285249Y0252017D01*
X0285249Y0253726D02*
X0285059Y0253726D01*
X0282749Y0252017D02*
X0282559Y0252017D01*
X0282559Y0254707D01*
X0282749Y0254707D01*
X0282749Y0252017D01*
X0282749Y0253726D02*
X0282559Y0253726D01*
X0280249Y0252017D02*
X0280059Y0252017D01*
X0280059Y0254707D01*
X0280249Y0254707D01*
X0280249Y0252017D01*
X0280249Y0253726D02*
X0280059Y0253726D01*
X0277749Y0252017D02*
X0277559Y0252017D01*
X0277559Y0254707D01*
X0277749Y0254707D01*
X0277749Y0252017D01*
X0277749Y0253726D02*
X0277559Y0253726D01*
X0275249Y0252017D02*
X0275059Y0252017D01*
X0275059Y0254707D01*
X0275249Y0254707D01*
X0275249Y0252017D01*
X0275249Y0253726D02*
X0275059Y0253726D01*
X0272749Y0252017D02*
X0272559Y0252017D01*
X0272559Y0254707D01*
X0272749Y0254707D01*
X0272749Y0252017D01*
X0272749Y0253726D02*
X0272559Y0253726D01*
X0231981Y0252017D02*
X0231791Y0252017D01*
X0231791Y0254707D01*
X0231981Y0254707D01*
X0231981Y0252017D01*
X0231981Y0253726D02*
X0231791Y0253726D01*
X0229481Y0252017D02*
X0229291Y0252017D01*
X0229291Y0254707D01*
X0229481Y0254707D01*
X0229481Y0252017D01*
X0229481Y0253726D02*
X0229291Y0253726D01*
X0226981Y0252017D02*
X0226791Y0252017D01*
X0226791Y0254707D01*
X0226981Y0254707D01*
X0226981Y0252017D01*
X0226981Y0253726D02*
X0226791Y0253726D01*
X0224481Y0252017D02*
X0224291Y0252017D01*
X0224291Y0254707D01*
X0224481Y0254707D01*
X0224481Y0252017D01*
X0224481Y0253726D02*
X0224291Y0253726D01*
X0221981Y0252017D02*
X0221791Y0252017D01*
X0221791Y0254707D01*
X0221981Y0254707D01*
X0221981Y0252017D01*
X0221981Y0253726D02*
X0221791Y0253726D01*
X0219481Y0252017D02*
X0219291Y0252017D01*
X0219291Y0254707D01*
X0219481Y0254707D01*
X0219481Y0252017D01*
X0219481Y0253726D02*
X0219291Y0253726D01*
X0216981Y0252017D02*
X0216791Y0252017D01*
X0216791Y0254707D01*
X0216981Y0254707D01*
X0216981Y0252017D01*
X0216981Y0253726D02*
X0216791Y0253726D01*
X0214481Y0252017D02*
X0214291Y0252017D01*
X0214291Y0254707D01*
X0214481Y0254707D01*
X0214481Y0252017D01*
X0214481Y0253726D02*
X0214291Y0253726D01*
X0211981Y0252017D02*
X0211791Y0252017D01*
X0211791Y0254707D01*
X0211981Y0254707D01*
X0211981Y0252017D01*
X0211981Y0253726D02*
X0211791Y0253726D01*
X0209481Y0252017D02*
X0209291Y0252017D01*
X0209291Y0254707D01*
X0209481Y0254707D01*
X0209481Y0252017D01*
X0209481Y0253726D02*
X0209291Y0253726D01*
X0206981Y0252017D02*
X0206791Y0252017D01*
X0206791Y0254707D01*
X0206981Y0254707D01*
X0206981Y0252017D01*
X0206981Y0253726D02*
X0206791Y0253726D01*
X0204481Y0252017D02*
X0204291Y0252017D01*
X0204291Y0254707D01*
X0204481Y0254707D01*
X0204481Y0252017D01*
X0204481Y0253726D02*
X0204291Y0253726D01*
X0201981Y0252017D02*
X0201791Y0252017D01*
X0201791Y0254707D01*
X0201981Y0254707D01*
X0201981Y0252017D01*
X0201981Y0253726D02*
X0201791Y0253726D01*
X0199481Y0252017D02*
X0199291Y0252017D01*
X0199291Y0254707D01*
X0199481Y0254707D01*
X0199481Y0252017D01*
X0199481Y0253726D02*
X0199291Y0253726D01*
X0196981Y0252017D02*
X0196791Y0252017D01*
X0196791Y0254707D01*
X0196981Y0254707D01*
X0196981Y0252017D01*
X0196981Y0253726D02*
X0196791Y0253726D01*
X0194481Y0252017D02*
X0194291Y0252017D01*
X0194291Y0254707D01*
X0194481Y0254707D01*
X0194481Y0252017D01*
X0194481Y0253726D02*
X0194291Y0253726D01*
X0191981Y0252017D02*
X0191791Y0252017D01*
X0191791Y0254707D01*
X0191981Y0254707D01*
X0191981Y0252017D01*
X0191981Y0253726D02*
X0191791Y0253726D01*
X0189481Y0252017D02*
X0189291Y0252017D01*
X0189291Y0254707D01*
X0189481Y0254707D01*
X0189481Y0252017D01*
X0189481Y0253726D02*
X0189291Y0253726D01*
X0189291Y0257017D02*
X0189481Y0257017D01*
X0189291Y0257017D02*
X0189291Y0259707D01*
X0189481Y0259707D01*
X0189481Y0257017D01*
X0189481Y0258726D02*
X0189291Y0258726D01*
X0191791Y0257017D02*
X0191981Y0257017D01*
X0191791Y0257017D02*
X0191791Y0259707D01*
X0191981Y0259707D01*
X0191981Y0257017D01*
X0191981Y0258726D02*
X0191791Y0258726D01*
X0194291Y0257017D02*
X0194481Y0257017D01*
X0194291Y0257017D02*
X0194291Y0259707D01*
X0194481Y0259707D01*
X0194481Y0257017D01*
X0194481Y0258726D02*
X0194291Y0258726D01*
X0196791Y0257017D02*
X0196981Y0257017D01*
X0196791Y0257017D02*
X0196791Y0259707D01*
X0196981Y0259707D01*
X0196981Y0257017D01*
X0196981Y0258726D02*
X0196791Y0258726D01*
X0199291Y0257017D02*
X0199481Y0257017D01*
X0199291Y0257017D02*
X0199291Y0259707D01*
X0199481Y0259707D01*
X0199481Y0257017D01*
X0199481Y0258726D02*
X0199291Y0258726D01*
X0201791Y0257017D02*
X0201981Y0257017D01*
X0201791Y0257017D02*
X0201791Y0259707D01*
X0201981Y0259707D01*
X0201981Y0257017D01*
X0201981Y0258726D02*
X0201791Y0258726D01*
X0204291Y0257017D02*
X0204481Y0257017D01*
X0204291Y0257017D02*
X0204291Y0259707D01*
X0204481Y0259707D01*
X0204481Y0257017D01*
X0204481Y0258726D02*
X0204291Y0258726D01*
X0206791Y0257017D02*
X0206981Y0257017D01*
X0206791Y0257017D02*
X0206791Y0259707D01*
X0206981Y0259707D01*
X0206981Y0257017D01*
X0206981Y0258726D02*
X0206791Y0258726D01*
X0209291Y0257017D02*
X0209481Y0257017D01*
X0209291Y0257017D02*
X0209291Y0259707D01*
X0209481Y0259707D01*
X0209481Y0257017D01*
X0209481Y0258726D02*
X0209291Y0258726D01*
X0211791Y0257017D02*
X0211981Y0257017D01*
X0211791Y0257017D02*
X0211791Y0259707D01*
X0211981Y0259707D01*
X0211981Y0257017D01*
X0211981Y0258726D02*
X0211791Y0258726D01*
X0214291Y0257017D02*
X0214481Y0257017D01*
X0214291Y0257017D02*
X0214291Y0259707D01*
X0214481Y0259707D01*
X0214481Y0257017D01*
X0214481Y0258726D02*
X0214291Y0258726D01*
X0216791Y0257017D02*
X0216981Y0257017D01*
X0216791Y0257017D02*
X0216791Y0259707D01*
X0216981Y0259707D01*
X0216981Y0257017D01*
X0216981Y0258726D02*
X0216791Y0258726D01*
X0219291Y0257017D02*
X0219481Y0257017D01*
X0219291Y0257017D02*
X0219291Y0259707D01*
X0219481Y0259707D01*
X0219481Y0257017D01*
X0219481Y0258726D02*
X0219291Y0258726D01*
X0221791Y0257017D02*
X0221981Y0257017D01*
X0221791Y0257017D02*
X0221791Y0259707D01*
X0221981Y0259707D01*
X0221981Y0257017D01*
X0221981Y0258726D02*
X0221791Y0258726D01*
X0224291Y0257017D02*
X0224481Y0257017D01*
X0224291Y0257017D02*
X0224291Y0259707D01*
X0224481Y0259707D01*
X0224481Y0257017D01*
X0224481Y0258726D02*
X0224291Y0258726D01*
X0226791Y0257017D02*
X0226981Y0257017D01*
X0226791Y0257017D02*
X0226791Y0259707D01*
X0226981Y0259707D01*
X0226981Y0257017D01*
X0226981Y0258726D02*
X0226791Y0258726D01*
X0229291Y0257017D02*
X0229481Y0257017D01*
X0229291Y0257017D02*
X0229291Y0259707D01*
X0229481Y0259707D01*
X0229481Y0257017D01*
X0229481Y0258726D02*
X0229291Y0258726D01*
X0231791Y0257017D02*
X0231981Y0257017D01*
X0231791Y0257017D02*
X0231791Y0259707D01*
X0231981Y0259707D01*
X0231981Y0257017D01*
X0231981Y0258726D02*
X0231791Y0258726D01*
X0173713Y0257017D02*
X0173523Y0257017D01*
X0173523Y0259707D01*
X0173713Y0259707D01*
X0173713Y0257017D01*
X0173713Y0258726D02*
X0173523Y0258726D01*
X0171213Y0257017D02*
X0171023Y0257017D01*
X0171023Y0259707D01*
X0171213Y0259707D01*
X0171213Y0257017D01*
X0171213Y0258726D02*
X0171023Y0258726D01*
X0168713Y0257017D02*
X0168523Y0257017D01*
X0168523Y0259707D01*
X0168713Y0259707D01*
X0168713Y0257017D01*
X0168713Y0258726D02*
X0168523Y0258726D01*
X0166213Y0257017D02*
X0166023Y0257017D01*
X0166023Y0259707D01*
X0166213Y0259707D01*
X0166213Y0257017D01*
X0166213Y0258726D02*
X0166023Y0258726D01*
X0163713Y0257017D02*
X0163523Y0257017D01*
X0163523Y0259707D01*
X0163713Y0259707D01*
X0163713Y0257017D01*
X0163713Y0258726D02*
X0163523Y0258726D01*
X0161213Y0257017D02*
X0161023Y0257017D01*
X0161023Y0259707D01*
X0161213Y0259707D01*
X0161213Y0257017D01*
X0161213Y0258726D02*
X0161023Y0258726D01*
X0158713Y0257017D02*
X0158523Y0257017D01*
X0158523Y0259707D01*
X0158713Y0259707D01*
X0158713Y0257017D01*
X0158713Y0258726D02*
X0158523Y0258726D01*
X0156213Y0257017D02*
X0156023Y0257017D01*
X0156023Y0259707D01*
X0156213Y0259707D01*
X0156213Y0257017D01*
X0156213Y0258726D02*
X0156023Y0258726D01*
X0153713Y0257017D02*
X0153523Y0257017D01*
X0153523Y0259707D01*
X0153713Y0259707D01*
X0153713Y0257017D01*
X0153713Y0258726D02*
X0153523Y0258726D01*
X0151213Y0257017D02*
X0151023Y0257017D01*
X0151023Y0259707D01*
X0151213Y0259707D01*
X0151213Y0257017D01*
X0151213Y0258726D02*
X0151023Y0258726D01*
X0148713Y0257017D02*
X0148523Y0257017D01*
X0148523Y0259707D01*
X0148713Y0259707D01*
X0148713Y0257017D01*
X0148713Y0258726D02*
X0148523Y0258726D01*
X0146213Y0257017D02*
X0146023Y0257017D01*
X0146023Y0259707D01*
X0146213Y0259707D01*
X0146213Y0257017D01*
X0146213Y0258726D02*
X0146023Y0258726D01*
X0143713Y0257017D02*
X0143523Y0257017D01*
X0143523Y0259707D01*
X0143713Y0259707D01*
X0143713Y0257017D01*
X0143713Y0258726D02*
X0143523Y0258726D01*
X0141213Y0257017D02*
X0141023Y0257017D01*
X0141023Y0259707D01*
X0141213Y0259707D01*
X0141213Y0257017D01*
X0141213Y0258726D02*
X0141023Y0258726D01*
X0138713Y0257017D02*
X0138523Y0257017D01*
X0138523Y0259707D01*
X0138713Y0259707D01*
X0138713Y0257017D01*
X0138713Y0258726D02*
X0138523Y0258726D01*
X0136213Y0257017D02*
X0136023Y0257017D01*
X0136023Y0259707D01*
X0136213Y0259707D01*
X0136213Y0257017D01*
X0136213Y0258726D02*
X0136023Y0258726D01*
X0133713Y0257017D02*
X0133523Y0257017D01*
X0133523Y0259707D01*
X0133713Y0259707D01*
X0133713Y0257017D01*
X0133713Y0258726D02*
X0133523Y0258726D01*
X0131213Y0257017D02*
X0131023Y0257017D01*
X0131023Y0259707D01*
X0131213Y0259707D01*
X0131213Y0257017D01*
X0131213Y0258726D02*
X0131023Y0258726D01*
X0131023Y0252017D02*
X0131213Y0252017D01*
X0131023Y0252017D02*
X0131023Y0254707D01*
X0131213Y0254707D01*
X0131213Y0252017D01*
X0131213Y0253726D02*
X0131023Y0253726D01*
X0133523Y0252017D02*
X0133713Y0252017D01*
X0133523Y0252017D02*
X0133523Y0254707D01*
X0133713Y0254707D01*
X0133713Y0252017D01*
X0133713Y0253726D02*
X0133523Y0253726D01*
X0136023Y0252017D02*
X0136213Y0252017D01*
X0136023Y0252017D02*
X0136023Y0254707D01*
X0136213Y0254707D01*
X0136213Y0252017D01*
X0136213Y0253726D02*
X0136023Y0253726D01*
X0138523Y0252017D02*
X0138713Y0252017D01*
X0138523Y0252017D02*
X0138523Y0254707D01*
X0138713Y0254707D01*
X0138713Y0252017D01*
X0138713Y0253726D02*
X0138523Y0253726D01*
X0141023Y0252017D02*
X0141213Y0252017D01*
X0141023Y0252017D02*
X0141023Y0254707D01*
X0141213Y0254707D01*
X0141213Y0252017D01*
X0141213Y0253726D02*
X0141023Y0253726D01*
X0143523Y0252017D02*
X0143713Y0252017D01*
X0143523Y0252017D02*
X0143523Y0254707D01*
X0143713Y0254707D01*
X0143713Y0252017D01*
X0143713Y0253726D02*
X0143523Y0253726D01*
X0146023Y0252017D02*
X0146213Y0252017D01*
X0146023Y0252017D02*
X0146023Y0254707D01*
X0146213Y0254707D01*
X0146213Y0252017D01*
X0146213Y0253726D02*
X0146023Y0253726D01*
X0148523Y0252017D02*
X0148713Y0252017D01*
X0148523Y0252017D02*
X0148523Y0254707D01*
X0148713Y0254707D01*
X0148713Y0252017D01*
X0148713Y0253726D02*
X0148523Y0253726D01*
X0151023Y0252017D02*
X0151213Y0252017D01*
X0151023Y0252017D02*
X0151023Y0254707D01*
X0151213Y0254707D01*
X0151213Y0252017D01*
X0151213Y0253726D02*
X0151023Y0253726D01*
X0153523Y0252017D02*
X0153713Y0252017D01*
X0153523Y0252017D02*
X0153523Y0254707D01*
X0153713Y0254707D01*
X0153713Y0252017D01*
X0153713Y0253726D02*
X0153523Y0253726D01*
X0156023Y0252017D02*
X0156213Y0252017D01*
X0156023Y0252017D02*
X0156023Y0254707D01*
X0156213Y0254707D01*
X0156213Y0252017D01*
X0156213Y0253726D02*
X0156023Y0253726D01*
X0158523Y0252017D02*
X0158713Y0252017D01*
X0158523Y0252017D02*
X0158523Y0254707D01*
X0158713Y0254707D01*
X0158713Y0252017D01*
X0158713Y0253726D02*
X0158523Y0253726D01*
X0161023Y0252017D02*
X0161213Y0252017D01*
X0161023Y0252017D02*
X0161023Y0254707D01*
X0161213Y0254707D01*
X0161213Y0252017D01*
X0161213Y0253726D02*
X0161023Y0253726D01*
X0163523Y0252017D02*
X0163713Y0252017D01*
X0163523Y0252017D02*
X0163523Y0254707D01*
X0163713Y0254707D01*
X0163713Y0252017D01*
X0163713Y0253726D02*
X0163523Y0253726D01*
X0166023Y0252017D02*
X0166213Y0252017D01*
X0166023Y0252017D02*
X0166023Y0254707D01*
X0166213Y0254707D01*
X0166213Y0252017D01*
X0166213Y0253726D02*
X0166023Y0253726D01*
X0168523Y0252017D02*
X0168713Y0252017D01*
X0168523Y0252017D02*
X0168523Y0254707D01*
X0168713Y0254707D01*
X0168713Y0252017D01*
X0168713Y0253726D02*
X0168523Y0253726D01*
X0171023Y0252017D02*
X0171213Y0252017D01*
X0171023Y0252017D02*
X0171023Y0254707D01*
X0171213Y0254707D01*
X0171213Y0252017D01*
X0171213Y0253726D02*
X0171023Y0253726D01*
X0173523Y0252017D02*
X0173713Y0252017D01*
X0173523Y0252017D02*
X0173523Y0254707D01*
X0173713Y0254707D01*
X0173713Y0252017D01*
X0173713Y0253726D02*
X0173523Y0253726D01*
X0115445Y0252017D02*
X0115255Y0252017D01*
X0115255Y0254707D01*
X0115445Y0254707D01*
X0115445Y0252017D01*
X0115445Y0253726D02*
X0115255Y0253726D01*
X0112945Y0252017D02*
X0112755Y0252017D01*
X0112755Y0254707D01*
X0112945Y0254707D01*
X0112945Y0252017D01*
X0112945Y0253726D02*
X0112755Y0253726D01*
X0110445Y0252017D02*
X0110255Y0252017D01*
X0110255Y0254707D01*
X0110445Y0254707D01*
X0110445Y0252017D01*
X0110445Y0253726D02*
X0110255Y0253726D01*
X0107945Y0252017D02*
X0107755Y0252017D01*
X0107755Y0254707D01*
X0107945Y0254707D01*
X0107945Y0252017D01*
X0107945Y0253726D02*
X0107755Y0253726D01*
X0105445Y0252017D02*
X0105255Y0252017D01*
X0105255Y0254707D01*
X0105445Y0254707D01*
X0105445Y0252017D01*
X0105445Y0253726D02*
X0105255Y0253726D01*
X0102945Y0252017D02*
X0102755Y0252017D01*
X0102755Y0254707D01*
X0102945Y0254707D01*
X0102945Y0252017D01*
X0102945Y0253726D02*
X0102755Y0253726D01*
X0100445Y0252017D02*
X0100255Y0252017D01*
X0100255Y0254707D01*
X0100445Y0254707D01*
X0100445Y0252017D01*
X0100445Y0253726D02*
X0100255Y0253726D01*
X0097945Y0252017D02*
X0097755Y0252017D01*
X0097755Y0254707D01*
X0097945Y0254707D01*
X0097945Y0252017D01*
X0097945Y0253726D02*
X0097755Y0253726D01*
X0095445Y0252017D02*
X0095255Y0252017D01*
X0095255Y0254707D01*
X0095445Y0254707D01*
X0095445Y0252017D01*
X0095445Y0253726D02*
X0095255Y0253726D01*
X0092945Y0252017D02*
X0092755Y0252017D01*
X0092755Y0254707D01*
X0092945Y0254707D01*
X0092945Y0252017D01*
X0092945Y0253726D02*
X0092755Y0253726D01*
X0090445Y0252017D02*
X0090255Y0252017D01*
X0090255Y0254707D01*
X0090445Y0254707D01*
X0090445Y0252017D01*
X0090445Y0253726D02*
X0090255Y0253726D01*
X0087945Y0252017D02*
X0087755Y0252017D01*
X0087755Y0254707D01*
X0087945Y0254707D01*
X0087945Y0252017D01*
X0087945Y0253726D02*
X0087755Y0253726D01*
X0085445Y0252017D02*
X0085255Y0252017D01*
X0085255Y0254707D01*
X0085445Y0254707D01*
X0085445Y0252017D01*
X0085445Y0253726D02*
X0085255Y0253726D01*
X0082945Y0252017D02*
X0082755Y0252017D01*
X0082755Y0254707D01*
X0082945Y0254707D01*
X0082945Y0252017D01*
X0082945Y0253726D02*
X0082755Y0253726D01*
X0080445Y0252017D02*
X0080255Y0252017D01*
X0080255Y0254707D01*
X0080445Y0254707D01*
X0080445Y0252017D01*
X0080445Y0253726D02*
X0080255Y0253726D01*
X0077945Y0252017D02*
X0077755Y0252017D01*
X0077755Y0254707D01*
X0077945Y0254707D01*
X0077945Y0252017D01*
X0077945Y0253726D02*
X0077755Y0253726D01*
X0075445Y0252017D02*
X0075255Y0252017D01*
X0075255Y0254707D01*
X0075445Y0254707D01*
X0075445Y0252017D01*
X0075445Y0253726D02*
X0075255Y0253726D01*
X0072945Y0252017D02*
X0072755Y0252017D01*
X0072755Y0254707D01*
X0072945Y0254707D01*
X0072945Y0252017D01*
X0072945Y0253726D02*
X0072755Y0253726D01*
X0072755Y0257017D02*
X0072945Y0257017D01*
X0072755Y0257017D02*
X0072755Y0259707D01*
X0072945Y0259707D01*
X0072945Y0257017D01*
X0072945Y0258726D02*
X0072755Y0258726D01*
X0075255Y0257017D02*
X0075445Y0257017D01*
X0075255Y0257017D02*
X0075255Y0259707D01*
X0075445Y0259707D01*
X0075445Y0257017D01*
X0075445Y0258726D02*
X0075255Y0258726D01*
X0077755Y0257017D02*
X0077945Y0257017D01*
X0077755Y0257017D02*
X0077755Y0259707D01*
X0077945Y0259707D01*
X0077945Y0257017D01*
X0077945Y0258726D02*
X0077755Y0258726D01*
X0080255Y0257017D02*
X0080445Y0257017D01*
X0080255Y0257017D02*
X0080255Y0259707D01*
X0080445Y0259707D01*
X0080445Y0257017D01*
X0080445Y0258726D02*
X0080255Y0258726D01*
X0082755Y0257017D02*
X0082945Y0257017D01*
X0082755Y0257017D02*
X0082755Y0259707D01*
X0082945Y0259707D01*
X0082945Y0257017D01*
X0082945Y0258726D02*
X0082755Y0258726D01*
X0085255Y0257017D02*
X0085445Y0257017D01*
X0085255Y0257017D02*
X0085255Y0259707D01*
X0085445Y0259707D01*
X0085445Y0257017D01*
X0085445Y0258726D02*
X0085255Y0258726D01*
X0087755Y0257017D02*
X0087945Y0257017D01*
X0087755Y0257017D02*
X0087755Y0259707D01*
X0087945Y0259707D01*
X0087945Y0257017D01*
X0087945Y0258726D02*
X0087755Y0258726D01*
X0090255Y0257017D02*
X0090445Y0257017D01*
X0090255Y0257017D02*
X0090255Y0259707D01*
X0090445Y0259707D01*
X0090445Y0257017D01*
X0090445Y0258726D02*
X0090255Y0258726D01*
X0092755Y0257017D02*
X0092945Y0257017D01*
X0092755Y0257017D02*
X0092755Y0259707D01*
X0092945Y0259707D01*
X0092945Y0257017D01*
X0092945Y0258726D02*
X0092755Y0258726D01*
X0095255Y0257017D02*
X0095445Y0257017D01*
X0095255Y0257017D02*
X0095255Y0259707D01*
X0095445Y0259707D01*
X0095445Y0257017D01*
X0095445Y0258726D02*
X0095255Y0258726D01*
X0097755Y0257017D02*
X0097945Y0257017D01*
X0097755Y0257017D02*
X0097755Y0259707D01*
X0097945Y0259707D01*
X0097945Y0257017D01*
X0097945Y0258726D02*
X0097755Y0258726D01*
X0100255Y0257017D02*
X0100445Y0257017D01*
X0100255Y0257017D02*
X0100255Y0259707D01*
X0100445Y0259707D01*
X0100445Y0257017D01*
X0100445Y0258726D02*
X0100255Y0258726D01*
X0102755Y0257017D02*
X0102945Y0257017D01*
X0102755Y0257017D02*
X0102755Y0259707D01*
X0102945Y0259707D01*
X0102945Y0257017D01*
X0102945Y0258726D02*
X0102755Y0258726D01*
X0105255Y0257017D02*
X0105445Y0257017D01*
X0105255Y0257017D02*
X0105255Y0259707D01*
X0105445Y0259707D01*
X0105445Y0257017D01*
X0105445Y0258726D02*
X0105255Y0258726D01*
X0107755Y0257017D02*
X0107945Y0257017D01*
X0107755Y0257017D02*
X0107755Y0259707D01*
X0107945Y0259707D01*
X0107945Y0257017D01*
X0107945Y0258726D02*
X0107755Y0258726D01*
X0110255Y0257017D02*
X0110445Y0257017D01*
X0110255Y0257017D02*
X0110255Y0259707D01*
X0110445Y0259707D01*
X0110445Y0257017D01*
X0110445Y0258726D02*
X0110255Y0258726D01*
X0112755Y0257017D02*
X0112945Y0257017D01*
X0112755Y0257017D02*
X0112755Y0259707D01*
X0112945Y0259707D01*
X0112945Y0257017D01*
X0112945Y0258726D02*
X0112755Y0258726D01*
X0115255Y0257017D02*
X0115445Y0257017D01*
X0115255Y0257017D02*
X0115255Y0259707D01*
X0115445Y0259707D01*
X0115445Y0257017D01*
X0115445Y0258726D02*
X0115255Y0258726D01*
X0115445Y0178277D02*
X0115255Y0178277D01*
X0115255Y0180967D01*
X0115445Y0180967D01*
X0115445Y0178277D01*
X0115445Y0179986D02*
X0115255Y0179986D01*
X0112945Y0178277D02*
X0112755Y0178277D01*
X0112755Y0180967D01*
X0112945Y0180967D01*
X0112945Y0178277D01*
X0112945Y0179986D02*
X0112755Y0179986D01*
X0110445Y0178277D02*
X0110255Y0178277D01*
X0110255Y0180967D01*
X0110445Y0180967D01*
X0110445Y0178277D01*
X0110445Y0179986D02*
X0110255Y0179986D01*
X0107945Y0178277D02*
X0107755Y0178277D01*
X0107755Y0180967D01*
X0107945Y0180967D01*
X0107945Y0178277D01*
X0107945Y0179986D02*
X0107755Y0179986D01*
X0105445Y0178277D02*
X0105255Y0178277D01*
X0105255Y0180967D01*
X0105445Y0180967D01*
X0105445Y0178277D01*
X0105445Y0179986D02*
X0105255Y0179986D01*
X0102945Y0178277D02*
X0102755Y0178277D01*
X0102755Y0180967D01*
X0102945Y0180967D01*
X0102945Y0178277D01*
X0102945Y0179986D02*
X0102755Y0179986D01*
X0100445Y0178277D02*
X0100255Y0178277D01*
X0100255Y0180967D01*
X0100445Y0180967D01*
X0100445Y0178277D01*
X0100445Y0179986D02*
X0100255Y0179986D01*
X0097945Y0178277D02*
X0097755Y0178277D01*
X0097755Y0180967D01*
X0097945Y0180967D01*
X0097945Y0178277D01*
X0097945Y0179986D02*
X0097755Y0179986D01*
X0095445Y0178277D02*
X0095255Y0178277D01*
X0095255Y0180967D01*
X0095445Y0180967D01*
X0095445Y0178277D01*
X0095445Y0179986D02*
X0095255Y0179986D01*
X0092945Y0178277D02*
X0092755Y0178277D01*
X0092755Y0180967D01*
X0092945Y0180967D01*
X0092945Y0178277D01*
X0092945Y0179986D02*
X0092755Y0179986D01*
X0090445Y0178277D02*
X0090255Y0178277D01*
X0090255Y0180967D01*
X0090445Y0180967D01*
X0090445Y0178277D01*
X0090445Y0179986D02*
X0090255Y0179986D01*
X0087945Y0178277D02*
X0087755Y0178277D01*
X0087755Y0180967D01*
X0087945Y0180967D01*
X0087945Y0178277D01*
X0087945Y0179986D02*
X0087755Y0179986D01*
X0085445Y0178277D02*
X0085255Y0178277D01*
X0085255Y0180967D01*
X0085445Y0180967D01*
X0085445Y0178277D01*
X0085445Y0179986D02*
X0085255Y0179986D01*
X0082945Y0178277D02*
X0082755Y0178277D01*
X0082755Y0180967D01*
X0082945Y0180967D01*
X0082945Y0178277D01*
X0082945Y0179986D02*
X0082755Y0179986D01*
X0080445Y0178277D02*
X0080255Y0178277D01*
X0080255Y0180967D01*
X0080445Y0180967D01*
X0080445Y0178277D01*
X0080445Y0179986D02*
X0080255Y0179986D01*
X0077945Y0178277D02*
X0077755Y0178277D01*
X0077755Y0180967D01*
X0077945Y0180967D01*
X0077945Y0178277D01*
X0077945Y0179986D02*
X0077755Y0179986D01*
X0075445Y0178277D02*
X0075255Y0178277D01*
X0075255Y0180967D01*
X0075445Y0180967D01*
X0075445Y0178277D01*
X0075445Y0179986D02*
X0075255Y0179986D01*
X0072945Y0178277D02*
X0072755Y0178277D01*
X0072755Y0180967D01*
X0072945Y0180967D01*
X0072945Y0178277D01*
X0072945Y0179986D02*
X0072755Y0179986D01*
X0072755Y0173277D02*
X0072945Y0173277D01*
X0072755Y0173277D02*
X0072755Y0175967D01*
X0072945Y0175967D01*
X0072945Y0173277D01*
X0072945Y0174986D02*
X0072755Y0174986D01*
X0075255Y0173277D02*
X0075445Y0173277D01*
X0075255Y0173277D02*
X0075255Y0175967D01*
X0075445Y0175967D01*
X0075445Y0173277D01*
X0075445Y0174986D02*
X0075255Y0174986D01*
X0077755Y0173277D02*
X0077945Y0173277D01*
X0077755Y0173277D02*
X0077755Y0175967D01*
X0077945Y0175967D01*
X0077945Y0173277D01*
X0077945Y0174986D02*
X0077755Y0174986D01*
X0080255Y0173277D02*
X0080445Y0173277D01*
X0080255Y0173277D02*
X0080255Y0175967D01*
X0080445Y0175967D01*
X0080445Y0173277D01*
X0080445Y0174986D02*
X0080255Y0174986D01*
X0082755Y0173277D02*
X0082945Y0173277D01*
X0082755Y0173277D02*
X0082755Y0175967D01*
X0082945Y0175967D01*
X0082945Y0173277D01*
X0082945Y0174986D02*
X0082755Y0174986D01*
X0085255Y0173277D02*
X0085445Y0173277D01*
X0085255Y0173277D02*
X0085255Y0175967D01*
X0085445Y0175967D01*
X0085445Y0173277D01*
X0085445Y0174986D02*
X0085255Y0174986D01*
X0087755Y0173277D02*
X0087945Y0173277D01*
X0087755Y0173277D02*
X0087755Y0175967D01*
X0087945Y0175967D01*
X0087945Y0173277D01*
X0087945Y0174986D02*
X0087755Y0174986D01*
X0090255Y0173277D02*
X0090445Y0173277D01*
X0090255Y0173277D02*
X0090255Y0175967D01*
X0090445Y0175967D01*
X0090445Y0173277D01*
X0090445Y0174986D02*
X0090255Y0174986D01*
X0092755Y0173277D02*
X0092945Y0173277D01*
X0092755Y0173277D02*
X0092755Y0175967D01*
X0092945Y0175967D01*
X0092945Y0173277D01*
X0092945Y0174986D02*
X0092755Y0174986D01*
X0095255Y0173277D02*
X0095445Y0173277D01*
X0095255Y0173277D02*
X0095255Y0175967D01*
X0095445Y0175967D01*
X0095445Y0173277D01*
X0095445Y0174986D02*
X0095255Y0174986D01*
X0097755Y0173277D02*
X0097945Y0173277D01*
X0097755Y0173277D02*
X0097755Y0175967D01*
X0097945Y0175967D01*
X0097945Y0173277D01*
X0097945Y0174986D02*
X0097755Y0174986D01*
X0100255Y0173277D02*
X0100445Y0173277D01*
X0100255Y0173277D02*
X0100255Y0175967D01*
X0100445Y0175967D01*
X0100445Y0173277D01*
X0100445Y0174986D02*
X0100255Y0174986D01*
X0102755Y0173277D02*
X0102945Y0173277D01*
X0102755Y0173277D02*
X0102755Y0175967D01*
X0102945Y0175967D01*
X0102945Y0173277D01*
X0102945Y0174986D02*
X0102755Y0174986D01*
X0105255Y0173277D02*
X0105445Y0173277D01*
X0105255Y0173277D02*
X0105255Y0175967D01*
X0105445Y0175967D01*
X0105445Y0173277D01*
X0105445Y0174986D02*
X0105255Y0174986D01*
X0107755Y0173277D02*
X0107945Y0173277D01*
X0107755Y0173277D02*
X0107755Y0175967D01*
X0107945Y0175967D01*
X0107945Y0173277D01*
X0107945Y0174986D02*
X0107755Y0174986D01*
X0110255Y0173277D02*
X0110445Y0173277D01*
X0110255Y0173277D02*
X0110255Y0175967D01*
X0110445Y0175967D01*
X0110445Y0173277D01*
X0110445Y0174986D02*
X0110255Y0174986D01*
X0112755Y0173277D02*
X0112945Y0173277D01*
X0112755Y0173277D02*
X0112755Y0175967D01*
X0112945Y0175967D01*
X0112945Y0173277D01*
X0112945Y0174986D02*
X0112755Y0174986D01*
X0115255Y0173277D02*
X0115445Y0173277D01*
X0115255Y0173277D02*
X0115255Y0175967D01*
X0115445Y0175967D01*
X0115445Y0173277D01*
X0115445Y0174986D02*
X0115255Y0174986D01*
X0131023Y0173277D02*
X0131213Y0173277D01*
X0131023Y0173277D02*
X0131023Y0175967D01*
X0131213Y0175967D01*
X0131213Y0173277D01*
X0131213Y0174986D02*
X0131023Y0174986D01*
X0133523Y0173277D02*
X0133713Y0173277D01*
X0133523Y0173277D02*
X0133523Y0175967D01*
X0133713Y0175967D01*
X0133713Y0173277D01*
X0133713Y0174986D02*
X0133523Y0174986D01*
X0136023Y0173277D02*
X0136213Y0173277D01*
X0136023Y0173277D02*
X0136023Y0175967D01*
X0136213Y0175967D01*
X0136213Y0173277D01*
X0136213Y0174986D02*
X0136023Y0174986D01*
X0138523Y0173277D02*
X0138713Y0173277D01*
X0138523Y0173277D02*
X0138523Y0175967D01*
X0138713Y0175967D01*
X0138713Y0173277D01*
X0138713Y0174986D02*
X0138523Y0174986D01*
X0141023Y0173277D02*
X0141213Y0173277D01*
X0141023Y0173277D02*
X0141023Y0175967D01*
X0141213Y0175967D01*
X0141213Y0173277D01*
X0141213Y0174986D02*
X0141023Y0174986D01*
X0143523Y0173277D02*
X0143713Y0173277D01*
X0143523Y0173277D02*
X0143523Y0175967D01*
X0143713Y0175967D01*
X0143713Y0173277D01*
X0143713Y0174986D02*
X0143523Y0174986D01*
X0146023Y0173277D02*
X0146213Y0173277D01*
X0146023Y0173277D02*
X0146023Y0175967D01*
X0146213Y0175967D01*
X0146213Y0173277D01*
X0146213Y0174986D02*
X0146023Y0174986D01*
X0148523Y0173277D02*
X0148713Y0173277D01*
X0148523Y0173277D02*
X0148523Y0175967D01*
X0148713Y0175967D01*
X0148713Y0173277D01*
X0148713Y0174986D02*
X0148523Y0174986D01*
X0151023Y0173277D02*
X0151213Y0173277D01*
X0151023Y0173277D02*
X0151023Y0175967D01*
X0151213Y0175967D01*
X0151213Y0173277D01*
X0151213Y0174986D02*
X0151023Y0174986D01*
X0153523Y0173277D02*
X0153713Y0173277D01*
X0153523Y0173277D02*
X0153523Y0175967D01*
X0153713Y0175967D01*
X0153713Y0173277D01*
X0153713Y0174986D02*
X0153523Y0174986D01*
X0156023Y0173277D02*
X0156213Y0173277D01*
X0156023Y0173277D02*
X0156023Y0175967D01*
X0156213Y0175967D01*
X0156213Y0173277D01*
X0156213Y0174986D02*
X0156023Y0174986D01*
X0158523Y0173277D02*
X0158713Y0173277D01*
X0158523Y0173277D02*
X0158523Y0175967D01*
X0158713Y0175967D01*
X0158713Y0173277D01*
X0158713Y0174986D02*
X0158523Y0174986D01*
X0161023Y0173277D02*
X0161213Y0173277D01*
X0161023Y0173277D02*
X0161023Y0175967D01*
X0161213Y0175967D01*
X0161213Y0173277D01*
X0161213Y0174986D02*
X0161023Y0174986D01*
X0163523Y0173277D02*
X0163713Y0173277D01*
X0163523Y0173277D02*
X0163523Y0175967D01*
X0163713Y0175967D01*
X0163713Y0173277D01*
X0163713Y0174986D02*
X0163523Y0174986D01*
X0166023Y0173277D02*
X0166213Y0173277D01*
X0166023Y0173277D02*
X0166023Y0175967D01*
X0166213Y0175967D01*
X0166213Y0173277D01*
X0166213Y0174986D02*
X0166023Y0174986D01*
X0168523Y0173277D02*
X0168713Y0173277D01*
X0168523Y0173277D02*
X0168523Y0175967D01*
X0168713Y0175967D01*
X0168713Y0173277D01*
X0168713Y0174986D02*
X0168523Y0174986D01*
X0171023Y0173277D02*
X0171213Y0173277D01*
X0171023Y0173277D02*
X0171023Y0175967D01*
X0171213Y0175967D01*
X0171213Y0173277D01*
X0171213Y0174986D02*
X0171023Y0174986D01*
X0173523Y0173277D02*
X0173713Y0173277D01*
X0173523Y0173277D02*
X0173523Y0175967D01*
X0173713Y0175967D01*
X0173713Y0173277D01*
X0173713Y0174986D02*
X0173523Y0174986D01*
X0173523Y0178277D02*
X0173713Y0178277D01*
X0173523Y0178277D02*
X0173523Y0180967D01*
X0173713Y0180967D01*
X0173713Y0178277D01*
X0173713Y0179986D02*
X0173523Y0179986D01*
X0171213Y0178277D02*
X0171023Y0178277D01*
X0171023Y0180967D01*
X0171213Y0180967D01*
X0171213Y0178277D01*
X0171213Y0179986D02*
X0171023Y0179986D01*
X0168713Y0178277D02*
X0168523Y0178277D01*
X0168523Y0180967D01*
X0168713Y0180967D01*
X0168713Y0178277D01*
X0168713Y0179986D02*
X0168523Y0179986D01*
X0166213Y0178277D02*
X0166023Y0178277D01*
X0166023Y0180967D01*
X0166213Y0180967D01*
X0166213Y0178277D01*
X0166213Y0179986D02*
X0166023Y0179986D01*
X0163713Y0178277D02*
X0163523Y0178277D01*
X0163523Y0180967D01*
X0163713Y0180967D01*
X0163713Y0178277D01*
X0163713Y0179986D02*
X0163523Y0179986D01*
X0161213Y0178277D02*
X0161023Y0178277D01*
X0161023Y0180967D01*
X0161213Y0180967D01*
X0161213Y0178277D01*
X0161213Y0179986D02*
X0161023Y0179986D01*
X0158713Y0178277D02*
X0158523Y0178277D01*
X0158523Y0180967D01*
X0158713Y0180967D01*
X0158713Y0178277D01*
X0158713Y0179986D02*
X0158523Y0179986D01*
X0156213Y0178277D02*
X0156023Y0178277D01*
X0156023Y0180967D01*
X0156213Y0180967D01*
X0156213Y0178277D01*
X0156213Y0179986D02*
X0156023Y0179986D01*
X0153713Y0178277D02*
X0153523Y0178277D01*
X0153523Y0180967D01*
X0153713Y0180967D01*
X0153713Y0178277D01*
X0153713Y0179986D02*
X0153523Y0179986D01*
X0151213Y0178277D02*
X0151023Y0178277D01*
X0151023Y0180967D01*
X0151213Y0180967D01*
X0151213Y0178277D01*
X0151213Y0179986D02*
X0151023Y0179986D01*
X0148713Y0178277D02*
X0148523Y0178277D01*
X0148523Y0180967D01*
X0148713Y0180967D01*
X0148713Y0178277D01*
X0148713Y0179986D02*
X0148523Y0179986D01*
X0146213Y0178277D02*
X0146023Y0178277D01*
X0146023Y0180967D01*
X0146213Y0180967D01*
X0146213Y0178277D01*
X0146213Y0179986D02*
X0146023Y0179986D01*
X0143713Y0178277D02*
X0143523Y0178277D01*
X0143523Y0180967D01*
X0143713Y0180967D01*
X0143713Y0178277D01*
X0143713Y0179986D02*
X0143523Y0179986D01*
X0141213Y0178277D02*
X0141023Y0178277D01*
X0141023Y0180967D01*
X0141213Y0180967D01*
X0141213Y0178277D01*
X0141213Y0179986D02*
X0141023Y0179986D01*
X0138713Y0178277D02*
X0138523Y0178277D01*
X0138523Y0180967D01*
X0138713Y0180967D01*
X0138713Y0178277D01*
X0138713Y0179986D02*
X0138523Y0179986D01*
X0136213Y0178277D02*
X0136023Y0178277D01*
X0136023Y0180967D01*
X0136213Y0180967D01*
X0136213Y0178277D01*
X0136213Y0179986D02*
X0136023Y0179986D01*
X0133713Y0178277D02*
X0133523Y0178277D01*
X0133523Y0180967D01*
X0133713Y0180967D01*
X0133713Y0178277D01*
X0133713Y0179986D02*
X0133523Y0179986D01*
X0131213Y0178277D02*
X0131023Y0178277D01*
X0131023Y0180967D01*
X0131213Y0180967D01*
X0131213Y0178277D01*
X0131213Y0179986D02*
X0131023Y0179986D01*
X0189291Y0178277D02*
X0189481Y0178277D01*
X0189291Y0178277D02*
X0189291Y0180967D01*
X0189481Y0180967D01*
X0189481Y0178277D01*
X0189481Y0179986D02*
X0189291Y0179986D01*
X0191791Y0178277D02*
X0191981Y0178277D01*
X0191791Y0178277D02*
X0191791Y0180967D01*
X0191981Y0180967D01*
X0191981Y0178277D01*
X0191981Y0179986D02*
X0191791Y0179986D01*
X0194291Y0178277D02*
X0194481Y0178277D01*
X0194291Y0178277D02*
X0194291Y0180967D01*
X0194481Y0180967D01*
X0194481Y0178277D01*
X0194481Y0179986D02*
X0194291Y0179986D01*
X0196791Y0178277D02*
X0196981Y0178277D01*
X0196791Y0178277D02*
X0196791Y0180967D01*
X0196981Y0180967D01*
X0196981Y0178277D01*
X0196981Y0179986D02*
X0196791Y0179986D01*
X0199291Y0178277D02*
X0199481Y0178277D01*
X0199291Y0178277D02*
X0199291Y0180967D01*
X0199481Y0180967D01*
X0199481Y0178277D01*
X0199481Y0179986D02*
X0199291Y0179986D01*
X0201791Y0178277D02*
X0201981Y0178277D01*
X0201791Y0178277D02*
X0201791Y0180967D01*
X0201981Y0180967D01*
X0201981Y0178277D01*
X0201981Y0179986D02*
X0201791Y0179986D01*
X0204291Y0178277D02*
X0204481Y0178277D01*
X0204291Y0178277D02*
X0204291Y0180967D01*
X0204481Y0180967D01*
X0204481Y0178277D01*
X0204481Y0179986D02*
X0204291Y0179986D01*
X0206791Y0178277D02*
X0206981Y0178277D01*
X0206791Y0178277D02*
X0206791Y0180967D01*
X0206981Y0180967D01*
X0206981Y0178277D01*
X0206981Y0179986D02*
X0206791Y0179986D01*
X0209291Y0178277D02*
X0209481Y0178277D01*
X0209291Y0178277D02*
X0209291Y0180967D01*
X0209481Y0180967D01*
X0209481Y0178277D01*
X0209481Y0179986D02*
X0209291Y0179986D01*
X0211791Y0178277D02*
X0211981Y0178277D01*
X0211791Y0178277D02*
X0211791Y0180967D01*
X0211981Y0180967D01*
X0211981Y0178277D01*
X0211981Y0179986D02*
X0211791Y0179986D01*
X0214291Y0178277D02*
X0214481Y0178277D01*
X0214291Y0178277D02*
X0214291Y0180967D01*
X0214481Y0180967D01*
X0214481Y0178277D01*
X0214481Y0179986D02*
X0214291Y0179986D01*
X0216791Y0178277D02*
X0216981Y0178277D01*
X0216791Y0178277D02*
X0216791Y0180967D01*
X0216981Y0180967D01*
X0216981Y0178277D01*
X0216981Y0179986D02*
X0216791Y0179986D01*
X0219291Y0178277D02*
X0219481Y0178277D01*
X0219291Y0178277D02*
X0219291Y0180967D01*
X0219481Y0180967D01*
X0219481Y0178277D01*
X0219481Y0179986D02*
X0219291Y0179986D01*
X0221791Y0178277D02*
X0221981Y0178277D01*
X0221791Y0178277D02*
X0221791Y0180967D01*
X0221981Y0180967D01*
X0221981Y0178277D01*
X0221981Y0179986D02*
X0221791Y0179986D01*
X0224291Y0178277D02*
X0224481Y0178277D01*
X0224291Y0178277D02*
X0224291Y0180967D01*
X0224481Y0180967D01*
X0224481Y0178277D01*
X0224481Y0179986D02*
X0224291Y0179986D01*
X0226791Y0178277D02*
X0226981Y0178277D01*
X0226791Y0178277D02*
X0226791Y0180967D01*
X0226981Y0180967D01*
X0226981Y0178277D01*
X0226981Y0179986D02*
X0226791Y0179986D01*
X0229291Y0178277D02*
X0229481Y0178277D01*
X0229291Y0178277D02*
X0229291Y0180967D01*
X0229481Y0180967D01*
X0229481Y0178277D01*
X0229481Y0179986D02*
X0229291Y0179986D01*
X0231791Y0178277D02*
X0231981Y0178277D01*
X0231791Y0178277D02*
X0231791Y0180967D01*
X0231981Y0180967D01*
X0231981Y0178277D01*
X0231981Y0179986D02*
X0231791Y0179986D01*
X0231791Y0173277D02*
X0231981Y0173277D01*
X0231791Y0173277D02*
X0231791Y0175967D01*
X0231981Y0175967D01*
X0231981Y0173277D01*
X0231981Y0174986D02*
X0231791Y0174986D01*
X0229481Y0173277D02*
X0229291Y0173277D01*
X0229291Y0175967D01*
X0229481Y0175967D01*
X0229481Y0173277D01*
X0229481Y0174986D02*
X0229291Y0174986D01*
X0226981Y0173277D02*
X0226791Y0173277D01*
X0226791Y0175967D01*
X0226981Y0175967D01*
X0226981Y0173277D01*
X0226981Y0174986D02*
X0226791Y0174986D01*
X0224481Y0173277D02*
X0224291Y0173277D01*
X0224291Y0175967D01*
X0224481Y0175967D01*
X0224481Y0173277D01*
X0224481Y0174986D02*
X0224291Y0174986D01*
X0221981Y0173277D02*
X0221791Y0173277D01*
X0221791Y0175967D01*
X0221981Y0175967D01*
X0221981Y0173277D01*
X0221981Y0174986D02*
X0221791Y0174986D01*
X0219481Y0173277D02*
X0219291Y0173277D01*
X0219291Y0175967D01*
X0219481Y0175967D01*
X0219481Y0173277D01*
X0219481Y0174986D02*
X0219291Y0174986D01*
X0216981Y0173277D02*
X0216791Y0173277D01*
X0216791Y0175967D01*
X0216981Y0175967D01*
X0216981Y0173277D01*
X0216981Y0174986D02*
X0216791Y0174986D01*
X0214481Y0173277D02*
X0214291Y0173277D01*
X0214291Y0175967D01*
X0214481Y0175967D01*
X0214481Y0173277D01*
X0214481Y0174986D02*
X0214291Y0174986D01*
X0211981Y0173277D02*
X0211791Y0173277D01*
X0211791Y0175967D01*
X0211981Y0175967D01*
X0211981Y0173277D01*
X0211981Y0174986D02*
X0211791Y0174986D01*
X0209481Y0173277D02*
X0209291Y0173277D01*
X0209291Y0175967D01*
X0209481Y0175967D01*
X0209481Y0173277D01*
X0209481Y0174986D02*
X0209291Y0174986D01*
X0206981Y0173277D02*
X0206791Y0173277D01*
X0206791Y0175967D01*
X0206981Y0175967D01*
X0206981Y0173277D01*
X0206981Y0174986D02*
X0206791Y0174986D01*
X0204481Y0173277D02*
X0204291Y0173277D01*
X0204291Y0175967D01*
X0204481Y0175967D01*
X0204481Y0173277D01*
X0204481Y0174986D02*
X0204291Y0174986D01*
X0201981Y0173277D02*
X0201791Y0173277D01*
X0201791Y0175967D01*
X0201981Y0175967D01*
X0201981Y0173277D01*
X0201981Y0174986D02*
X0201791Y0174986D01*
X0199481Y0173277D02*
X0199291Y0173277D01*
X0199291Y0175967D01*
X0199481Y0175967D01*
X0199481Y0173277D01*
X0199481Y0174986D02*
X0199291Y0174986D01*
X0196981Y0173277D02*
X0196791Y0173277D01*
X0196791Y0175967D01*
X0196981Y0175967D01*
X0196981Y0173277D01*
X0196981Y0174986D02*
X0196791Y0174986D01*
X0194481Y0173277D02*
X0194291Y0173277D01*
X0194291Y0175967D01*
X0194481Y0175967D01*
X0194481Y0173277D01*
X0194481Y0174986D02*
X0194291Y0174986D01*
X0191981Y0173277D02*
X0191791Y0173277D01*
X0191791Y0175967D01*
X0191981Y0175967D01*
X0191981Y0173277D01*
X0191981Y0174986D02*
X0191791Y0174986D01*
X0189481Y0173277D02*
X0189291Y0173277D01*
X0189291Y0175967D01*
X0189481Y0175967D01*
X0189481Y0173277D01*
X0189481Y0174986D02*
X0189291Y0174986D01*
X0247559Y0173277D02*
X0247749Y0173277D01*
X0247559Y0173277D02*
X0247559Y0175967D01*
X0247749Y0175967D01*
X0247749Y0173277D01*
X0247749Y0174986D02*
X0247559Y0174986D01*
X0250059Y0173277D02*
X0250249Y0173277D01*
X0250059Y0173277D02*
X0250059Y0175967D01*
X0250249Y0175967D01*
X0250249Y0173277D01*
X0250249Y0174986D02*
X0250059Y0174986D01*
X0252559Y0173277D02*
X0252749Y0173277D01*
X0252559Y0173277D02*
X0252559Y0175967D01*
X0252749Y0175967D01*
X0252749Y0173277D01*
X0252749Y0174986D02*
X0252559Y0174986D01*
X0255059Y0173277D02*
X0255249Y0173277D01*
X0255059Y0173277D02*
X0255059Y0175967D01*
X0255249Y0175967D01*
X0255249Y0173277D01*
X0255249Y0174986D02*
X0255059Y0174986D01*
X0257559Y0173277D02*
X0257749Y0173277D01*
X0257559Y0173277D02*
X0257559Y0175967D01*
X0257749Y0175967D01*
X0257749Y0173277D01*
X0257749Y0174986D02*
X0257559Y0174986D01*
X0260059Y0173277D02*
X0260249Y0173277D01*
X0260059Y0173277D02*
X0260059Y0175967D01*
X0260249Y0175967D01*
X0260249Y0173277D01*
X0260249Y0174986D02*
X0260059Y0174986D01*
X0262559Y0173277D02*
X0262749Y0173277D01*
X0262559Y0173277D02*
X0262559Y0175967D01*
X0262749Y0175967D01*
X0262749Y0173277D01*
X0262749Y0174986D02*
X0262559Y0174986D01*
X0265059Y0173277D02*
X0265249Y0173277D01*
X0265059Y0173277D02*
X0265059Y0175967D01*
X0265249Y0175967D01*
X0265249Y0173277D01*
X0265249Y0174986D02*
X0265059Y0174986D01*
X0267559Y0173277D02*
X0267749Y0173277D01*
X0267559Y0173277D02*
X0267559Y0175967D01*
X0267749Y0175967D01*
X0267749Y0173277D01*
X0267749Y0174986D02*
X0267559Y0174986D01*
X0270059Y0173277D02*
X0270249Y0173277D01*
X0270059Y0173277D02*
X0270059Y0175967D01*
X0270249Y0175967D01*
X0270249Y0173277D01*
X0270249Y0174986D02*
X0270059Y0174986D01*
X0272559Y0173277D02*
X0272749Y0173277D01*
X0272559Y0173277D02*
X0272559Y0175967D01*
X0272749Y0175967D01*
X0272749Y0173277D01*
X0272749Y0174986D02*
X0272559Y0174986D01*
X0275059Y0173277D02*
X0275249Y0173277D01*
X0275059Y0173277D02*
X0275059Y0175967D01*
X0275249Y0175967D01*
X0275249Y0173277D01*
X0275249Y0174986D02*
X0275059Y0174986D01*
X0277559Y0173277D02*
X0277749Y0173277D01*
X0277559Y0173277D02*
X0277559Y0175967D01*
X0277749Y0175967D01*
X0277749Y0173277D01*
X0277749Y0174986D02*
X0277559Y0174986D01*
X0280059Y0173277D02*
X0280249Y0173277D01*
X0280059Y0173277D02*
X0280059Y0175967D01*
X0280249Y0175967D01*
X0280249Y0173277D01*
X0280249Y0174986D02*
X0280059Y0174986D01*
X0282559Y0173277D02*
X0282749Y0173277D01*
X0282559Y0173277D02*
X0282559Y0175967D01*
X0282749Y0175967D01*
X0282749Y0173277D01*
X0282749Y0174986D02*
X0282559Y0174986D01*
X0285059Y0173277D02*
X0285249Y0173277D01*
X0285059Y0173277D02*
X0285059Y0175967D01*
X0285249Y0175967D01*
X0285249Y0173277D01*
X0285249Y0174986D02*
X0285059Y0174986D01*
X0287559Y0173277D02*
X0287749Y0173277D01*
X0287559Y0173277D02*
X0287559Y0175967D01*
X0287749Y0175967D01*
X0287749Y0173277D01*
X0287749Y0174986D02*
X0287559Y0174986D01*
X0290059Y0173277D02*
X0290249Y0173277D01*
X0290059Y0173277D02*
X0290059Y0175967D01*
X0290249Y0175967D01*
X0290249Y0173277D01*
X0290249Y0174986D02*
X0290059Y0174986D01*
X0290059Y0178277D02*
X0290249Y0178277D01*
X0290059Y0178277D02*
X0290059Y0180967D01*
X0290249Y0180967D01*
X0290249Y0178277D01*
X0290249Y0179986D02*
X0290059Y0179986D01*
X0287749Y0178277D02*
X0287559Y0178277D01*
X0287559Y0180967D01*
X0287749Y0180967D01*
X0287749Y0178277D01*
X0287749Y0179986D02*
X0287559Y0179986D01*
X0285249Y0178277D02*
X0285059Y0178277D01*
X0285059Y0180967D01*
X0285249Y0180967D01*
X0285249Y0178277D01*
X0285249Y0179986D02*
X0285059Y0179986D01*
X0282749Y0178277D02*
X0282559Y0178277D01*
X0282559Y0180967D01*
X0282749Y0180967D01*
X0282749Y0178277D01*
X0282749Y0179986D02*
X0282559Y0179986D01*
X0280249Y0178277D02*
X0280059Y0178277D01*
X0280059Y0180967D01*
X0280249Y0180967D01*
X0280249Y0178277D01*
X0280249Y0179986D02*
X0280059Y0179986D01*
X0277749Y0178277D02*
X0277559Y0178277D01*
X0277559Y0180967D01*
X0277749Y0180967D01*
X0277749Y0178277D01*
X0277749Y0179986D02*
X0277559Y0179986D01*
X0275249Y0178277D02*
X0275059Y0178277D01*
X0275059Y0180967D01*
X0275249Y0180967D01*
X0275249Y0178277D01*
X0275249Y0179986D02*
X0275059Y0179986D01*
X0272749Y0178277D02*
X0272559Y0178277D01*
X0272559Y0180967D01*
X0272749Y0180967D01*
X0272749Y0178277D01*
X0272749Y0179986D02*
X0272559Y0179986D01*
X0270249Y0178277D02*
X0270059Y0178277D01*
X0270059Y0180967D01*
X0270249Y0180967D01*
X0270249Y0178277D01*
X0270249Y0179986D02*
X0270059Y0179986D01*
X0267749Y0178277D02*
X0267559Y0178277D01*
X0267559Y0180967D01*
X0267749Y0180967D01*
X0267749Y0178277D01*
X0267749Y0179986D02*
X0267559Y0179986D01*
X0265249Y0178277D02*
X0265059Y0178277D01*
X0265059Y0180967D01*
X0265249Y0180967D01*
X0265249Y0178277D01*
X0265249Y0179986D02*
X0265059Y0179986D01*
X0262749Y0178277D02*
X0262559Y0178277D01*
X0262559Y0180967D01*
X0262749Y0180967D01*
X0262749Y0178277D01*
X0262749Y0179986D02*
X0262559Y0179986D01*
X0260249Y0178277D02*
X0260059Y0178277D01*
X0260059Y0180967D01*
X0260249Y0180967D01*
X0260249Y0178277D01*
X0260249Y0179986D02*
X0260059Y0179986D01*
X0257749Y0178277D02*
X0257559Y0178277D01*
X0257559Y0180967D01*
X0257749Y0180967D01*
X0257749Y0178277D01*
X0257749Y0179986D02*
X0257559Y0179986D01*
X0255249Y0178277D02*
X0255059Y0178277D01*
X0255059Y0180967D01*
X0255249Y0180967D01*
X0255249Y0178277D01*
X0255249Y0179986D02*
X0255059Y0179986D01*
X0252749Y0178277D02*
X0252559Y0178277D01*
X0252559Y0180967D01*
X0252749Y0180967D01*
X0252749Y0178277D01*
X0252749Y0179986D02*
X0252559Y0179986D01*
X0250249Y0178277D02*
X0250059Y0178277D01*
X0250059Y0180967D01*
X0250249Y0180967D01*
X0250249Y0178277D01*
X0250249Y0179986D02*
X0250059Y0179986D01*
X0247749Y0178277D02*
X0247559Y0178277D01*
X0247559Y0180967D01*
X0247749Y0180967D01*
X0247749Y0178277D01*
X0247749Y0179986D02*
X0247559Y0179986D01*
X0247749Y0099537D02*
X0247559Y0099537D01*
X0247559Y0102227D01*
X0247749Y0102227D01*
X0247749Y0099537D01*
X0247749Y0101246D02*
X0247559Y0101246D01*
X0250059Y0099537D02*
X0250249Y0099537D01*
X0250059Y0099537D02*
X0250059Y0102227D01*
X0250249Y0102227D01*
X0250249Y0099537D01*
X0250249Y0101246D02*
X0250059Y0101246D01*
X0252559Y0099537D02*
X0252749Y0099537D01*
X0252559Y0099537D02*
X0252559Y0102227D01*
X0252749Y0102227D01*
X0252749Y0099537D01*
X0252749Y0101246D02*
X0252559Y0101246D01*
X0255059Y0099537D02*
X0255249Y0099537D01*
X0255059Y0099537D02*
X0255059Y0102227D01*
X0255249Y0102227D01*
X0255249Y0099537D01*
X0255249Y0101246D02*
X0255059Y0101246D01*
X0257559Y0099537D02*
X0257749Y0099537D01*
X0257559Y0099537D02*
X0257559Y0102227D01*
X0257749Y0102227D01*
X0257749Y0099537D01*
X0257749Y0101246D02*
X0257559Y0101246D01*
X0260059Y0099537D02*
X0260249Y0099537D01*
X0260059Y0099537D02*
X0260059Y0102227D01*
X0260249Y0102227D01*
X0260249Y0099537D01*
X0260249Y0101246D02*
X0260059Y0101246D01*
X0262559Y0099537D02*
X0262749Y0099537D01*
X0262559Y0099537D02*
X0262559Y0102227D01*
X0262749Y0102227D01*
X0262749Y0099537D01*
X0262749Y0101246D02*
X0262559Y0101246D01*
X0265059Y0099537D02*
X0265249Y0099537D01*
X0265059Y0099537D02*
X0265059Y0102227D01*
X0265249Y0102227D01*
X0265249Y0099537D01*
X0265249Y0101246D02*
X0265059Y0101246D01*
X0267559Y0099537D02*
X0267749Y0099537D01*
X0267559Y0099537D02*
X0267559Y0102227D01*
X0267749Y0102227D01*
X0267749Y0099537D01*
X0267749Y0101246D02*
X0267559Y0101246D01*
X0270059Y0099537D02*
X0270249Y0099537D01*
X0270059Y0099537D02*
X0270059Y0102227D01*
X0270249Y0102227D01*
X0270249Y0099537D01*
X0270249Y0101246D02*
X0270059Y0101246D01*
X0272559Y0099537D02*
X0272749Y0099537D01*
X0272559Y0099537D02*
X0272559Y0102227D01*
X0272749Y0102227D01*
X0272749Y0099537D01*
X0272749Y0101246D02*
X0272559Y0101246D01*
X0275059Y0099537D02*
X0275249Y0099537D01*
X0275059Y0099537D02*
X0275059Y0102227D01*
X0275249Y0102227D01*
X0275249Y0099537D01*
X0275249Y0101246D02*
X0275059Y0101246D01*
X0277559Y0099537D02*
X0277749Y0099537D01*
X0277559Y0099537D02*
X0277559Y0102227D01*
X0277749Y0102227D01*
X0277749Y0099537D01*
X0277749Y0101246D02*
X0277559Y0101246D01*
X0280059Y0099537D02*
X0280249Y0099537D01*
X0280059Y0099537D02*
X0280059Y0102227D01*
X0280249Y0102227D01*
X0280249Y0099537D01*
X0280249Y0101246D02*
X0280059Y0101246D01*
X0282559Y0099537D02*
X0282749Y0099537D01*
X0282559Y0099537D02*
X0282559Y0102227D01*
X0282749Y0102227D01*
X0282749Y0099537D01*
X0282749Y0101246D02*
X0282559Y0101246D01*
X0285059Y0099537D02*
X0285249Y0099537D01*
X0285059Y0099537D02*
X0285059Y0102227D01*
X0285249Y0102227D01*
X0285249Y0099537D01*
X0285249Y0101246D02*
X0285059Y0101246D01*
X0287559Y0099537D02*
X0287749Y0099537D01*
X0287559Y0099537D02*
X0287559Y0102227D01*
X0287749Y0102227D01*
X0287749Y0099537D01*
X0287749Y0101246D02*
X0287559Y0101246D01*
X0290059Y0099537D02*
X0290249Y0099537D01*
X0290059Y0099537D02*
X0290059Y0102227D01*
X0290249Y0102227D01*
X0290249Y0099537D01*
X0290249Y0101246D02*
X0290059Y0101246D01*
X0290059Y0094537D02*
X0290249Y0094537D01*
X0290059Y0094537D02*
X0290059Y0097227D01*
X0290249Y0097227D01*
X0290249Y0094537D01*
X0290249Y0096246D02*
X0290059Y0096246D01*
X0287749Y0094537D02*
X0287559Y0094537D01*
X0287559Y0097227D01*
X0287749Y0097227D01*
X0287749Y0094537D01*
X0287749Y0096246D02*
X0287559Y0096246D01*
X0285249Y0094537D02*
X0285059Y0094537D01*
X0285059Y0097227D01*
X0285249Y0097227D01*
X0285249Y0094537D01*
X0285249Y0096246D02*
X0285059Y0096246D01*
X0282749Y0094537D02*
X0282559Y0094537D01*
X0282559Y0097227D01*
X0282749Y0097227D01*
X0282749Y0094537D01*
X0282749Y0096246D02*
X0282559Y0096246D01*
X0280249Y0094537D02*
X0280059Y0094537D01*
X0280059Y0097227D01*
X0280249Y0097227D01*
X0280249Y0094537D01*
X0280249Y0096246D02*
X0280059Y0096246D01*
X0277749Y0094537D02*
X0277559Y0094537D01*
X0277559Y0097227D01*
X0277749Y0097227D01*
X0277749Y0094537D01*
X0277749Y0096246D02*
X0277559Y0096246D01*
X0275249Y0094537D02*
X0275059Y0094537D01*
X0275059Y0097227D01*
X0275249Y0097227D01*
X0275249Y0094537D01*
X0275249Y0096246D02*
X0275059Y0096246D01*
X0272749Y0094537D02*
X0272559Y0094537D01*
X0272559Y0097227D01*
X0272749Y0097227D01*
X0272749Y0094537D01*
X0272749Y0096246D02*
X0272559Y0096246D01*
X0270249Y0094537D02*
X0270059Y0094537D01*
X0270059Y0097227D01*
X0270249Y0097227D01*
X0270249Y0094537D01*
X0270249Y0096246D02*
X0270059Y0096246D01*
X0267749Y0094537D02*
X0267559Y0094537D01*
X0267559Y0097227D01*
X0267749Y0097227D01*
X0267749Y0094537D01*
X0267749Y0096246D02*
X0267559Y0096246D01*
X0265249Y0094537D02*
X0265059Y0094537D01*
X0265059Y0097227D01*
X0265249Y0097227D01*
X0265249Y0094537D01*
X0265249Y0096246D02*
X0265059Y0096246D01*
X0262749Y0094537D02*
X0262559Y0094537D01*
X0262559Y0097227D01*
X0262749Y0097227D01*
X0262749Y0094537D01*
X0262749Y0096246D02*
X0262559Y0096246D01*
X0260249Y0094537D02*
X0260059Y0094537D01*
X0260059Y0097227D01*
X0260249Y0097227D01*
X0260249Y0094537D01*
X0260249Y0096246D02*
X0260059Y0096246D01*
X0257749Y0094537D02*
X0257559Y0094537D01*
X0257559Y0097227D01*
X0257749Y0097227D01*
X0257749Y0094537D01*
X0257749Y0096246D02*
X0257559Y0096246D01*
X0255249Y0094537D02*
X0255059Y0094537D01*
X0255059Y0097227D01*
X0255249Y0097227D01*
X0255249Y0094537D01*
X0255249Y0096246D02*
X0255059Y0096246D01*
X0252749Y0094537D02*
X0252559Y0094537D01*
X0252559Y0097227D01*
X0252749Y0097227D01*
X0252749Y0094537D01*
X0252749Y0096246D02*
X0252559Y0096246D01*
X0250249Y0094537D02*
X0250059Y0094537D01*
X0250059Y0097227D01*
X0250249Y0097227D01*
X0250249Y0094537D01*
X0250249Y0096246D02*
X0250059Y0096246D01*
X0247749Y0094537D02*
X0247559Y0094537D01*
X0247559Y0097227D01*
X0247749Y0097227D01*
X0247749Y0094537D01*
X0247749Y0096246D02*
X0247559Y0096246D01*
X0231981Y0094537D02*
X0231791Y0094537D01*
X0231791Y0097227D01*
X0231981Y0097227D01*
X0231981Y0094537D01*
X0231981Y0096246D02*
X0231791Y0096246D01*
X0229481Y0094537D02*
X0229291Y0094537D01*
X0229291Y0097227D01*
X0229481Y0097227D01*
X0229481Y0094537D01*
X0229481Y0096246D02*
X0229291Y0096246D01*
X0226981Y0094537D02*
X0226791Y0094537D01*
X0226791Y0097227D01*
X0226981Y0097227D01*
X0226981Y0094537D01*
X0226981Y0096246D02*
X0226791Y0096246D01*
X0224481Y0094537D02*
X0224291Y0094537D01*
X0224291Y0097227D01*
X0224481Y0097227D01*
X0224481Y0094537D01*
X0224481Y0096246D02*
X0224291Y0096246D01*
X0221981Y0094537D02*
X0221791Y0094537D01*
X0221791Y0097227D01*
X0221981Y0097227D01*
X0221981Y0094537D01*
X0221981Y0096246D02*
X0221791Y0096246D01*
X0219481Y0094537D02*
X0219291Y0094537D01*
X0219291Y0097227D01*
X0219481Y0097227D01*
X0219481Y0094537D01*
X0219481Y0096246D02*
X0219291Y0096246D01*
X0216981Y0094537D02*
X0216791Y0094537D01*
X0216791Y0097227D01*
X0216981Y0097227D01*
X0216981Y0094537D01*
X0216981Y0096246D02*
X0216791Y0096246D01*
X0214481Y0094537D02*
X0214291Y0094537D01*
X0214291Y0097227D01*
X0214481Y0097227D01*
X0214481Y0094537D01*
X0214481Y0096246D02*
X0214291Y0096246D01*
X0211981Y0094537D02*
X0211791Y0094537D01*
X0211791Y0097227D01*
X0211981Y0097227D01*
X0211981Y0094537D01*
X0211981Y0096246D02*
X0211791Y0096246D01*
X0209481Y0094537D02*
X0209291Y0094537D01*
X0209291Y0097227D01*
X0209481Y0097227D01*
X0209481Y0094537D01*
X0209481Y0096246D02*
X0209291Y0096246D01*
X0206981Y0094537D02*
X0206791Y0094537D01*
X0206791Y0097227D01*
X0206981Y0097227D01*
X0206981Y0094537D01*
X0206981Y0096246D02*
X0206791Y0096246D01*
X0204481Y0094537D02*
X0204291Y0094537D01*
X0204291Y0097227D01*
X0204481Y0097227D01*
X0204481Y0094537D01*
X0204481Y0096246D02*
X0204291Y0096246D01*
X0201981Y0094537D02*
X0201791Y0094537D01*
X0201791Y0097227D01*
X0201981Y0097227D01*
X0201981Y0094537D01*
X0201981Y0096246D02*
X0201791Y0096246D01*
X0199481Y0094537D02*
X0199291Y0094537D01*
X0199291Y0097227D01*
X0199481Y0097227D01*
X0199481Y0094537D01*
X0199481Y0096246D02*
X0199291Y0096246D01*
X0196981Y0094537D02*
X0196791Y0094537D01*
X0196791Y0097227D01*
X0196981Y0097227D01*
X0196981Y0094537D01*
X0196981Y0096246D02*
X0196791Y0096246D01*
X0194481Y0094537D02*
X0194291Y0094537D01*
X0194291Y0097227D01*
X0194481Y0097227D01*
X0194481Y0094537D01*
X0194481Y0096246D02*
X0194291Y0096246D01*
X0191981Y0094537D02*
X0191791Y0094537D01*
X0191791Y0097227D01*
X0191981Y0097227D01*
X0191981Y0094537D01*
X0191981Y0096246D02*
X0191791Y0096246D01*
X0189481Y0094537D02*
X0189291Y0094537D01*
X0189291Y0097227D01*
X0189481Y0097227D01*
X0189481Y0094537D01*
X0189481Y0096246D02*
X0189291Y0096246D01*
X0189291Y0099537D02*
X0189481Y0099537D01*
X0189291Y0099537D02*
X0189291Y0102227D01*
X0189481Y0102227D01*
X0189481Y0099537D01*
X0189481Y0101246D02*
X0189291Y0101246D01*
X0191791Y0099537D02*
X0191981Y0099537D01*
X0191791Y0099537D02*
X0191791Y0102227D01*
X0191981Y0102227D01*
X0191981Y0099537D01*
X0191981Y0101246D02*
X0191791Y0101246D01*
X0194291Y0099537D02*
X0194481Y0099537D01*
X0194291Y0099537D02*
X0194291Y0102227D01*
X0194481Y0102227D01*
X0194481Y0099537D01*
X0194481Y0101246D02*
X0194291Y0101246D01*
X0196791Y0099537D02*
X0196981Y0099537D01*
X0196791Y0099537D02*
X0196791Y0102227D01*
X0196981Y0102227D01*
X0196981Y0099537D01*
X0196981Y0101246D02*
X0196791Y0101246D01*
X0199291Y0099537D02*
X0199481Y0099537D01*
X0199291Y0099537D02*
X0199291Y0102227D01*
X0199481Y0102227D01*
X0199481Y0099537D01*
X0199481Y0101246D02*
X0199291Y0101246D01*
X0201791Y0099537D02*
X0201981Y0099537D01*
X0201791Y0099537D02*
X0201791Y0102227D01*
X0201981Y0102227D01*
X0201981Y0099537D01*
X0201981Y0101246D02*
X0201791Y0101246D01*
X0204291Y0099537D02*
X0204481Y0099537D01*
X0204291Y0099537D02*
X0204291Y0102227D01*
X0204481Y0102227D01*
X0204481Y0099537D01*
X0204481Y0101246D02*
X0204291Y0101246D01*
X0206791Y0099537D02*
X0206981Y0099537D01*
X0206791Y0099537D02*
X0206791Y0102227D01*
X0206981Y0102227D01*
X0206981Y0099537D01*
X0206981Y0101246D02*
X0206791Y0101246D01*
X0209291Y0099537D02*
X0209481Y0099537D01*
X0209291Y0099537D02*
X0209291Y0102227D01*
X0209481Y0102227D01*
X0209481Y0099537D01*
X0209481Y0101246D02*
X0209291Y0101246D01*
X0211791Y0099537D02*
X0211981Y0099537D01*
X0211791Y0099537D02*
X0211791Y0102227D01*
X0211981Y0102227D01*
X0211981Y0099537D01*
X0211981Y0101246D02*
X0211791Y0101246D01*
X0214291Y0099537D02*
X0214481Y0099537D01*
X0214291Y0099537D02*
X0214291Y0102227D01*
X0214481Y0102227D01*
X0214481Y0099537D01*
X0214481Y0101246D02*
X0214291Y0101246D01*
X0216791Y0099537D02*
X0216981Y0099537D01*
X0216791Y0099537D02*
X0216791Y0102227D01*
X0216981Y0102227D01*
X0216981Y0099537D01*
X0216981Y0101246D02*
X0216791Y0101246D01*
X0219291Y0099537D02*
X0219481Y0099537D01*
X0219291Y0099537D02*
X0219291Y0102227D01*
X0219481Y0102227D01*
X0219481Y0099537D01*
X0219481Y0101246D02*
X0219291Y0101246D01*
X0221791Y0099537D02*
X0221981Y0099537D01*
X0221791Y0099537D02*
X0221791Y0102227D01*
X0221981Y0102227D01*
X0221981Y0099537D01*
X0221981Y0101246D02*
X0221791Y0101246D01*
X0224291Y0099537D02*
X0224481Y0099537D01*
X0224291Y0099537D02*
X0224291Y0102227D01*
X0224481Y0102227D01*
X0224481Y0099537D01*
X0224481Y0101246D02*
X0224291Y0101246D01*
X0226791Y0099537D02*
X0226981Y0099537D01*
X0226791Y0099537D02*
X0226791Y0102227D01*
X0226981Y0102227D01*
X0226981Y0099537D01*
X0226981Y0101246D02*
X0226791Y0101246D01*
X0229291Y0099537D02*
X0229481Y0099537D01*
X0229291Y0099537D02*
X0229291Y0102227D01*
X0229481Y0102227D01*
X0229481Y0099537D01*
X0229481Y0101246D02*
X0229291Y0101246D01*
X0231791Y0099537D02*
X0231981Y0099537D01*
X0231791Y0099537D02*
X0231791Y0102227D01*
X0231981Y0102227D01*
X0231981Y0099537D01*
X0231981Y0101246D02*
X0231791Y0101246D01*
X0173713Y0099537D02*
X0173523Y0099537D01*
X0173523Y0102227D01*
X0173713Y0102227D01*
X0173713Y0099537D01*
X0173713Y0101246D02*
X0173523Y0101246D01*
X0171213Y0099537D02*
X0171023Y0099537D01*
X0171023Y0102227D01*
X0171213Y0102227D01*
X0171213Y0099537D01*
X0171213Y0101246D02*
X0171023Y0101246D01*
X0168713Y0099537D02*
X0168523Y0099537D01*
X0168523Y0102227D01*
X0168713Y0102227D01*
X0168713Y0099537D01*
X0168713Y0101246D02*
X0168523Y0101246D01*
X0166213Y0099537D02*
X0166023Y0099537D01*
X0166023Y0102227D01*
X0166213Y0102227D01*
X0166213Y0099537D01*
X0166213Y0101246D02*
X0166023Y0101246D01*
X0163713Y0099537D02*
X0163523Y0099537D01*
X0163523Y0102227D01*
X0163713Y0102227D01*
X0163713Y0099537D01*
X0163713Y0101246D02*
X0163523Y0101246D01*
X0161213Y0099537D02*
X0161023Y0099537D01*
X0161023Y0102227D01*
X0161213Y0102227D01*
X0161213Y0099537D01*
X0161213Y0101246D02*
X0161023Y0101246D01*
X0158713Y0099537D02*
X0158523Y0099537D01*
X0158523Y0102227D01*
X0158713Y0102227D01*
X0158713Y0099537D01*
X0158713Y0101246D02*
X0158523Y0101246D01*
X0156213Y0099537D02*
X0156023Y0099537D01*
X0156023Y0102227D01*
X0156213Y0102227D01*
X0156213Y0099537D01*
X0156213Y0101246D02*
X0156023Y0101246D01*
X0153713Y0099537D02*
X0153523Y0099537D01*
X0153523Y0102227D01*
X0153713Y0102227D01*
X0153713Y0099537D01*
X0153713Y0101246D02*
X0153523Y0101246D01*
X0151213Y0099537D02*
X0151023Y0099537D01*
X0151023Y0102227D01*
X0151213Y0102227D01*
X0151213Y0099537D01*
X0151213Y0101246D02*
X0151023Y0101246D01*
X0148713Y0099537D02*
X0148523Y0099537D01*
X0148523Y0102227D01*
X0148713Y0102227D01*
X0148713Y0099537D01*
X0148713Y0101246D02*
X0148523Y0101246D01*
X0146213Y0099537D02*
X0146023Y0099537D01*
X0146023Y0102227D01*
X0146213Y0102227D01*
X0146213Y0099537D01*
X0146213Y0101246D02*
X0146023Y0101246D01*
X0143713Y0099537D02*
X0143523Y0099537D01*
X0143523Y0102227D01*
X0143713Y0102227D01*
X0143713Y0099537D01*
X0143713Y0101246D02*
X0143523Y0101246D01*
X0141213Y0099537D02*
X0141023Y0099537D01*
X0141023Y0102227D01*
X0141213Y0102227D01*
X0141213Y0099537D01*
X0141213Y0101246D02*
X0141023Y0101246D01*
X0138713Y0099537D02*
X0138523Y0099537D01*
X0138523Y0102227D01*
X0138713Y0102227D01*
X0138713Y0099537D01*
X0138713Y0101246D02*
X0138523Y0101246D01*
X0136213Y0099537D02*
X0136023Y0099537D01*
X0136023Y0102227D01*
X0136213Y0102227D01*
X0136213Y0099537D01*
X0136213Y0101246D02*
X0136023Y0101246D01*
X0133713Y0099537D02*
X0133523Y0099537D01*
X0133523Y0102227D01*
X0133713Y0102227D01*
X0133713Y0099537D01*
X0133713Y0101246D02*
X0133523Y0101246D01*
X0131213Y0099537D02*
X0131023Y0099537D01*
X0131023Y0102227D01*
X0131213Y0102227D01*
X0131213Y0099537D01*
X0131213Y0101246D02*
X0131023Y0101246D01*
X0131023Y0094537D02*
X0131213Y0094537D01*
X0131023Y0094537D02*
X0131023Y0097227D01*
X0131213Y0097227D01*
X0131213Y0094537D01*
X0131213Y0096246D02*
X0131023Y0096246D01*
X0133523Y0094537D02*
X0133713Y0094537D01*
X0133523Y0094537D02*
X0133523Y0097227D01*
X0133713Y0097227D01*
X0133713Y0094537D01*
X0133713Y0096246D02*
X0133523Y0096246D01*
X0136023Y0094537D02*
X0136213Y0094537D01*
X0136023Y0094537D02*
X0136023Y0097227D01*
X0136213Y0097227D01*
X0136213Y0094537D01*
X0136213Y0096246D02*
X0136023Y0096246D01*
X0138523Y0094537D02*
X0138713Y0094537D01*
X0138523Y0094537D02*
X0138523Y0097227D01*
X0138713Y0097227D01*
X0138713Y0094537D01*
X0138713Y0096246D02*
X0138523Y0096246D01*
X0141023Y0094537D02*
X0141213Y0094537D01*
X0141023Y0094537D02*
X0141023Y0097227D01*
X0141213Y0097227D01*
X0141213Y0094537D01*
X0141213Y0096246D02*
X0141023Y0096246D01*
X0143523Y0094537D02*
X0143713Y0094537D01*
X0143523Y0094537D02*
X0143523Y0097227D01*
X0143713Y0097227D01*
X0143713Y0094537D01*
X0143713Y0096246D02*
X0143523Y0096246D01*
X0146023Y0094537D02*
X0146213Y0094537D01*
X0146023Y0094537D02*
X0146023Y0097227D01*
X0146213Y0097227D01*
X0146213Y0094537D01*
X0146213Y0096246D02*
X0146023Y0096246D01*
X0148523Y0094537D02*
X0148713Y0094537D01*
X0148523Y0094537D02*
X0148523Y0097227D01*
X0148713Y0097227D01*
X0148713Y0094537D01*
X0148713Y0096246D02*
X0148523Y0096246D01*
X0151023Y0094537D02*
X0151213Y0094537D01*
X0151023Y0094537D02*
X0151023Y0097227D01*
X0151213Y0097227D01*
X0151213Y0094537D01*
X0151213Y0096246D02*
X0151023Y0096246D01*
X0153523Y0094537D02*
X0153713Y0094537D01*
X0153523Y0094537D02*
X0153523Y0097227D01*
X0153713Y0097227D01*
X0153713Y0094537D01*
X0153713Y0096246D02*
X0153523Y0096246D01*
X0156023Y0094537D02*
X0156213Y0094537D01*
X0156023Y0094537D02*
X0156023Y0097227D01*
X0156213Y0097227D01*
X0156213Y0094537D01*
X0156213Y0096246D02*
X0156023Y0096246D01*
X0158523Y0094537D02*
X0158713Y0094537D01*
X0158523Y0094537D02*
X0158523Y0097227D01*
X0158713Y0097227D01*
X0158713Y0094537D01*
X0158713Y0096246D02*
X0158523Y0096246D01*
X0161023Y0094537D02*
X0161213Y0094537D01*
X0161023Y0094537D02*
X0161023Y0097227D01*
X0161213Y0097227D01*
X0161213Y0094537D01*
X0161213Y0096246D02*
X0161023Y0096246D01*
X0163523Y0094537D02*
X0163713Y0094537D01*
X0163523Y0094537D02*
X0163523Y0097227D01*
X0163713Y0097227D01*
X0163713Y0094537D01*
X0163713Y0096246D02*
X0163523Y0096246D01*
X0166023Y0094537D02*
X0166213Y0094537D01*
X0166023Y0094537D02*
X0166023Y0097227D01*
X0166213Y0097227D01*
X0166213Y0094537D01*
X0166213Y0096246D02*
X0166023Y0096246D01*
X0168523Y0094537D02*
X0168713Y0094537D01*
X0168523Y0094537D02*
X0168523Y0097227D01*
X0168713Y0097227D01*
X0168713Y0094537D01*
X0168713Y0096246D02*
X0168523Y0096246D01*
X0171023Y0094537D02*
X0171213Y0094537D01*
X0171023Y0094537D02*
X0171023Y0097227D01*
X0171213Y0097227D01*
X0171213Y0094537D01*
X0171213Y0096246D02*
X0171023Y0096246D01*
X0173523Y0094537D02*
X0173713Y0094537D01*
X0173523Y0094537D02*
X0173523Y0097227D01*
X0173713Y0097227D01*
X0173713Y0094537D01*
X0173713Y0096246D02*
X0173523Y0096246D01*
X0115445Y0094537D02*
X0115255Y0094537D01*
X0115255Y0097227D01*
X0115445Y0097227D01*
X0115445Y0094537D01*
X0115445Y0096246D02*
X0115255Y0096246D01*
X0112945Y0094537D02*
X0112755Y0094537D01*
X0112755Y0097227D01*
X0112945Y0097227D01*
X0112945Y0094537D01*
X0112945Y0096246D02*
X0112755Y0096246D01*
X0110445Y0094537D02*
X0110255Y0094537D01*
X0110255Y0097227D01*
X0110445Y0097227D01*
X0110445Y0094537D01*
X0110445Y0096246D02*
X0110255Y0096246D01*
X0107945Y0094537D02*
X0107755Y0094537D01*
X0107755Y0097227D01*
X0107945Y0097227D01*
X0107945Y0094537D01*
X0107945Y0096246D02*
X0107755Y0096246D01*
X0105445Y0094537D02*
X0105255Y0094537D01*
X0105255Y0097227D01*
X0105445Y0097227D01*
X0105445Y0094537D01*
X0105445Y0096246D02*
X0105255Y0096246D01*
X0102945Y0094537D02*
X0102755Y0094537D01*
X0102755Y0097227D01*
X0102945Y0097227D01*
X0102945Y0094537D01*
X0102945Y0096246D02*
X0102755Y0096246D01*
X0100445Y0094537D02*
X0100255Y0094537D01*
X0100255Y0097227D01*
X0100445Y0097227D01*
X0100445Y0094537D01*
X0100445Y0096246D02*
X0100255Y0096246D01*
X0097945Y0094537D02*
X0097755Y0094537D01*
X0097755Y0097227D01*
X0097945Y0097227D01*
X0097945Y0094537D01*
X0097945Y0096246D02*
X0097755Y0096246D01*
X0095445Y0094537D02*
X0095255Y0094537D01*
X0095255Y0097227D01*
X0095445Y0097227D01*
X0095445Y0094537D01*
X0095445Y0096246D02*
X0095255Y0096246D01*
X0092945Y0094537D02*
X0092755Y0094537D01*
X0092755Y0097227D01*
X0092945Y0097227D01*
X0092945Y0094537D01*
X0092945Y0096246D02*
X0092755Y0096246D01*
X0090445Y0094537D02*
X0090255Y0094537D01*
X0090255Y0097227D01*
X0090445Y0097227D01*
X0090445Y0094537D01*
X0090445Y0096246D02*
X0090255Y0096246D01*
X0087945Y0094537D02*
X0087755Y0094537D01*
X0087755Y0097227D01*
X0087945Y0097227D01*
X0087945Y0094537D01*
X0087945Y0096246D02*
X0087755Y0096246D01*
X0085445Y0094537D02*
X0085255Y0094537D01*
X0085255Y0097227D01*
X0085445Y0097227D01*
X0085445Y0094537D01*
X0085445Y0096246D02*
X0085255Y0096246D01*
X0082945Y0094537D02*
X0082755Y0094537D01*
X0082755Y0097227D01*
X0082945Y0097227D01*
X0082945Y0094537D01*
X0082945Y0096246D02*
X0082755Y0096246D01*
X0080445Y0094537D02*
X0080255Y0094537D01*
X0080255Y0097227D01*
X0080445Y0097227D01*
X0080445Y0094537D01*
X0080445Y0096246D02*
X0080255Y0096246D01*
X0077945Y0094537D02*
X0077755Y0094537D01*
X0077755Y0097227D01*
X0077945Y0097227D01*
X0077945Y0094537D01*
X0077945Y0096246D02*
X0077755Y0096246D01*
X0075445Y0094537D02*
X0075255Y0094537D01*
X0075255Y0097227D01*
X0075445Y0097227D01*
X0075445Y0094537D01*
X0075445Y0096246D02*
X0075255Y0096246D01*
X0072945Y0094537D02*
X0072755Y0094537D01*
X0072755Y0097227D01*
X0072945Y0097227D01*
X0072945Y0094537D01*
X0072945Y0096246D02*
X0072755Y0096246D01*
X0072755Y0099537D02*
X0072945Y0099537D01*
X0072755Y0099537D02*
X0072755Y0102227D01*
X0072945Y0102227D01*
X0072945Y0099537D01*
X0072945Y0101246D02*
X0072755Y0101246D01*
X0075255Y0099537D02*
X0075445Y0099537D01*
X0075255Y0099537D02*
X0075255Y0102227D01*
X0075445Y0102227D01*
X0075445Y0099537D01*
X0075445Y0101246D02*
X0075255Y0101246D01*
X0077755Y0099537D02*
X0077945Y0099537D01*
X0077755Y0099537D02*
X0077755Y0102227D01*
X0077945Y0102227D01*
X0077945Y0099537D01*
X0077945Y0101246D02*
X0077755Y0101246D01*
X0080255Y0099537D02*
X0080445Y0099537D01*
X0080255Y0099537D02*
X0080255Y0102227D01*
X0080445Y0102227D01*
X0080445Y0099537D01*
X0080445Y0101246D02*
X0080255Y0101246D01*
X0082755Y0099537D02*
X0082945Y0099537D01*
X0082755Y0099537D02*
X0082755Y0102227D01*
X0082945Y0102227D01*
X0082945Y0099537D01*
X0082945Y0101246D02*
X0082755Y0101246D01*
X0085255Y0099537D02*
X0085445Y0099537D01*
X0085255Y0099537D02*
X0085255Y0102227D01*
X0085445Y0102227D01*
X0085445Y0099537D01*
X0085445Y0101246D02*
X0085255Y0101246D01*
X0087755Y0099537D02*
X0087945Y0099537D01*
X0087755Y0099537D02*
X0087755Y0102227D01*
X0087945Y0102227D01*
X0087945Y0099537D01*
X0087945Y0101246D02*
X0087755Y0101246D01*
X0090255Y0099537D02*
X0090445Y0099537D01*
X0090255Y0099537D02*
X0090255Y0102227D01*
X0090445Y0102227D01*
X0090445Y0099537D01*
X0090445Y0101246D02*
X0090255Y0101246D01*
X0092755Y0099537D02*
X0092945Y0099537D01*
X0092755Y0099537D02*
X0092755Y0102227D01*
X0092945Y0102227D01*
X0092945Y0099537D01*
X0092945Y0101246D02*
X0092755Y0101246D01*
X0095255Y0099537D02*
X0095445Y0099537D01*
X0095255Y0099537D02*
X0095255Y0102227D01*
X0095445Y0102227D01*
X0095445Y0099537D01*
X0095445Y0101246D02*
X0095255Y0101246D01*
X0097755Y0099537D02*
X0097945Y0099537D01*
X0097755Y0099537D02*
X0097755Y0102227D01*
X0097945Y0102227D01*
X0097945Y0099537D01*
X0097945Y0101246D02*
X0097755Y0101246D01*
X0100255Y0099537D02*
X0100445Y0099537D01*
X0100255Y0099537D02*
X0100255Y0102227D01*
X0100445Y0102227D01*
X0100445Y0099537D01*
X0100445Y0101246D02*
X0100255Y0101246D01*
X0102755Y0099537D02*
X0102945Y0099537D01*
X0102755Y0099537D02*
X0102755Y0102227D01*
X0102945Y0102227D01*
X0102945Y0099537D01*
X0102945Y0101246D02*
X0102755Y0101246D01*
X0105255Y0099537D02*
X0105445Y0099537D01*
X0105255Y0099537D02*
X0105255Y0102227D01*
X0105445Y0102227D01*
X0105445Y0099537D01*
X0105445Y0101246D02*
X0105255Y0101246D01*
X0107755Y0099537D02*
X0107945Y0099537D01*
X0107755Y0099537D02*
X0107755Y0102227D01*
X0107945Y0102227D01*
X0107945Y0099537D01*
X0107945Y0101246D02*
X0107755Y0101246D01*
X0110255Y0099537D02*
X0110445Y0099537D01*
X0110255Y0099537D02*
X0110255Y0102227D01*
X0110445Y0102227D01*
X0110445Y0099537D01*
X0110445Y0101246D02*
X0110255Y0101246D01*
X0112755Y0099537D02*
X0112945Y0099537D01*
X0112755Y0099537D02*
X0112755Y0102227D01*
X0112945Y0102227D01*
X0112945Y0099537D01*
X0112945Y0101246D02*
X0112755Y0101246D01*
X0115255Y0099537D02*
X0115445Y0099537D01*
X0115255Y0099537D02*
X0115255Y0102227D01*
X0115445Y0102227D01*
X0115445Y0099537D01*
X0115445Y0101246D02*
X0115255Y0101246D01*
D12*
X0074817Y0078371D03*
X0072568Y0080611D03*
X0075292Y0082240D03*
X0077542Y0080000D03*
X0085914Y0075001D03*
X0084369Y0072229D03*
X0087437Y0071414D03*
X0088982Y0074187D03*
X0098732Y0074044D03*
X0101796Y0074872D03*
X0101844Y0071698D03*
X0098780Y0070870D03*
X0111940Y0076899D03*
X0110311Y0079623D03*
X0112551Y0081872D03*
X0114180Y0079148D03*
X0130836Y0080611D03*
X0133560Y0082240D03*
X0135809Y0080000D03*
X0133085Y0078371D03*
X0142637Y0072229D03*
X0144182Y0075001D03*
X0147249Y0074187D03*
X0145704Y0071414D03*
X0157048Y0070870D03*
X0156999Y0074044D03*
X0160064Y0074872D03*
X0160112Y0071698D03*
X0170208Y0076899D03*
X0172447Y0079148D03*
X0170819Y0081872D03*
X0168579Y0079623D03*
X0189103Y0080611D03*
X0191353Y0078371D03*
X0194077Y0080000D03*
X0191828Y0082240D03*
X0202449Y0075001D03*
X0200904Y0072229D03*
X0203972Y0071414D03*
X0205517Y0074187D03*
X0215267Y0074044D03*
X0218331Y0074872D03*
X0218380Y0071698D03*
X0215316Y0070870D03*
X0226847Y0079623D03*
X0229086Y0081872D03*
X0230715Y0079148D03*
X0228476Y0076899D03*
X0247371Y0080611D03*
X0249620Y0078371D03*
X0252345Y0080000D03*
X0250095Y0082240D03*
X0259172Y0072229D03*
X0260717Y0075001D03*
X0263785Y0074187D03*
X0262240Y0071414D03*
X0273583Y0070870D03*
X0273535Y0074044D03*
X0276599Y0074872D03*
X0276648Y0071698D03*
X0286743Y0076899D03*
X0285114Y0079623D03*
X0287354Y0081872D03*
X0288983Y0079148D03*
X0287731Y0114642D03*
X0285482Y0116882D03*
X0288206Y0118510D03*
X0290456Y0116271D03*
X0278655Y0124653D03*
X0277110Y0121880D03*
X0274042Y0122695D03*
X0275587Y0125468D03*
X0264243Y0126012D03*
X0261179Y0125184D03*
X0261228Y0122010D03*
X0264292Y0122838D03*
X0252712Y0117259D03*
X0251083Y0119983D03*
X0248844Y0117734D03*
X0250473Y0115010D03*
X0232188Y0116271D03*
X0229939Y0118510D03*
X0227214Y0116882D03*
X0229464Y0114642D03*
X0218842Y0121880D03*
X0215774Y0122695D03*
X0217319Y0125468D03*
X0220387Y0124653D03*
X0206024Y0122838D03*
X0202960Y0122010D03*
X0202911Y0125184D03*
X0205976Y0126012D03*
X0192816Y0119983D03*
X0194445Y0117259D03*
X0192205Y0115010D03*
X0190576Y0117734D03*
X0173920Y0116271D03*
X0171671Y0118510D03*
X0168947Y0116882D03*
X0171196Y0114642D03*
X0160574Y0121880D03*
X0157507Y0122695D03*
X0159051Y0125468D03*
X0162119Y0124653D03*
X0147708Y0126012D03*
X0147756Y0122838D03*
X0144692Y0122010D03*
X0144644Y0125184D03*
X0136177Y0117259D03*
X0134548Y0119983D03*
X0132308Y0117734D03*
X0133937Y0115010D03*
X0115653Y0116271D03*
X0113403Y0118510D03*
X0110679Y0116882D03*
X0112928Y0114642D03*
X0102307Y0121880D03*
X0103851Y0124653D03*
X0100784Y0125468D03*
X0099239Y0122695D03*
X0089489Y0122838D03*
X0086425Y0122010D03*
X0086376Y0125184D03*
X0089440Y0126012D03*
X0076280Y0119983D03*
X0074041Y0117734D03*
X0075670Y0115010D03*
X0077909Y0117259D03*
X0087437Y0150154D03*
X0088982Y0152927D03*
X0085914Y0153742D03*
X0084369Y0150969D03*
X0077542Y0158740D03*
X0074817Y0157112D03*
X0072568Y0159351D03*
X0075292Y0160980D03*
X0098732Y0152784D03*
X0101796Y0153612D03*
X0101844Y0150438D03*
X0098780Y0149610D03*
X0111940Y0155639D03*
X0110311Y0158363D03*
X0112551Y0160612D03*
X0114180Y0157888D03*
X0130836Y0159351D03*
X0133085Y0157112D03*
X0135809Y0158740D03*
X0133560Y0160980D03*
X0144182Y0153742D03*
X0147249Y0152927D03*
X0145704Y0150154D03*
X0142637Y0150969D03*
X0157048Y0149610D03*
X0160112Y0150438D03*
X0160064Y0153612D03*
X0156999Y0152784D03*
X0168579Y0158363D03*
X0170208Y0155639D03*
X0172447Y0157888D03*
X0170819Y0160612D03*
X0189103Y0159351D03*
X0191353Y0157112D03*
X0194077Y0158740D03*
X0191828Y0160980D03*
X0202449Y0153742D03*
X0200904Y0150969D03*
X0203972Y0150154D03*
X0205517Y0152927D03*
X0215267Y0152784D03*
X0218331Y0153612D03*
X0218380Y0150438D03*
X0215316Y0149610D03*
X0226847Y0158363D03*
X0228476Y0155639D03*
X0230715Y0157888D03*
X0229086Y0160612D03*
X0247371Y0159351D03*
X0249620Y0157112D03*
X0252345Y0158740D03*
X0250095Y0160980D03*
X0260717Y0153742D03*
X0263785Y0152927D03*
X0262240Y0150154D03*
X0259172Y0150969D03*
X0273583Y0149610D03*
X0273535Y0152784D03*
X0276599Y0153612D03*
X0276648Y0150438D03*
X0286743Y0155639D03*
X0285114Y0158363D03*
X0287354Y0160612D03*
X0288983Y0157888D03*
X0287731Y0193382D03*
X0285482Y0195622D03*
X0288206Y0197251D03*
X0290456Y0195011D03*
X0278655Y0203393D03*
X0277110Y0200621D03*
X0274042Y0201435D03*
X0275587Y0204208D03*
X0264243Y0204752D03*
X0261179Y0203924D03*
X0261228Y0200750D03*
X0264292Y0201578D03*
X0252712Y0195999D03*
X0250473Y0193750D03*
X0248844Y0196474D03*
X0251083Y0198723D03*
X0232188Y0195011D03*
X0229464Y0193382D03*
X0227214Y0195622D03*
X0229939Y0197251D03*
X0220387Y0203393D03*
X0218842Y0200621D03*
X0215774Y0201435D03*
X0217319Y0204208D03*
X0206024Y0201578D03*
X0202960Y0200750D03*
X0202911Y0203924D03*
X0205976Y0204752D03*
X0192816Y0198723D03*
X0194445Y0195999D03*
X0192205Y0193750D03*
X0190576Y0196474D03*
X0173920Y0195011D03*
X0171196Y0193382D03*
X0168947Y0195622D03*
X0171671Y0197251D03*
X0162119Y0203393D03*
X0160574Y0200621D03*
X0157507Y0201435D03*
X0159051Y0204208D03*
X0147708Y0204752D03*
X0147756Y0201578D03*
X0144692Y0200750D03*
X0144644Y0203924D03*
X0134548Y0198723D03*
X0136177Y0195999D03*
X0133937Y0193750D03*
X0132308Y0196474D03*
X0115653Y0195011D03*
X0113403Y0197251D03*
X0110679Y0195622D03*
X0112928Y0193382D03*
X0103851Y0203393D03*
X0102307Y0200621D03*
X0099239Y0201435D03*
X0100784Y0204208D03*
X0089440Y0204752D03*
X0086376Y0203924D03*
X0086425Y0200750D03*
X0089489Y0201578D03*
X0077909Y0195999D03*
X0075670Y0193750D03*
X0074041Y0196474D03*
X0076280Y0198723D03*
X0084369Y0229709D03*
X0085914Y0232482D03*
X0088982Y0231667D03*
X0087437Y0228894D03*
X0098780Y0228350D03*
X0098732Y0231524D03*
X0101796Y0232352D03*
X0101844Y0229178D03*
X0111940Y0234379D03*
X0110311Y0237103D03*
X0112551Y0239353D03*
X0114180Y0236628D03*
X0130836Y0238091D03*
X0133085Y0235852D03*
X0135809Y0237481D03*
X0133560Y0239720D03*
X0144182Y0232482D03*
X0147249Y0231667D03*
X0145704Y0228894D03*
X0142637Y0229709D03*
X0157048Y0228350D03*
X0160112Y0229178D03*
X0160064Y0232352D03*
X0156999Y0231524D03*
X0168579Y0237103D03*
X0170208Y0234379D03*
X0172447Y0236628D03*
X0170819Y0239353D03*
X0189103Y0238091D03*
X0191353Y0235852D03*
X0194077Y0237481D03*
X0191828Y0239720D03*
X0202449Y0232482D03*
X0200904Y0229709D03*
X0203972Y0228894D03*
X0205517Y0231667D03*
X0215267Y0231524D03*
X0215316Y0228350D03*
X0218380Y0229178D03*
X0218331Y0232352D03*
X0226847Y0237103D03*
X0228476Y0234379D03*
X0230715Y0236628D03*
X0229086Y0239353D03*
X0247371Y0238091D03*
X0249620Y0235852D03*
X0252345Y0237481D03*
X0250095Y0239720D03*
X0260717Y0232482D03*
X0263785Y0231667D03*
X0262240Y0228894D03*
X0259172Y0229709D03*
X0273583Y0228350D03*
X0273535Y0231524D03*
X0276599Y0232352D03*
X0276648Y0229178D03*
X0286743Y0234379D03*
X0285114Y0237103D03*
X0287354Y0239353D03*
X0288983Y0236628D03*
X0287731Y0272122D03*
X0285482Y0274362D03*
X0288206Y0275991D03*
X0290456Y0273751D03*
X0278655Y0282134D03*
X0275587Y0282948D03*
X0274042Y0280176D03*
X0277110Y0279361D03*
X0264292Y0280319D03*
X0264243Y0283492D03*
X0261179Y0282664D03*
X0261228Y0279490D03*
X0252712Y0274739D03*
X0250473Y0272490D03*
X0248844Y0275214D03*
X0251083Y0277464D03*
X0232188Y0273751D03*
X0229464Y0272122D03*
X0227214Y0274362D03*
X0229939Y0275991D03*
X0220387Y0282134D03*
X0217319Y0282948D03*
X0215774Y0280176D03*
X0218842Y0279361D03*
X0206024Y0280319D03*
X0205976Y0283492D03*
X0202911Y0282664D03*
X0202960Y0279490D03*
X0194445Y0274739D03*
X0192205Y0272490D03*
X0190576Y0275214D03*
X0192816Y0277464D03*
X0173920Y0273751D03*
X0171196Y0272122D03*
X0168947Y0274362D03*
X0171671Y0275991D03*
X0162119Y0282134D03*
X0159051Y0282948D03*
X0157507Y0280176D03*
X0160574Y0279361D03*
X0147756Y0280319D03*
X0147708Y0283492D03*
X0144644Y0282664D03*
X0144692Y0279490D03*
X0136177Y0274739D03*
X0133937Y0272490D03*
X0132308Y0275214D03*
X0134548Y0277464D03*
X0115653Y0273751D03*
X0112928Y0272122D03*
X0110679Y0274362D03*
X0113403Y0275991D03*
X0103851Y0282134D03*
X0100784Y0282948D03*
X0099239Y0280176D03*
X0102307Y0279361D03*
X0089489Y0280319D03*
X0089440Y0283492D03*
X0086376Y0282664D03*
X0086425Y0279490D03*
X0077909Y0274739D03*
X0075670Y0272490D03*
X0074041Y0275214D03*
X0076280Y0277464D03*
X0075292Y0239720D03*
X0072568Y0238091D03*
X0074817Y0235852D03*
X0077542Y0237481D03*
D13*
X0069213Y0247916D03*
X0070110Y0266921D03*
X0118701Y0262583D03*
X0128378Y0266921D03*
X0127481Y0247916D03*
X0118110Y0244921D03*
X0128378Y0188181D03*
X0118701Y0183843D03*
X0127481Y0169176D03*
X0118110Y0166181D03*
X0069213Y0169176D03*
X0070110Y0188181D03*
X0070110Y0109441D03*
X0069213Y0090435D03*
X0118110Y0087441D03*
X0127481Y0090435D03*
X0118701Y0105102D03*
X0128378Y0109441D03*
X0176969Y0105102D03*
X0186646Y0109441D03*
X0185749Y0090435D03*
X0176378Y0087441D03*
X0234646Y0087441D03*
X0244017Y0090435D03*
X0235236Y0105102D03*
X0244913Y0109441D03*
X0293504Y0105102D03*
X0292913Y0087441D03*
X0292913Y0166181D03*
X0293504Y0183843D03*
X0244913Y0188181D03*
X0235236Y0183843D03*
X0244017Y0169176D03*
X0234646Y0166181D03*
X0185749Y0169176D03*
X0176378Y0166181D03*
X0176969Y0183843D03*
X0186646Y0188181D03*
X0176378Y0244921D03*
X0185749Y0247916D03*
X0176969Y0262583D03*
X0186646Y0266921D03*
X0235236Y0262583D03*
X0244913Y0266921D03*
X0244017Y0247916D03*
X0234646Y0244921D03*
X0292913Y0244921D03*
X0293504Y0262583D03*
M02*
